<?xml version="1.0" encoding="UTF-8" standalone="no"?>
<!-- Created with Inkscape (http://www.inkscape.org/) -->

<svg
   width="1190.625mm"
   height="661.45831mm"
   viewBox="0 0 1190.625 661.45831"
   version="1.1"
   id="svg1"
   inkscape:version="1.4.3 (0d15f75, 2025-12-25)"
   sodipodi:docname="preview.svg"
   xmlns:inkscape="http://www.inkscape.org/namespaces/inkscape"
   xmlns:sodipodi="http://sodipodi.sourceforge.net/DTD/sodipodi-0.dtd"
   xmlns="http://www.w3.org/2000/svg"
   xmlns:svg="http://www.w3.org/2000/svg">
  <sodipodi:namedview
     id="namedview1"
     pagecolor="#ffffff"
     bordercolor="#666666"
     borderopacity="1.0"
     inkscape:showpageshadow="2"
     inkscape:pageopacity="0.0"
     inkscape:pagecheckerboard="0"
     inkscape:deskcolor="#d1d1d1"
     inkscape:document-units="mm"
     inkscape:zoom="0.077089574"
     inkscape:cx="2555.4688"
     inkscape:cy="3554.3068"
     inkscape:window-width="1470"
     inkscape:window-height="895"
     inkscape:window-x="0"
     inkscape:window-y="33"
     inkscape:window-maximized="1"
     inkscape:current-layer="layer1" />
  <defs
     id="defs1" />
  <g
     inkscape:label="Layer 1"
     inkscape:groupmode="layer"
     id="layer1"
     transform="translate(391.46326,286.13345)">
    <rect
       style="opacity:1;fill:#ffeeaa;stroke-width:72.7208;stroke-linecap:round;paint-order:markers fill stroke"
       id="rect4"
       width="1190.625"
       height="661.45831"
       x="-391.46326"
       y="-286.13345" />
    <text
       xml:space="preserve"
       style="font-stretch:extra-condensed;font-size:38.1px;line-height:1.25;font-family:'TU Dating';-inkscape-font-specification:'TU Dating Extra-Condensed';text-align:center;letter-spacing:0.015875px;text-anchor:middle;stroke-width:0.264583"
       x="0"
       y="117.59457"
       id="text1"><tspan
         sodipodi:role="line"
         id="tspan1"
         style="font-size:38.1px;stroke-width:0.264583"
         x="0"
         y="117.59457" /></text>
    <g
       id="text2"
       style="font-stretch:extra-condensed;font-size:264.583px;line-height:1.25;font-family:'TU Dating';-inkscape-font-specification:'TU Dating Extra-Condensed';text-align:center;letter-spacing:0.015875px;text-anchor:middle;stroke-width:0.264583"
       aria-label="28.-3.26.&#10;3830.10.14.">
      <path
         style="font-stretch:normal;-inkscape-font-specification:'TU Dating'"
         d="m -266.23787,-234.53942 q 18.25623,0 31.2208,11.11248 15.34581,12.96457 15.34581,35.71871 0,19.57914 -15.08123,36.51246 -3.17499,3.43957 -7.14374,7.14374 -3.96874,3.70416 -7.14374,6.34999 -3.175,2.64583 -8.46666,6.87916 -5.02707,3.96874 -7.6729,6.08541 -17.72706,14.55206 -27.78122,28.574961 -10.05415,14.0229 -12.4354,35.454123 5.82083,0.793749 17.72706,3.439579 12.17082,2.64583 15.08123,3.174996 23.28331,4.762494 28.0458,4.762494 2.64583,0 4.7625,-0.529166 2.11666,-0.264583 3.17499,-0.793749 1.05833,-0.529166 3.175,-2.116664 2.38124,-1.322915 4.23333,-2.116664 0.79374,-0.529166 2.91041,-0.529166 4.49791,0 6.08541,3.439579 0.79375,1.058332 0.79375,3.174996 0,3.968746 -3.70416,5.820827 -0.52917,0.264583 -3.96875,2.116664 -3.175,1.852081 -5.02708,2.381247 -1.5875,0.793749 -5.29166,1.587498 -3.43958,0.793749 -7.14374,0.793749 -5.55624,0 -30.69163,-5.027077 -23.01872,-4.762494 -30.95621,-6.085409 -1.32291,5.027077 -6.34999,5.027077 -2.91041,0 -4.7625,-2.116664 -1.85208,-1.852081 -1.85208,-4.497912 0,-1.322915 0,-3.704162 0.26459,-2.116664 0.26459,-3.174996 v -0.264583 q 1.58749,-26.722884 13.75831,-44.979108 12.17082,-18.25623 31.48538,-34.13121 23.81247,-19.31456 29.10413,-25.13539 11.64165,-12.96456 11.64165,-27.51663 0,-16.66873 -10.58332,-25.39997 -9.78957,-8.20207 -22.75414,-8.20207 -8.99582,0 -16.66872,4.76249 -7.67291,4.49791 -11.90624,10.84791 -1.5875,2.91041 -5.55624,2.91041 -2.11667,0 -3.43958,-1.05833 -2.91042,-1.5875 -2.91042,-5.55625 0,-2.38124 1.05834,-3.70416 6.08541,-8.99582 16.40414,-15.08123 10.31874,-6.34999 23.01872,-6.34999 z m 126.75113,89.16447 q -0.52916,0.52917 -1.85208,1.5875 -1.05833,1.05833 -1.58749,1.5875 -33.86663,33.33746 -33.86663,59.266591 0,14.287483 7.67291,22.754139 9.78957,10.847903 32.01454,10.847903 11.37707,0 20.90206,-9.524988 9.52499,-9.524988 9.52499,-20.902057 0,-14.816649 -7.40833,-28.574968 -7.14374,-14.0229 -20.37289,-30.69163 -0.79375,-1.05833 -2.64583,-3.17499 -1.5875,-2.11667 -2.38125,-3.175 z m 14.81665,-75.93532 q -13.49373,0 -20.10831,4.76249 -7.14374,5.02708 -7.14374,19.57915 0,12.69998 14.28749,32.27912 21.96039,-18.25623 40.216613,-27.25205 v -2.11666 q 0,-11.11249 -8.202073,-19.04998 -7.93749,-8.20207 -19.04998,-8.20207 z m 0,-13.22915 q 16.66873,0 28.574968,11.90623 11.906235,11.90624 11.906235,28.57497 v 6.34999 0.26458 q 0,0.52917 -0.529166,1.5875 0,0.26458 -0.264583,0.79375 -0.264583,0.52917 -0.264583,0.79375 -0.529166,0.79375 -1.322915,1.32291 -0.264583,0.52917 -1.322915,1.05834 l -0.264583,0.26458 q -19.843728,8.99582 -41.539528,27.51663 1.05833,1.05833 2.91041,3.43958 1.85208,2.38125 2.64583,3.43958 9.52499,11.90624 14.81665,20.37289 5.55624,8.20208 10.583318,21.43123 5.29166,12.964563 5.29166,25.664548 0,16.668729 -13.493738,30.162462 -13.49373,13.493734 -30.16246,13.493734 -27.78121,0 -41.80411,-15.345815 -11.11249,-12.170818 -11.11249,-31.485378 0,-32.014541 37.83537,-68.791581 1.32292,-1.32292 4.49791,-3.96875 -17.46248,-22.75413 -17.46248,-41.27494 0,-21.16665 12.4354,-30.16247 10.05416,-7.40832 28.0458,-7.40832 z m 100.821998,209.54974 q 3.174996,-3.174996 7.408324,-3.174996 4.233329,0 7.4083247,3.174996 3.1749961,3.174996 3.1749961,7.408324 0,4.233329 -3.1749961,7.408325 -3.1749957,3.1749957 -7.4083247,3.1749957 -4.233328,0 -7.408324,-3.1749957 -3.174996,-3.174996 -3.174996,-7.408325 0,-4.233328 3.174996,-7.408324 z M 70.359255,-141.93537 H 138.0925 q 2.64583,0 4.49792,1.85208 2.11666,1.85208 2.11666,4.7625 0,2.91041 -2.11666,4.76249 -1.85209,1.85208 -4.49792,1.85208 H 70.359255 q -2.910413,0 -5.027077,-1.85208 -1.852081,-2.11666 -1.852081,-4.76249 0,-2.64583 1.852081,-4.49792 2.116664,-2.11666 5.027077,-2.11666 z m 158.236505,-92.60405 q 23.54789,0 36.24787,12.69998 10.31874,10.31874 10.31874,24.87081 0,25.13538 -25.66455,45.50827 25.66455,18.52081 25.66455,53.181187 0,28.574965 -16.66873,45.243694 -16.66873,16.933313 -39.15828,16.933313 -15.34582,0 -27.78122,-8.202073 -12.4354,-8.202074 -18.25623,-20.108309 -0.79374,-1.322915 -0.79374,-2.910413 0,-4.233328 3.70416,-6.085409 0.79375,-0.529166 2.91041,-0.529166 4.49791,0 6.08541,3.439579 4.23333,8.202073 13.49373,14.552065 9.52499,6.614575 20.63748,6.614575 17.72706,0 30.16246,-12.435401 12.4354,-12.435401 12.4354,-36.512455 0,-32.543707 -26.4583,-46.302027 l -11.64165,-2.91041 q -5.02708,-1.32292 -5.02708,-6.34999 0,-0.26459 0,-0.79375 0.26458,-0.52917 0.26458,-0.79375 1.32292,-5.02708 6.35,-5.02708 0.26458,0 0.79375,0.26458 0.52916,0 0.79374,0 l 9.26041,2.38125 q 8.20207,-6.08541 12.4354,-9.78957 4.49791,-3.96875 8.73124,-11.90624 4.49791,-8.20207 4.49791,-17.46247 0,-8.99583 -6.34999,-15.34582 -8.99582,-8.99582 -26.98747,-8.99582 -12.69998,0 -23.01872,10.31874 -2.11666,2.11666 -4.76249,2.11666 -2.64583,0 -4.7625,-2.11666 -1.85208,-1.85209 -1.85208,-4.49792 0,-2.91041 1.85208,-4.76249 14.28749,-14.28748 32.54371,-14.28748 z m 118.01989,209.54974 q 3.175,-3.174996 7.40833,-3.174996 4.23333,0 7.40832,3.174996 3.175,3.174996 3.175,7.408324 0,4.233329 -3.175,7.408325 -3.17499,3.1749957 -7.40832,3.1749957 -4.23333,0 -7.40833,-3.1749957 -3.17499,-3.174996 -3.17499,-7.408325 0,-4.233328 3.17499,-7.408324 z m 128.07398,-209.54974 q 18.25622,0 31.22079,11.11248 15.34581,12.96457 15.34581,35.71871 0,19.57914 -15.08123,36.51246 -3.17499,3.43957 -7.14374,7.14374 -3.96874,3.70416 -7.14374,6.34999 -3.175,2.64583 -8.46666,6.87916 -5.02707,3.96874 -7.6729,6.08541 -17.72706,14.55206 -27.78122,28.574961 -10.05415,14.0229 -12.4354,35.454123 5.82083,0.793749 17.72706,3.439579 12.17082,2.64583 15.08123,3.174996 23.28331,4.762494 28.0458,4.762494 2.64583,0 4.7625,-0.529166 2.11666,-0.264583 3.17499,-0.793749 1.05833,-0.529166 3.175,-2.116664 2.38125,-1.322915 4.23333,-2.116664 0.79375,-0.529166 2.91041,-0.529166 4.49791,0 6.08541,3.439579 0.79375,1.058332 0.79375,3.174996 0,3.968746 -3.70416,5.820827 -0.52917,0.264583 -3.96875,2.116664 -3.175,1.852081 -5.02708,2.381247 -1.5875,0.793749 -5.29166,1.587498 -3.43958,0.793749 -7.14374,0.793749 -5.55624,0 -30.69163,-5.027077 -23.01872,-4.762494 -30.95621,-6.085409 -1.32291,5.027077 -6.34999,5.027077 -2.91041,0 -4.7625,-2.116664 -1.85208,-1.852081 -1.85208,-4.497912 0,-1.322915 0,-3.704162 0.26459,-2.116664 0.26459,-3.174996 v -0.264583 q 1.58749,-26.722884 13.75831,-44.979108 12.17082,-18.25623 31.48538,-34.13121 23.81247,-19.31456 29.10413,-25.13539 11.64165,-12.96456 11.64165,-27.51663 0,-16.66873 -10.58332,-25.39997 -9.78957,-8.20207 -22.75413,-8.20207 -8.99583,0 -16.66873,4.76249 -7.67291,4.49791 -11.90624,10.84791 -1.5875,2.91041 -5.55624,2.91041 -2.11667,0 -3.43958,-1.05833 -2.91042,-1.5875 -2.91042,-5.55625 0,-2.38124 1.05834,-3.70416 6.08541,-8.99582 16.40414,-15.08123 10.31874,-6.34999 23.01873,-6.34999 z m 126.48654,96.5728 q -7.40832,0 -26.4583,4.49791 -10.05415,22.22497 -10.05415,38.364533 0,24.870803 11.64165,36.512455 9.2604,9.260405 24.8708,9.260405 15.34582,0 25.66455,-13.493733 10.84791,-14.287482 10.84791,-35.454123 0,-18.256227 -10.05416,-28.839547 -10.05415,-10.8479 -26.4583,-10.8479 z m 40.21662,-96.5728 q 3.175,0 5.29166,2.64583 1.32291,1.85208 1.32291,3.96874 0,3.175 -2.64583,5.29166 -9.2604,6.87916 -23.2833,21.69581 -13.75832,14.81665 -26.19372,31.74996 -8.20207,11.37707 -13.22915,20.10831 9.26041,-2.11666 18.52081,-2.11666 21.16664,0 35.45412,15.08123 14.28749,15.08123 14.28749,37.835367 0,25.929135 -13.49374,43.391613 -14.28748,18.785394 -36.24787,18.785394 -21.16664,0 -34.39579,-13.229151 -15.34581,-15.345814 -15.34581,-45.77286 0,-35.718703 33.60204,-82.020733 26.4583,-36.24787 52.38743,-56.0916 0.79375,-0.79375 3.175,-1.32291 z m 75.68661,209.54974 q 3.17499,-3.174996 7.40832,-3.174996 4.23333,0 7.40833,3.174996 3.17499,3.174996 3.17499,7.408324 0,4.233329 -3.17499,7.408325 -3.175,3.1749957 -7.40833,3.1749957 -4.23333,0 -7.40832,-3.1749957 -3.175,-3.174996 -3.175,-7.408325 0,-4.233328 3.175,-7.408324 z"
         id="path5" />
      <path
         d="m -300.38505,96.189338 q 13.22915,0 20.10831,14.816652 4.49791,9.78957 4.49791,22.75413 0,24.07706 -12.4354,45.77287 7.40832,10.8479 10.58332,29.10413 1.85208,11.11248 1.85208,23.81247 0,27.51663 -7.67291,44.44994 -7.93749,17.72706 -21.16664,17.72706 -9.52499,0 -15.87498,-11.11248 -3.70416,-6.34999 -6.61457,-18.7854 0,-0.26458 -0.26459,-0.79375 0,-0.26458 0,-0.52916 0,-5.29166 5.29166,-6.61458 h 1.32292 q 5.02708,0 6.34999,5.02708 2.11667,9.78957 5.29166,15.08123 2.64583,4.49791 4.49791,4.49791 4.49791,0 9.26041,-10.05415 6.34999,-13.49373 6.34999,-38.8937 0,-11.90624 -1.5875,-21.69581 -2.91041,-16.93331 -10.05415,-25.66455 l -4.49791,-2.38125 q -3.43958,-1.85208 -3.43958,-5.82082 0,-1.05834 1.05833,-3.175 1.85208,-3.43958 5.55624,-3.43958 1.5875,0 3.175,0.79375 9.78957,-16.93331 9.78957,-37.30621 0,-10.31873 -3.175,-17.46247 -3.17499,-6.87916 -8.20207,-6.87916 -1.05833,0 -2.38125,1.5875 -2.11666,2.38124 -4.23332,6.87915 -1.85209,3.96875 -6.08541,3.96875 -0.26459,0 -2.64583,-0.79375 -3.96875,-1.85208 -3.96875,-5.82083 0,-0.52916 0.79375,-2.91041 3.175,-6.87916 6.08541,-10.05415 5.55624,-6.085412 12.4354,-6.085412 z m 60.07632,97.101962 q -12.69998,30.69163 -12.69998,54.5041 0,15.6104 3.70416,24.60622 2.11666,4.7625 4.49791,6.87916 2.64583,2.11666 5.82083,2.11666 0.79374,0 1.58749,-1.05833 1.85208,-1.85208 3.96875,-6.61457 4.76249,-10.58332 4.76249,-22.75414 0,-24.34164 -11.64165,-57.6791 z m 7.14374,-83.87281 q -3.17499,0 -5.02708,2.91041 -3.70416,5.82083 -3.70416,21.43122 0,11.37707 3.96875,25.39997 6.61457,-10.8479 13.49373,-18.78539 v -3.70416 q 0,-12.69999 -3.96874,-21.16664 -1.5875,-3.96875 -3.43958,-5.29166 z m 0,-13.229152 q 5.82083,0 10.31874,4.497912 3.96874,3.96874 6.34999,9.52499 5.29166,12.4354 5.29166,26.4583 v 6.34999 q 0,0.26458 0,0.26458 l -0.26458,0.52917 q 0,0.52917 -0.52917,1.5875 l -0.79375,1.5875 -0.52916,0.52916 q -7.67291,7.67291 -19.04998,28.83955 0.52917,1.05833 1.5875,4.23333 1.32291,2.91041 1.85208,4.76249 13.49373,37.83537 13.49373,65.61659 0,15.87498 -5.82082,28.31038 -2.64583,5.82083 -6.61458,10.05415 -4.76249,5.29166 -10.8479,5.29166 -8.46666,0 -14.55207,-5.29166 -5.02707,-4.49791 -8.20207,-11.90623 -4.76249,-11.64165 -4.76249,-29.6333 0,-29.89788 16.66873,-66.67492 1.32291,-2.91041 2.91041,-5.82082 -8.46666,-25.39997 -8.46666,-41.53954 0,-18.78539 5.55625,-28.31038 5.29166,-9.260402 16.40414,-9.260402 z m 51.87425,0 q 13.22915,0 20.10831,14.816652 4.49791,9.78957 4.49791,22.75413 0,24.07706 -12.4354,45.77287 7.40832,10.8479 10.58332,29.10413 1.85208,11.11248 1.85208,23.81247 0,27.51663 -7.67291,44.44994 -7.93749,17.72706 -21.16664,17.72706 -9.52499,0 -15.87498,-11.11248 -3.70416,-6.34999 -6.61458,-18.7854 0,-0.26458 -0.26458,-0.79375 0,-0.26458 0,-0.52916 0,-5.29166 5.29166,-6.61458 h 1.32292 q 5.02707,0 6.34999,5.02708 2.11666,9.78957 5.29166,15.08123 2.64583,4.49791 4.49791,4.49791 4.49791,0 9.2604,-10.05415 6.35,-13.49373 6.35,-38.8937 0,-11.90624 -1.5875,-21.69581 -2.91041,-16.93331 -10.05416,-25.66455 l -4.49791,-2.38125 q -3.43958,-1.85208 -3.43958,-5.82082 0,-1.05834 1.05834,-3.175 1.85208,-3.43958 5.55624,-3.43958 1.5875,0 3.175,0.79375 9.78957,-16.93331 9.78957,-37.30621 0,-10.31873 -3.175,-17.46247 -3.175,-6.87916 -8.20207,-6.87916 -1.05833,0 -2.38125,1.5875 -2.11666,2.38124 -4.23333,6.87915 -1.85208,3.96875 -6.08541,3.96875 -0.26458,0 -2.64583,-0.79375 -3.96874,-1.85208 -3.96874,-5.82083 0,-0.52916 0.79375,-2.91041 3.17499,-6.87916 6.08541,-10.05415 5.55624,-6.085412 12.4354,-6.085412 z m 71.45338,14.287482 q -2.91042,4.49791 -4.49792,8.20207 -4.76249,11.64166 -8.99582,32.54371 -9.2604,44.18537 -9.2604,87.3124 0,23.2833 2.38124,34.92495 1.32292,5.82083 2.11667,6.87916 3.17499,-4.49791 4.49791,-8.20207 4.76249,-11.64165 8.99582,-32.54371 9.26041,-44.18536 9.26041,-87.31239 0,-23.28331 -2.38125,-34.92496 -1.32292,-5.82083 -2.11666,-6.87916 z m 0,-14.287482 q 6.61457,0 10.583315,6.349992 2.910414,4.49791 4.497912,12.17082 2.64583,13.22915 2.64583,37.57079 0,42.86244 -9.524987,89.95822 -4.7625,23.01872 -9.78957,34.92496 -2.91042,7.14374 -6.08541,11.37706 -4.49791,6.08541 -10.58332,6.08541 -6.61458,0 -10.58332,-6.34999 -2.91042,-4.49791 -4.49791,-12.17082 -2.64583,-13.22915 -2.64583,-37.57078 0,-42.86245 9.52498,-89.95823 4.7625,-23.01872 9.78958,-34.92495 2.91041,-7.14374 6.0854,-11.37707 4.49792,-6.085412 10.58333,-6.085412 z"
         id="path6" />
      <path
         style="font-stretch:normal;-inkscape-font-specification:'TU Dating'"
         d="m -30.430813,305.73908 q 3.174996,-3.175 7.408325,-3.175 4.233328,0 7.408324,3.175 3.174996,3.175 3.174996,7.40832 0,4.23333 -3.174996,7.40833 -3.174996,3.17499 -7.408324,3.17499 -4.233329,0 -7.408325,-3.17499 -3.174996,-3.175 -3.174996,-7.40833 0,-4.23332 3.174996,-7.40832 z M 120.1327,97.776836 q 2.91041,0 4.76249,1.852081 1.85208,1.852083 1.85208,4.762493 0,0.26458 -0.26458,0.79375 0,0.26458 0,0.52917 L 88.118155,279.80995 h 7.408325 q 2.64583,0 4.49791,1.85208 1.85208,1.85208 1.85208,4.76249 0,2.91041 -1.85208,4.76249 -1.85208,1.85209 -4.49791,1.85209 H 79.916082 64.570268 q -2.910413,0 -4.762494,-1.85209 -1.852081,-1.85208 -1.852081,-4.76249 0,-2.91041 1.852081,-4.76249 1.852081,-1.85208 4.762494,-1.85208 h 10.054154 l 35.454128,-160.86647 -4.7625,3.17499 q -1.85208,1.32292 -3.70416,1.32292 -3.704163,0 -5.556244,-3.175 -1.058332,-1.32291 -1.058332,-3.43958 0,-3.96874 2.910413,-5.55624 L 116.42854,98.835168 q 1.5875,-1.058332 2.91041,-1.058332 z m 128.33863,11.641654 q -8.20208,0 -18.25623,11.11248 -10.05415,11.37707 -19.84373,32.01455 -8.99582,20.10831 -14.55206,43.39161 -5.55624,23.01872 -5.55624,42.59787 0,23.2833 4.76249,33.60204 2.38125,5.29166 5.02708,7.14374 2.91041,2.11666 8.20207,2.11666 8.20207,0 18.25623,-11.11248 10.05415,-11.37707 19.84372,-32.01455 8.99583,-20.10831 14.55207,-43.12703 5.55624,-23.2833 5.55624,-42.86244 0,-23.28331 -4.76249,-33.60205 -2.38125,-5.29166 -5.29166,-7.14374 -2.64583,-2.11666 -7.93749,-2.11666 z m 0,-13.229152 q 8.46665,0 15.08123,4.762492 6.87916,4.49791 10.31874,12.17082 5.82082,12.96457 5.82082,39.15829 0,44.44994 -21.43122,91.28113 -9.78957,21.69581 -21.96039,35.45413 -13.75832,15.61039 -28.0458,15.61039 -8.46666,0 -15.34581,-4.76249 -6.61458,-4.49791 -10.05416,-12.17082 -5.82082,-12.96457 -5.82082,-39.15828 0,-44.44995 21.43122,-91.28114 9.78957,-21.69581 21.96039,-35.45412 13.75831,-15.610402 28.0458,-15.610402 z m 91.56159,209.549742 q 3.17499,-3.175 7.40832,-3.175 4.23333,0 7.40833,3.175 3.17499,3.175 3.17499,7.40832 0,4.23333 -3.17499,7.40833 -3.175,3.17499 -7.40833,3.17499 -4.23333,0 -7.40832,-3.17499 -3.175,-3.175 -3.175,-7.40833 0,-4.23332 3.175,-7.40832 z M 490.59644,97.776836 q 2.91042,0 4.7625,1.852081 1.85208,1.852083 1.85208,4.762493 0,0.26458 -0.26458,0.79375 0,0.26458 0,0.52917 L 458.5819,279.80995 h 7.40832 q 2.64583,0 4.49792,1.85208 1.85208,1.85208 1.85208,4.76249 0,2.91041 -1.85208,4.76249 -1.85209,1.85209 -4.49792,1.85209 h -15.61039 -15.34582 q -2.91041,0 -4.76249,-1.85209 -1.85208,-1.85208 -1.85208,-4.76249 0,-2.91041 1.85208,-4.76249 1.85208,-1.85208 4.76249,-1.85208 h 10.05416 l 35.45412,-160.86647 -4.76249,3.17499 q -1.85208,1.32292 -3.70417,1.32292 -3.70416,0 -5.55624,-3.175 -1.05833,-1.32291 -1.05833,-3.43958 0,-3.96874 2.91041,-5.55624 l 18.52081,-12.435402 q 1.5875,-1.058332 2.91042,-1.058332 z M 624.7559,129.26221 q -17.1979,24.60622 -35.18954,56.35618 -17.72706,31.74997 -27.78122,53.97494 h 46.03745 z m 10.58332,-31.485374 h 0.52916 0.26459 0.26458 l 0.26458,0.264583 h 0.52917 0.26458 l 0.52917,0.264583 0.26458,0.264583 0.52917,0.264583 0.26458,0.264583 h 0.26458 l 0.26459,0.264583 v 0.264583 l 0.52916,0.264583 0.26459,0.26458 0.26458,0.26459 0.26458,0.52916 0.26459,0.26458 v 0.26459 0.26458 l 0.26458,0.26458 v 0.52917 h 0.26458 q 0,0 0,0.26458 v 0.52917 0.26458 0.52917 0.26458 0.26458 0.26459 0.52916 l -20.37289,134.14359 h 16.93331 q 2.64583,0 4.49791,2.11666 2.11667,1.85208 2.11667,4.7625 0,2.64583 -1.85208,4.49791 -1.85208,1.85208 -4.7625,1.85208 h -19.04997 l -5.29166,34.66037 q -0.79375,5.55625 -6.35,5.55625 h -1.05833 q -5.82083,-1.05834 -5.82083,-6.61458 0,-0.26458 0,-0.52917 0.26459,-0.26458 0.26459,-0.52916 l 5.02708,-32.54371 h -54.23952 -0.26458 -0.52917 -0.26458 -0.52917 l -0.26458,-0.26458 h -0.52917 l -0.26458,-0.26459 h -0.26458 l -0.26459,-0.26458 -0.26458,-0.26458 -0.52917,-0.26459 -0.26458,-0.26458 -0.26458,-0.26458 -0.26459,-0.26459 -0.26458,-0.26458 -0.26458,-0.26458 q -0.26458,-0.26458 -0.26458,-0.52917 l -0.26459,-0.26458 q 0,-0.26458 -0.26458,-0.26458 0,0 0,-0.26459 v -0.26458 l -0.26458,-0.26458 v -0.26459 -0.26458 -0.52916 -0.52917 -0.26458 -0.52917 -0.52917 -0.26458 -0.52916 l 0.26458,-0.26459 v -0.52916 q 0,-0.26459 0.52917,-0.79375 11.64165,-28.0458 36.77703,-72.49575 25.13539,-44.44994 47.09578,-70.37908 l 0.26458,-0.26458 0.26458,-0.264583 0.52917,-0.264583 0.26458,-0.529166 h 0.26459 l 0.52916,-0.264583 0.26459,-0.264583 q 0.26458,0 0.26458,0 0,-0.264583 0.26458,-0.264583 h 0.26458 l 0.26459,-0.264583 h 0.26458 0.26458 0.52917 0.52917 z m 75.15744,207.962244 q 3.175,-3.175 7.40833,-3.175 4.23332,0 7.40832,3.175 3.175,3.175 3.175,7.40832 0,4.23333 -3.175,7.40833 -3.175,3.17499 -7.40832,3.17499 -4.23333,0 -7.40833,-3.17499 -3.17499,-3.175 -3.17499,-7.40833 0,-4.23332 3.17499,-7.40832 z"
         id="path7" />
    </g>
  </g>
</svg>
