<?xml version="1.0" encoding="UTF-8" standalone="no"?>
<!-- Created with Inkscape (http://www.inkscape.org/) -->

<svg
   width="500"
   height="1000"
   viewBox="0 0 500 1000"
   version="1.1"
   id="svg1"
   xmlns="http://www.w3.org/2000/svg"
   xmlns:svg="http://www.w3.org/2000/svg">
  <defs
     id="defs1" />
  <g
     id="layer1"
     transform="translate(-4590)">
    <path
       style="stroke-width:57.8;stroke-linecap:round;stroke-linejoin:round"
       d="m 4915.834,120 c -40,0 -75.1695,24.47188 -106.1152,58.98828 -30.9458,34.51641 -58.7935,80.86103 -82.8731,133.53516 -48.1592,105.34826 -81.0117,235.71795 -81.0117,345.81054 0,60.00002 5.3331,109.31686 22.6562,147.42774 C 4685.8133,843.8726 4720.8327,870 4764.166,870 c 40,0 75.1695,-24.47188 106.1152,-58.98828 30.9459,-34.51641 58.7935,-80.86103 82.8731,-133.53516 48.1592,-105.34826 81.0117,-235.71795 81.0117,-345.81054 0,-60.00002 -5.3331,-109.31686 -22.6562,-147.42774 C 4994.1867,146.1274 4959.1673,120 4915.834,120 Z m 0,50 c 26.6667,0 38.3127,8.87194 50.1562,34.92773 11.8436,26.0558 18.1758,70.0716 18.1758,126.73829 0,99.9074 -31.3122,226.20505 -76.4863,325.02343 -22.5871,49.4092 -48.6977,92.02423 -74.627,120.94532 C 4807.1235,806.55585 4782.4994,820 4764.166,820 c -26.6667,0 -38.3127,-8.87194 -50.1562,-34.92773 -11.8436,-26.0558 -18.1758,-70.0716 -18.1758,-126.73829 0,-99.9074 31.3122,-226.20505 76.4863,-325.02343 22.5871,-49.4092 48.6977,-92.02423 74.627,-120.94532 C 4872.8765,183.44415 4897.5006,170 4915.834,170 Z"
       id="path17" />
  </g>
</svg>
