<?xml version="1.0" encoding="UTF-8" standalone="no"?>
<!-- Created with Inkscape (http://www.inkscape.org/) -->

<svg
   width="500"
   height="1000"
   viewBox="0 0 500 1000"
   version="1.1"
   id="svg1"
   xmlns="http://www.w3.org/2000/svg"
   xmlns:svg="http://www.w3.org/2000/svg">
  <defs
     id="defs1" />
  <g
     id="layer1"
     transform="translate(-510)">
    <path
       style="stroke-width:57.8;stroke-linecap:round;stroke-linejoin:round"
       d="m 765.83398,120 c -68.3333,0 -121.53452,39.7324 -149.13476,81.13281 a 25,25 0 0 0 6.93359,34.66797 25,25 0 0 0 34.66797,-6.93359 C 677.36714,200.2676 717.50069,170 765.83398,170 c 29.44444,0 61.92151,10.1321 85.89063,30.50586 23.96912,20.37375 40.77539,50.14164 40.77539,96.16016 0,42.72057 -16.47832,73.52259 -44.59375,104.65039 -28.11543,31.12779 -68.08748,60.67558 -109.60742,94.78125 -78.44646,64.43815 -162.52079,149.46535 -171.58985,298.73632 a 25,25 0 0 0 -0.0117,0.0508 25,25 0 0 0 -0.12696,1.05273 c -0.48567,8.3719 -0.73633,16.9455 -0.73633,25.72852 a 25,25 0 0 0 25,25 25,25 0 0 0 24.30274,-19.13672 c 35.3006,6.13589 77.67128,14.99351 116.59766,23.00976 C 781.3342,860.75333 821.68953,870 847.5,870 c 40.55557,0 60.82778,-15.79679 81.17969,-25.97266 a 25,25 0 0 0 11.18164,-33.54101 25,25 0 0 0 -33.54102,-11.17969 C 880.00542,812.46397 876.94443,820 847.5,820 c -9.10203,0 -56.24603,-8.25314 -105.68164,-18.43359 -40.77529,-8.39701 -85.59474,-17.8362 -123.62695,-24.25391 13.20344,-119.55332 79.96482,-183.53472 151.84375,-242.57812 40.14673,-32.97767 81.84198,-63.2196 114.97656,-99.9043 C 918.14629,398.14538 942.5,353.11209 942.5,296.66602 942.5,237.68453 918.47165,191.61975 884.10742,162.41016 849.74319,133.20056 806.38954,120 765.83398,120 Z"
       id="path1-6-2-6-3" />
  </g>
</svg>
