<?xml version="1.0" encoding="UTF-8" standalone="no"?>
<!-- Created with Inkscape (http://www.inkscape.org/) -->

<svg
   width="500"
   height="1000"
   viewBox="0 0 500 1000"
   version="1.1"
   id="svg1"
   xmlns="http://www.w3.org/2000/svg"
   xmlns:svg="http://www.w3.org/2000/svg">
  <defs
     id="defs1" />
  <g
     id="layer1"
     transform="translate(-1020)">
    <path
       style="stroke-width:57.8;stroke-linecap:round;stroke-linejoin:round"
       d="m 1275.834,120 c -55,0 -96.3981,27.70856 -122.6778,53.98828 a 25,25 0 0 0 0,35.35547 25,25 0 0 0 35.3555,0 C 1208.8987,188.95667 1237.5006,170 1275.834,170 c 53.3333,0 83.7269,15.33437 101.9043,33.51172 18.1773,18.17735 24.7617,41.07094 24.7617,58.1543 0,75.50373 -51.4169,113.95528 -97.0977,147.87304 l -35.1718,-8.79297 a 25,25 0 0 0 -30.3184,18.19141 25,25 0 0 0 18.1914,30.31641 l 43.9317,10.98242 C 1404.327,512.91296 1402.5,612.22046 1402.5,635 c 0,128.88888 -80.8327,185 -161.666,185 -58.8889,0 -110.4454,-41.7913 -129.3067,-79.51367 a 25,25 0 0 0 -33.541,-11.17969 25,25 0 0 0 -11.1797,33.54102 C 1094.6122,818.45848 1159.7229,870 1240.834,870 c 105.8333,0 211.666,-83.88888 211.666,-235 0,-20.77502 -1.5196,-132.03307 -97.1621,-200.6543 44.3489,-34.97313 97.1621,-87.25674 97.1621,-172.67968 0,-29.58335 -10.9169,-65.02044 -39.4062,-93.50977 C 1384.6043,139.66692 1339.1673,120 1275.834,120 Z"
       id="path18" />
  </g>
</svg>
