<?xml version="1.0" encoding="UTF-8" standalone="no"?>
<!-- Created with Inkscape (http://www.inkscape.org/) -->

<svg
   width="500"
   height="1000"
   viewBox="0 0 500 1000"
   version="1.1"
   id="svg1"
   xmlns="http://www.w3.org/2000/svg"
   xmlns:svg="http://www.w3.org/2000/svg">
  <defs
     id="defs1" />
  <g
     id="layer1"
     transform="translate(-1530)">
    <path
       style="stroke-width:57.8;stroke-linecap:round;stroke-linejoin:round"
       d="m 1918.0508,125.83984 a 25,25 0 0 0 -1.4531,0.0625 25,25 0 0 0 -1.5645,0.0645 25,25 0 0 0 -1.748,0.27734 25,25 0 0 0 -1.4454,0.25 25,25 0 0 0 -1.7851,0.52734 25,25 0 0 0 -1.3203,0.41016 25,25 0 0 0 -1.6602,0.73633 25,25 0 0 0 -1.3222,0.60742 25,25 0 0 0 -1.4512,0.88867 25,25 0 0 0 -1.3125,0.82227 25,25 0 0 0 -1.4278,1.15429 25,25 0 0 0 -1.0781,0.88868 25,25 0 0 0 -1.3301,1.39843 25,25 0 0 0 -0.8574,0.90039 c -119.5237,143.42848 -267.6927,417.34383 -317.209,539.82032 a 25,25 0 0 0 -1.7382,3.44531 c -0.011,0.0279 -0.049,0.0932 -0.061,0.12109 a 25,25 0 0 0 -0.4805,1.47266 25,25 0 0 0 -0.4824,1.48242 25,25 0 0 0 -0.3535,1.78125 25,25 0 0 0 -0.2637,1.41406 25,25 0 0 0 -0.123,1.84766 25,25 0 0 0 -0.084,1.28711 25,25 0 0 0 0.01,0.13672 25,25 0 0 0 0.1191,1.83008 25,25 0 0 0 0.1113,1.42578 25,25 0 0 0 0.3457,1.74023 25,25 0 0 0 0.3125,1.47657 25,25 0 0 0 0.5547,1.63476 25,25 0 0 0 0.5117,1.44922 25,25 0 0 0 0.7832,1.58984 25,25 0 0 0 0.6778,1.33203 25,25 0 0 0 1.0019,1.5 25,25 0 0 0 0.8282,1.20508 25,25 0 0 0 1.1582,1.32227 25,25 0 0 0 1.0195,1.13281 25,25 0 0 0 1.2969,1.13672 25,25 0 0 0 1.166,1 25,25 0 0 0 1.4941,0.99805 25,25 0 0 0 1.2324,0.80078 25,25 0 0 0 1.5762,0.77734 25,25 0 0 0 1.3731,0.65625 25,25 0 0 0 0.1425,0.0684 25,25 0 0 0 1.4922,0.48633 25,25 0 0 0 1.459,0.47656 25,25 0 0 0 1.7813,0.35352 25,25 0 0 0 1.4082,0.26367 25,25 0 0 0 1.8554,0.12305 25,25 0 0 0 1.2891,0.084 h 204.0312 l -18.746,122.89648 a 25,25 0 0 0 20.9453,28.48438 25,25 0 0 0 28.4843,-20.94336 L 1857.1113,712.5 h 72.0547 a 25,25 0 0 0 25,-25 25,25 0 0 0 -25,-25 h -64.4277 l 77.4765,-507.89648 a 25,25 0 0 0 0.1231,-1.41993 25,25 0 0 0 0.1367,-1.58593 25,25 0 0 0 -0.043,-1.68555 25,25 0 0 0 -0.072,-1.57813 25,25 0 0 0 -0.2578,-1.64062 25,25 0 0 0 -0.2832,-1.5918 25,25 0 0 0 -0.4707,-1.5957 25,25 0 0 0 -0.4805,-1.51758 25,25 0 0 0 -0.6934,-1.5625 25,25 0 0 0 -0.664,-1.41797 25,25 0 0 0 -0.8731,-1.42773 25,25 0 0 0 -0.8555,-1.3418 25,25 0 0 0 -1.082,-1.33398 25,25 0 0 0 -0.9941,-1.1836 25,25 0 0 0 -1.2188,-1.1582 25,25 0 0 0 -0.9824,-0.93555 25,25 0 0 0 -0.1992,-0.14453 25,25 0 0 0 -1.3477,-0.98047 25,25 0 0 0 -1.3066,-0.91211 25,25 0 0 0 -1.4649,-0.79687 25,25 0 0 0 -1.4296,-0.74219 25,25 0 0 0 -1.5098,-0.58203 25,25 0 0 0 -1.5508,-0.5625 25,25 0 0 0 -1.6055,-0.38672 25,25 0 0 0 -1.332,-0.32031 25,25 0 0 0 -0.2402,-0.0254 25,25 0 0 0 -0.2481,-0.0547 25,25 0 0 0 -1.4414,-0.125 25,25 0 0 0 -1.5527,-0.13476 25,25 0 0 0 -0.2246,-0.0195 z M 1877.8535,244.95312 1814.1582,662.5 h -173.7637 c 47.0082,-104.33585 146.5327,-286.97962 237.459,-417.54688 z"
       id="path24" />
  </g>
</svg>
