<?xml version="1.0" encoding="UTF-8" standalone="no"?>
<!-- Created with Inkscape (http://www.inkscape.org/) -->

<svg
   width="500"
   height="1000"
   viewBox="0 0 500 1000"
   version="1.1"
   id="svg1"
   xmlns="http://www.w3.org/2000/svg"
   xmlns:svg="http://www.w3.org/2000/svg">
  <defs
     id="defs1" />
  <g
     id="layer1"
     transform="translate(-2040)">
    <path
       style="stroke-width:57.8;stroke-linecap:round;stroke-linejoin:round"
       d="m 2205.5469,120.00195 a 25,25 0 0 0 -0.068,0.006 25,25 0 0 0 -1.6074,0.12305 25,25 0 0 0 -1.6504,0.13476 25,25 0 0 0 -1.5449,0.32618 25,25 0 0 0 -1.6582,0.35937 25,25 0 0 0 -1.3574,0.47852 25,25 0 0 0 -1.7286,0.61914 25,25 0 0 0 -1.3359,0.67969 25,25 0 0 0 -1.5625,0.80273 25,25 0 0 0 -1.3359,0.91406 25,25 0 0 0 -1.3614,0.94336 25,25 0 0 0 -1.1191,1.00391 25,25 0 0 0 -1.3106,1.18945 25,25 0 0 0 -1.0117,1.17969 25,25 0 0 0 -1.1054,1.30469 25,25 0 0 0 -0.8555,1.31445 25,25 0 0 0 -0.9238,1.43555 25,25 0 0 0 -0.7032,1.46679 25,25 0 0 0 -0.6972,1.47266 25,25 0 0 0 -0.5391,1.6543 25,25 0 0 0 -0.4687,1.46289 25,25 0 0 0 -0.021,0.0644 25,25 0 0 0 -0.2832,1.5625 25,25 0 0 0 -0.2852,1.52148 l -34.9844,291.54297 a 25,25 0 0 0 0,0.0137 l -0.014,0.10938 a 25,25 0 0 0 -0.027,0.52539 25,25 0 0 0 -0.1367,2.53711 25,25 0 0 0 0.055,1.07031 25,25 0 0 0 0.1563,2.03711 25,25 0 0 0 0.2051,1.20117 25,25 0 0 0 0.3945,1.86719 25,25 0 0 0 0.3633,1.22656 25,25 0 0 0 0.6094,1.73047 25,25 0 0 0 0.5175,1.20703 25,25 0 0 0 0.3243,0.75782 25,25 0 0 0 0.457,0.78125 25,25 0 0 0 0.8125,1.38867 25,25 0 0 0 0.9375,1.36914 25,25 0 0 0 0.9863,1.27148 25,25 0 0 0 1.1035,1.22852 25,25 0 0 0 1.1504,1.13867 25,25 0 0 0 1.252,1.07227 25,25 0 0 0 1.289,0.97851 25,25 0 0 0 1.3809,0.90039 25,25 0 0 0 1.4082,0.80078 25,25 0 0 0 1.4902,0.71485 25,25 0 0 0 1.4786,0.60351 25,25 0 0 0 1.5976,0.52149 25,25 0 0 0 1.543,0.40429 25,25 0 0 0 1.623,0.30274 25,25 0 0 0 0.8731,0.16406 25,25 0 0 0 0.7422,0.0391 25,25 0 0 0 1.6347,0.0899 25,25 0 0 0 1.6192,-0.01 25,25 0 0 0 1.6543,-0.12695 25,25 0 0 0 1.5937,-0.21875 25,25 0 0 0 1.6113,-0.33984 25,25 0 0 0 1.5664,-0.42969 25,25 0 0 0 1.5489,-0.54492 25,25 0 0 0 1.4961,-0.62891 25,25 0 0 0 0.6914,-0.29102 c 22.9385,-11.46929 42.8429,-20.69336 70.4863,-20.69336 46.9444,0 89.9358,15.49222 121.2285,45.53321 31.2927,30.04098 52.1055,75.02235 52.1055,139.46679 0,65.13889 -18.8157,114.13431 -47.6836,146.76758 C 2349.2825,802.73483 2310.1845,820 2264.166,820 c -93.8889,0 -142.8946,-61.22079 -163.4531,-112.61719 a 25,25 0 0 0 -32.4981,-13.92773 25,25 0 0 0 -13.9277,32.49609 C 2080.3952,791.22137 2148.0549,870 2264.166,870 c 58.9815,0 113.2182,-23.5695 151.4336,-66.76953 38.2154,-43.20003 60.2344,-105.03537 60.2344,-179.89649 0,-75.55555 -25.8546,-135.57614 -67.4785,-175.53515 -41.624,-39.95902 -97.7999,-59.46485 -155.8555,-59.46485 -19.3951,0 -36.4936,3.44211 -51.6914,8.35547 l 26.5039,-220.86914 c 41.7527,9.43228 88.7734,17.51367 130.1875,17.51367 40.5556,0 78.1989,-12.81522 104.5137,-25.97265 a 25,25 0 0 0 11.1797,-33.54102 25,25 0 0 0 -20.8614,-13.77539 25,25 0 0 0 -12.6797,2.59375 c -20.3518,10.17597 -52.7079,20.69531 -82.1523,20.69531 -42.5,0 -99.8879,-11.15897 -145.6035,-22.58789 a 25,25 0 0 0 -0.4317,-0.0781 25,25 0 0 0 -2.6523,-0.49024 25,25 0 0 0 -0.066,-0.004 25,25 0 0 0 -1.6328,-0.0879 25,25 0 0 0 -1.5664,-0.084 z"
       id="path18" />
  </g>
</svg>
