<?xml version="1.0" encoding="UTF-8" standalone="no"?>
<!-- Created with Inkscape (http://www.inkscape.org/) -->

<svg
   width="500"
   height="1000"
   viewBox="0 0 500 1000"
   version="1.1"
   id="svg1"
   xmlns="http://www.w3.org/2000/svg"
   xmlns:svg="http://www.w3.org/2000/svg">
  <defs
     id="defs1" />
  <g
     id="layer1"
     transform="translate(-2550)">
    <path
       style="stroke-width:57.8;stroke-linecap:round;stroke-linejoin:round"
       d="m 2936.1074,120.00195 a 25,25 0 0 0 -3.2656,0.17774 A 25,25 0 0 0 2920.832,125 c -50.2666,37.7 -129.1934,117.04123 -197.7988,212.49219 -68.6054,95.45095 -127.2012,205.94464 -127.2012,309.17383 0,80.32048 22.1283,137.48374 58.3653,173.7207 C 2690.4342,856.62367 2738.5708,870 2784.166,870 c 55,0 103.4626,-28.082 136.4824,-71.00781 C 2953.6683,756.06638 2972.5,698.33335 2972.5,635 c 0,-116.11111 -82.5006,-200 -188.334,-200 -24.9496,0 -48.2277,3.59945 -70.0117,8.15234 15.0231,-26.04755 31.731,-51.78626 49.4785,-76.47851 C 2829.1941,275.45811 2907.7654,197.3 2950.832,165 a 25,25 0 0 0 5,-35 25,25 0 0 0 -19.7246,-9.99805 z M 2784.166,485 c 80.8334,0 138.334,56.11111 138.334,150 0,53.33335 -16.1689,100.6003 -41.4824,133.50781 C 2855.7041,801.41533 2822.4994,820 2784.166,820 c -36.0714,0 -69.6002,-9.95571 -94.6133,-34.96875 -25.013,-25.01304 -43.7207,-67.01912 -43.7207,-138.36523 0,-44.04448 14.6486,-94.1991 38.0371,-145.1504 C 2717.376,493.51261 2750.5645,485 2784.166,485 Z"
       id="path19" />
  </g>
</svg>
