<?xml version="1.0" encoding="UTF-8" standalone="no"?>
<!-- Created with Inkscape (http://www.inkscape.org/) -->

<svg
   width="500"
   height="1000"
   viewBox="0 0 500 1000"
   version="1.1"
   id="svg1"
   xmlns="http://www.w3.org/2000/svg"
   xmlns:svg="http://www.w3.org/2000/svg">
  <defs
     id="defs1" />
  <g
     id="layer1"
     transform="translate(-3060)">
    <path
       style="stroke-width:57.8;stroke-linecap:round;stroke-linejoin:round"
       d="m 3518.375,125.84766 a 25,25 0 0 0 -22.0742,11.73632 c -6.5624,10.49983 -13.1216,21.24525 -19.666,32.21875 -74.0537,-9.35374 -149.9314,-11.91297 -212.4336,-20.4082 a 25.0025,25.0025 0 0 0 -14.5489,2.41211 c -35.259,17.62945 -56.3563,54.86475 -69.5136,81.17969 a 25,25 0 0 0 11.1816,33.54101 25,25 0 0 0 33.541,-11.17968 c 8.8501,-17.7003 29.3252,-44.75135 42.0196,-55.26172 57.5005,7.22817 121.2514,10.20775 182.5078,16.875 -101.4111,181.05705 -195.1912,411.24667 -236.4024,617.30273 a 25,25 0 0 0 19.6114,29.41797 25,25 0 0 0 29.416,-19.61133 c 45.818,-229.09039 161.7557,-496.09875 276.6855,-679.98633 a 25,25 0 0 0 -7.9492,-34.45117 25,25 0 0 0 -12.375,-3.78515 z"
       id="path23" />
  </g>
</svg>
