<?xml version="1.0" encoding="UTF-8" standalone="no"?>
<!-- Created with Inkscape (http://www.inkscape.org/) -->

<svg
   width="500"
   height="1000"
   viewBox="0 0 500 1000"
   version="1.1"
   id="svg1"
   xmlns="http://www.w3.org/2000/svg"
   xmlns:svg="http://www.w3.org/2000/svg">
  <defs
     id="defs1" />
  <g
     id="layer1"
     transform="translate(-3570)">
    <path
       style="stroke-width:57.8;stroke-linecap:round;stroke-linejoin:round"
       d="m 3860.834,120 c -37.7778,0 -75.418,5.83397 -105.418,28.33398 -30,22.50002 -47.916,61.45705 -47.916,113.33204 0,57.83104 29.7587,107.80808 66.2734,156.26367 -5.5084,5.13806 -11.0737,10.16416 -16.4843,15.46875 -76.6148,75.11253 -143.1231,165.76885 -143.1231,259.93554 0,39.16667 9.8089,83.68544 41.418,118.80664 31.6091,35.12122 83.7209,57.85938 158.582,57.85938 43.3333,0 83.7493,-20.89389 113.9278,-51.07227 30.1783,-30.17837 51.0722,-70.5944 51.0722,-113.92773 0,-103.22913 -60.3962,-184.15365 -116.2324,-254.68359 -7.0265,-8.8756 -13.9489,-17.60419 -20.6914,-26.19727 59.1299,-49.50229 119.9511,-88.10654 157.0781,-104.60742 a 25,25 0 0 0 1.0488,-0.84766 25,25 0 0 0 4.9629,-4.01367 25,25 0 0 0 4.5352,-4.53516 25,25 0 0 0 2.293,-5.96093 25,25 0 0 0 1.6582,-6.1875 25,25 0 0 0 0.3476,-1.30078 V 273.33398 C 4014.166,189.4451 3944.7229,120 3860.834,120 Z m 0,50 c 56.1111,0 103.332,47.22287 103.332,103.33398 v 7.69727 c -42.5204,21.13454 -97.5865,57.21076 -152.2363,103.01563 C 3780.2012,340.28112 3757.5,299.9088 3757.5,261.66602 c 0,-41.45832 11.2494,-60.83203 27.916,-73.33204 C 3802.0827,175.83397 3828.6118,170 3860.834,170 Z m -56.1152,287.47852 c 6.3823,7.94687 12.6935,15.88972 19.0136,23.87304 54.9971,69.47005 105.4336,140.21097 105.4336,223.64844 0,26.66667 -14.1061,56.25064 -36.4277,78.57227 C 3870.4167,805.89389 3840.8327,820 3814.166,820 c -65.1389,0 -100.5271,-18.09456 -121.418,-41.30664 -20.8908,-23.21208 -28.582,-54.52604 -28.582,-85.35938 0,-69.1667 55.9918,-153.51163 128.127,-224.23242 4.0526,-3.97314 8.2883,-7.73667 12.4258,-11.62304 z"
       id="path19" />
  </g>
</svg>
