<?xml version="1.0" encoding="UTF-8" standalone="no"?>
<!-- Created with Inkscape (http://www.inkscape.org/) -->

<svg
   width="500"
   height="1000"
   viewBox="0 0 500 1000"
   version="1.1"
   id="svg1"
   xmlns="http://www.w3.org/2000/svg"
   xmlns:svg="http://www.w3.org/2000/svg">
  <defs
     id="defs1" />
  <g
     id="layer1"
     transform="translate(-4080)">
    <path
       style="stroke-width:57.8;stroke-linecap:round;stroke-linejoin:round"
       d="m 4400.832,125.83398 c -59.1666,0 -115.2585,40.32311 -159.0625,91.94922 -43.8039,51.62611 -75.9375,116.29152 -75.9375,178.05078 0,71.66673 60.5569,130 141.668,130 33.2173,0 73.5103,-5.88662 108.082,-12.57617 l -85.5644,319.44141 a 25,25 0 0 0 17.6797,30.61523 25,25 0 0 0 30.6172,-17.67968 l 96.0878,-358.73243 a 25,25 0 0 0 0.059,-0.21679 l 0.047,-0.16993 a 25,25 0 0 0 0,-0.0117 l 71.3437,-266.35157 a 25,25 0 0 0 0.039,-0.14453 l 0.019,-0.0703 a 25,25 0 0 0 0,-0.004 l 7.4024,-27.63281 a 25,25 0 0 0 -17.6797,-30.61523 25,25 0 0 0 -12.9414,0 25,25 0 0 0 -12.6504,8.04492 c -29.6259,-23.20436 -67.8624,-43.89649 -109.211,-43.89649 z m 0,50 c 26.2142,0 66.7825,23.55496 92.8516,45.84571 l -63.6152,237.49804 c -36.93,7.96738 -88.7969,16.65625 -122.5684,16.65625 -58.8889,0 -91.668,-34.99992 -91.668,-80 0,-43.24073 26.2018,-101.07728 64.0645,-145.70117 37.8627,-44.62389 86.7689,-74.29883 120.9355,-74.29883 z"
       id="path20" />
  </g>
</svg>
