<?xml version="1.0" encoding="UTF-8" standalone="no"?>
<!-- Created with Inkscape (http://www.inkscape.org/) -->

<svg
   width="225"
   height="1000"
   viewBox="0 0 225 1000"
   version="1.1"
   id="svg1"
   xmlns="http://www.w3.org/2000/svg"
   xmlns:svg="http://www.w3.org/2000/svg">
  <defs
     id="defs1" />
  <g
     id="layer1"
     transform="translate(-4590)">
    <path
       style="stroke-width:50;stroke-linecap:round;stroke-linejoin:round"
       d="m 4736.625,120 c -18.5995,0 -30.8855,11.6776 -39.7285,23.33398 -8.843,11.65639 -15.941,25.91462 -22.8301,42.99024 -13.7783,34.15123 -26.0515,79.59536 -36.7402,131.55469 -21.3776,103.91866 -35.9512,233.16341 -35.9512,340.45507 0,59.08335 2.4413,106.62779 9.6953,142.0918 3.627,17.73201 8.193,32.58461 16.4512,45.375 8.2581,12.79039 23.7192,24.19922 40.8535,24.19922 18.5995,0 30.8855,-11.6776 39.7285,-23.33398 8.843,-11.65639 15.941,-25.91462 22.8301,-42.99024 13.7783,-34.15123 26.0515,-79.59536 36.7402,-131.55469 21.3776,-103.91866 35.9512,-233.16341 35.9512,-340.45507 0,-59.08335 -2.4413,-106.62779 -9.6953,-142.0918 -3.627,-17.73201 -8.193,-32.58461 -16.4512,-45.375 C 4769.2204,131.40883 4753.7593,120 4736.625,120 Z m 0.062,53.62109 c 2.5042,4.83645 5.7362,13.64463 8.2578,25.97266 5.871,28.70267 8.6797,74.48892 8.6797,132.07227 0,102.70833 -14.3014,230.13287 -34.9238,330.38086 -10.3113,50.124 -22.3193,93.63561 -34.1348,122.92187 -5.8892,14.59707 -11.8932,25.64238 -16.2539,31.41016 -2.5042,-4.83645 -5.7362,-13.64463 -8.2578,-25.97266 -5.871,-28.70267 -8.6797,-74.48892 -8.6797,-132.07227 0,-102.70833 14.3014,-230.13286 34.9238,-330.38086 10.3113,-50.12398 22.3193,-93.63561 34.1348,-122.92187 5.8892,-14.59707 11.8932,-25.64238 16.2539,-31.41016 z"
       id="path5" />
  </g>
</svg>
