<?xml version="1.0" encoding="UTF-8" standalone="no"?>
<!-- Created with Inkscape (http://www.inkscape.org/) -->

<svg
   width="250"
   height="1000"
   viewBox="0 0 250 1000"
   version="1.1"
   id="svg1"
   xmlns="http://www.w3.org/2000/svg"
   xmlns:svg="http://www.w3.org/2000/svg">
  <defs
     id="defs1" />
  <g
     id="layer1"
     transform="translate(-2340)">
    <path
       style="stroke-width:40.8708;stroke-linecap:round;stroke-linejoin:round"
       d="m 2502.916,120 c -18.125,0 -31.3457,10.72818 -41.1269,22.33203 -9.7813,11.60385 -17.7491,25.97232 -25.4356,43.11914 -15.373,34.29365 -29.0371,79.84763 -40.9336,131.89453 -23.7928,104.0938 -40.0039,233.44199 -40.0039,340.98828 0,59.16668 2.6967,106.83587 10.8301,142.62305 4.0667,17.89359 9.2744,33.04186 18.4668,45.85547 9.1924,12.81361 25.2878,23.1875 42.3711,23.1875 18.125,0 31.3457,-10.72818 41.1269,-22.33203 9.7813,-11.60385 17.7491,-25.97232 25.4356,-43.11914 15.373,-34.29365 29.0371,-79.84763 40.9336,-131.89453 23.7929,-104.0938 40.0039,-233.44199 40.0039,-340.98828 0,-59.16668 -2.6967,-106.83587 -10.8301,-142.62305 -4.0667,-17.89359 -9.2744,-33.04186 -18.4668,-45.85547 C 2536.0947,130.37389 2519.9993,120 2502.916,120 Z m 0.053,49.81445 c 0.053,0.0775 0.1122,0.16228 0.1191,0.17578 -0.07,8.6e-4 -0.09,0.006 -0.1465,0.008 0.073,-0.0157 0.06,-0.1029 0.027,-0.1836 z m 0.7109,1.0586 c 0.253,0.39366 0.1985,0.37095 0.9805,1.46093 2.8388,3.95723 7.111,13.59932 10.3359,27.78907 6.4499,28.37949 9.5879,74.04294 9.5879,131.54297 0,102.4537 -15.8743,229.7748 -38.7481,329.84765 -11.4369,50.03643 -24.7499,93.43819 -37.8144,122.58203 -6.5323,14.57193 -13.1478,25.54266 -18.041,31.34766 -1.7176,2.03761 -2.8428,3.02501 -3.6602,3.68359 -0.253,-0.39366 -0.1985,-0.37095 -0.9805,-1.46093 -2.8388,-3.95723 -7.111,-13.59932 -10.3359,-27.78907 -6.4499,-28.37949 -9.5879,-74.04294 -9.5879,-131.54297 0,-102.4537 15.8743,-229.7748 38.7481,-329.84765 11.4369,-50.03643 24.7499,-93.43819 37.8144,-122.58203 6.5323,-14.57192 13.1478,-25.54266 18.041,-31.34766 1.7176,-2.03761 2.8428,-3.02501 3.6602,-3.68359 z m -76.6348,649.1289 c -0.092,0.0142 -0.091,0.0799 -0.088,0.10352 0,-0.0114 -0.015,-0.0379 -0.045,-0.0957 0.064,-7.8e-4 0.088,-0.005 0.1328,-0.008 z"
       id="path5" />
  </g>
</svg>
