<?xml version="1.0" encoding="UTF-8" standalone="no"?>
<!-- Created with Inkscape (http://www.inkscape.org/) -->

<svg
   width="225"
   height="1000"
   viewBox="0 0 225 1000"
   version="1.1"
   id="svg1"
   xmlns="http://www.w3.org/2000/svg"
   xmlns:svg="http://www.w3.org/2000/svg">
  <defs
     id="defs1" />
  <g
     id="layer1">
    <path
       style="stroke-width:50;stroke-linecap:round;stroke-linejoin:round"
       d="M 152.10742,125.87109 A 25.0025,25.0025 0 0 0 132.6543,136.8457 l -31.5,46.66602 a 25,25 0 0 0 6.73437,34.70703 25,25 0 0 0 13.28321,4.01563 L 62.480469,814.16602 H 58.875 a 25,25 0 0 0 -25,25 25,25 0 0 0 25,25 h 26.25 26.25 a 25,25 0 0 0 25,-25 25,25 0 0 0 -23.65234,-24.9629 l 65.52929,-660.90429 a 25.0025,25.0025 0 0 0 -22.83984,-27.37695 25.0025,25.0025 0 0 0 -3.30469,-0.0508 z"
       id="path11" />
  </g>
</svg>
