<?xml version="1.0" encoding="UTF-8" standalone="no"?>
<!-- Created with Inkscape (http://www.inkscape.org/) -->

<svg
   width="250"
   height="1000"
   viewBox="0 0 250 1000"
   version="1.1"
   id="svg1"
   xmlns="http://www.w3.org/2000/svg"
   xmlns:svg="http://www.w3.org/2000/svg">
  <defs
     id="defs1" />
  <g
     id="layer1">
    <path
       style="stroke-width:40.8708;stroke-linecap:round;stroke-linejoin:round"
       d="m 170.05273,125.83984 a 25.0025,25.0025 0 0 0 -19.63671,9.99219 l -35,46.66602 a 25,25 0 0 0 5,35 25,25 0 0 0 17.05273,4.09961 L 72.1875,814.16602 h -6.771484 a 25,25 0 0 0 -25,25 25,25 0 0 0 25,25 H 94.583984 123.75 a 25,25 0 0 0 25,-25 25,25 0 0 0 -25,-25 h -1.26172 l 72.77734,-660.59571 a 25.0025,25.0025 0 0 0 -21.96093,-27.56445 25.0025,25.0025 0 0 0 -3.25196,-0.16602 z"
       id="path9" />
  </g>
</svg>
