<?xml version="1.0" encoding="UTF-8" standalone="no"?>
<!-- Created with Inkscape (http://www.inkscape.org/) -->

<svg
   width="225"
   height="1000"
   viewBox="0 0 225 1000"
   version="1.1"
   id="svg1"
   xmlns="http://www.w3.org/2000/svg"
   xmlns:svg="http://www.w3.org/2000/svg">
  <defs
     id="defs1" />
  <g
     id="layer1"
     transform="translate(-510)">
    <path
       style="stroke-width:50;stroke-linecap:round;stroke-linejoin:round"
       d="m 625.125,120 c -24.23611,0 -42.3775,15.33667 -54.78125,31.875 -12.40375,16.53833 -21.00501,36.24455 -26.91406,55.94141 a 25,25 0 0 0 16.76172,31.1289 25,25 0 0 0 31.1289,-16.76172 C 595.91125,206.88045 603.06,191.58667 610.34375,181.875 617.6275,172.16333 623.11112,170 625.125,170 c 3.40431,0 13.39329,3.4165 23.84375,23.15625 10.45046,19.73975 19.40625,53.92643 19.40625,103.50977 0,92.99017 -32.94227,138.31795 -70.42578,206.74023 -35.53548,64.86635 -72.51593,147.73215 -76.26367,293.68164 a 25,25 0 0 0 -0.0352,1.42383 c -0.18211,7.54771 -0.27539,15.26409 -0.27539,23.1543 a 25,25 0 0 0 25,25 25,25 0 0 0 21.89062,-12.92579 c 10.76404,4.68375 22.36572,10.00406 33.38086,15.04493 11.21448,5.13208 21.92839,9.98617 31.47266,13.78906 9.54427,3.80289 15.54574,7.42578 28.75586,7.42578 14.04786,0 27.49706,-7.07904 34.96094,-14.1875 7.46387,-7.10846 11.2571,-13.12858 15.12109,-17.42188 a 25,25 0 0 0 -1.85742,-35.30664 25,25 0 0 0 -35.30664,1.85938 c -6.5758,7.30637 -10.57773,12.83077 -12.32813,14.5293 -1.83904,-0.51716 -6.14475,-1.47574 -10.83789,-3.34571 -7.83404,-3.12145 -18.10533,-7.74136 -29.17383,-12.80664 -16.1086,-7.37178 -33.6796,-15.66254 -50.2246,-22.22461 5.51109,-126.78402 36.87944,-193.99058 69.57226,-253.66797 36.0165,-65.74439 76.57422,-125.41859 76.57422,-230.76171 0,-55.41667 -9.4192,-97.06071 -25.21875,-126.9043 C 677.3567,139.91812 653.22069,120 625.125,120 Z m 36.94531,699.98242 c -0.0146,0.0204 -0.0352,0.0441 -0.0469,0.0625 -0.0753,-0.01 -0.034,-0.0449 -0.14844,-0.0449 0.14852,0 0.0667,-0.0164 0.19531,-0.0176 z"
       id="path1-6-2-6-3" />
  </g>
</svg>
