<?xml version="1.0" encoding="UTF-8" standalone="no"?>
<!-- Created with Inkscape (http://www.inkscape.org/) -->

<svg
   width="250"
   height="1000"
   viewBox="0 0 250 1000"
   version="1.1"
   id="svg1"
   xmlns="http://www.w3.org/2000/svg"
   xmlns:svg="http://www.w3.org/2000/svg">
  <defs
     id="defs1" />
  <g
     id="layer1"
     transform="translate(-260)">
    <path
       style="stroke-width:40.8708;stroke-linecap:round;stroke-linejoin:round"
       d="m 387.91602,120 c -24.58334,0 -44.11545,14.38775 -57.85157,30.87109 -13.73612,16.48335 -23.40735,36.35094 -30.03125,56.22266 a 25,25 0 0 0 15.81055,31.62305 25,25 0 0 0 31.62305,-15.81055 c 5.04275,-15.12828 12.87088,-30.26069 21.00976,-40.02734 C 376.61544,173.11225 383.3327,170 387.91602,170 c 6.38888,0 17.97377,4.55015 29.49414,24.13477 11.52036,19.58461 21.33984,53.27199 21.33984,102.53125 0,92.3039 -36.35145,137.29404 -78.02148,205.75195 -41.67004,68.45791 -85.3125,157.42706 -85.3125,319.24805 a 25,25 0 0 0 25,25 25,25 0 0 0 22.48046,-14.06446 c 13.08425,5.05578 27.42645,10.98798 40.97071,16.56641 12.4485,5.12713 24.3201,9.96555 34.77539,13.71484 C 409.09786,866.6321 416.03172,870 428.75,870 c 14.30557,0 27.87541,-6.38344 35.95703,-13.31055 8.08162,-6.92711 12.36054,-12.98557 16.7207,-17.3457 a 25,25 0 0 0 0,-35.35547 25,25 0 0 0 -35.35546,0 c -7.30654,7.30647 -11.7776,12.91539 -13.9043,14.73828 C 430.04127,820.54945 431.94443,820 428.75,820 c 3.99016,0 -4.37651,-1.00659 -13.23047,-4.18164 -8.85396,-3.17505 -20.30097,-7.81258 -32.61133,-12.88281 -18.20346,-7.49742 -38.08805,-15.92334 -56.51367,-22.46289 6.19189,-125.89876 40.80874,-192.52899 77.04297,-252.05664 39.99664,-65.70877 85.3125,-125.72061 85.3125,-231.75 0,-55.74075 -10.59783,-97.88409 -28.24414,-127.88282 C 442.85955,138.78447 416.52713,120 387.91602,120 Z"
       id="path1-6-2-6-3" />
  </g>
</svg>
