<?xml version="1.0" encoding="UTF-8" standalone="no"?>
<!-- Created with Inkscape (http://www.inkscape.org/) -->

<svg
   width="250"
   height="1000"
   viewBox="0 0 250 1000"
   version="1.1"
   id="svg1"
   xmlns="http://www.w3.org/2000/svg"
   xmlns:svg="http://www.w3.org/2000/svg">
  <defs
     id="defs1" />
  <g
     id="layer1"
     transform="translate(-520)">
    <path
       style="stroke-width:40.8708;stroke-linecap:round;stroke-linejoin:round"
       d="m 647.91602,120 c -19.99999,0 -36.60645,10.20996 -48.30274,21.90625 -11.69629,11.69629 -19.97795,25.42265 -26.55664,38.58008 a 25,25 0 0 0 11.17969,33.54101 25,25 0 0 0 33.54101,-11.17968 c 5.08797,-10.17598 11.3877,-19.78223 17.19141,-25.58594 5.80371,-5.80371 9.61391,-7.26172 12.94727,-7.26172 19.16667,0 28.37371,8.89783 37.43164,27.01367 9.05792,18.11585 13.40234,44.44399 13.40234,64.65235 0,72.63065 -20.93056,111.10542 -41.82812,142.80078 l -3.65821,-1.82813 a 25,25 0 0 0 -12.67773,-2.59375 25,25 0 0 0 -20.86328,13.77539 25,25 0 0 0 11.17968,33.54102 l 19.47266,9.73633 C 694.41904,505.09794 698.75,612.48654 698.75,635 c 0,67.22222 -11.51186,116.28935 -26.52734,146.32031 C 657.20717,811.35127 641.24934,820 630.41602,820 624.02713,820 614.20834,814.77843 603.75,800.83398 593.29166,786.88953 583.95595,766.08347 578.83594,745.60352 a 25,25 0 0 0 -30.31641,-18.18946 25,25 0 0 0 -18.18945,30.31641 c 6.54669,26.18665 17.62826,52.04796 33.41992,73.10351 C 579.54166,851.88953 601.8049,870 630.41602,870 c 35.83333,0 66.54281,-26.35127 86.52734,-66.32031 C 736.92789,763.71065 748.75,707.77778 748.75,635 c 0,-21.33701 3.88836,-129.02566 -51.90625,-200.44336 22.61826,-34.7311 51.90625,-87.58145 51.90625,-172.89062 0,-26.45835 -4.40623,-58.46285 -18.68164,-87.01368 C 715.79294,146.10151 687.08269,120 647.91602,120 Z"
       id="path2" />
  </g>
</svg>
