<?xml version="1.0" encoding="UTF-8" standalone="no"?>
<!-- Created with Inkscape (http://www.inkscape.org/) -->

<svg
   width="225"
   height="1000"
   viewBox="0 0 225 1000"
   version="1.1"
   id="svg1"
   xmlns="http://www.w3.org/2000/svg"
   xmlns:svg="http://www.w3.org/2000/svg">
  <defs
     id="defs1" />
  <g
     id="layer1"
     transform="translate(-1020)">
    <path
       style="stroke-width:50;stroke-linecap:round;stroke-linejoin:round"
       d="m 1121.625,120 c -19.7593,0 -35.4976,11.0294 -46.1445,22.85938 -10.647,11.82998 -18.0145,25.46016 -23.9043,38.54882 a 25,25 0 0 0 12.539,33.05664 25,25 0 0 0 33.0586,-12.53906 c 4.6101,-10.24474 10.3677,-19.94911 15.4707,-25.61914 5.1031,-5.67003 7.7397,-6.30664 8.9805,-6.30664 15.1389,0 22.7551,7.73516 31.0156,26.0918 8.2605,18.35663 12.2344,45.05336 12.2344,65.57422 0,71.35427 -18.0724,110.06108 -36.459,141.42578 a 25,25 0 0 0 -12.4531,-3.08789 25,25 0 0 0 -21.4414,12.85547 25,25 0 0 0 9.7129,33.99414 l 17.1152,9.50976 c 19.2074,23.338 31.392,61.33457 37.3027,96.8418 6.169,37.05802 6.2227,70.31742 6.2227,81.79492 0,67.49999 -10.4317,116.97995 -24.0488,147.24023 C 1127.209,812.50052 1112.986,820 1105.875,820 c -3.4043,0 -8.738,-2.75722 -16.5898,-16.54102 -7.8519,-13.78379 -14.957,-35.33474 -19.8946,-57.27929 a 25,25 0 0 0 -29.8789,-18.90235 25,25 0 0 0 -18.9023,29.87696 c 5.5625,24.72205 13.1447,49.83653 25.2304,71.05273 12.0857,21.21621 31.9395,41.79297 60.0352,41.79297 34.8889,0 62.6659,-27.50052 80.5488,-67.24023 17.8829,-39.73972 28.4512,-95.25976 28.4512,-167.75977 0,-11.4775 0.054,-48.21931 -6.9023,-90.00586 -6.0298,-36.22197 -16.7873,-77.05037 -40.2657,-110.30469 20.4027,-34.63303 47.168,-87.33042 47.168,-173.02343 0,-26.14585 -3.8992,-57.78176 -16.6387,-86.0918 C 1185.4968,147.26418 1158.9861,120 1121.625,120 Z"
       id="path3" />
  </g>
</svg>
