<?xml version="1.0" encoding="UTF-8" standalone="no"?>
<!-- Created with Inkscape (http://www.inkscape.org/) -->

<svg
   width="225"
   height="1000"
   viewBox="0 0 225 1000"
   version="1.1"
   id="svg1"
   xmlns="http://www.w3.org/2000/svg"
   xmlns:svg="http://www.w3.org/2000/svg">
  <defs
     id="defs1" />
  <g
     id="layer1"
     transform="translate(-1530)">
    <path
       style="stroke-width:50;stroke-linecap:round;stroke-linejoin:round"
       d="m 1703.5273,125.84766 a 25,25 0 0 0 -0.3632,0.0371 25,25 0 0 0 -1.586,0.15625 25,25 0 0 0 -1.3047,0.13086 25,25 0 0 0 -0.3515,0.082 25,25 0 0 0 -1.5781,0.37109 25,25 0 0 0 -1.584,0.41797 25,25 0 0 0 -1.5586,0.58789 25,25 0 0 0 -1.4746,0.60547 25,25 0 0 0 -1.4688,0.78906 25,25 0 0 0 -1.3984,0.80273 25,25 0 0 0 -1.3301,0.95508 25,25 0 0 0 -1.293,0.98438 25,25 0 0 0 -1.1992,1.125 25,25 0 0 0 -1.1562,1.15039 25,25 0 0 0 -1.0371,1.26562 25,25 0 0 0 -0.9903,1.28321 25,25 0 0 0 -0.8633,1.39258 25,25 0 0 0 -0.8281,1.42578 25,25 0 0 0 -0.6562,1.44922 25,25 0 0 0 -0.5391,1.19531 c -0.032,0.0857 -0.067,0.24817 -0.1,0.33398 a 25,25 0 0 0 -0.5274,1.76367 c -53.5307,143.47515 -120.2053,417.38376 -141.8437,536.82032 a 25,25 0 0 0 -0.062,0.27734 c -0.076,0.4187 -0.3394,1.40547 -0.4141,1.82031 a 25,25 0 0 0 -0.068,0.60547 25,25 0 0 0 -0.1778,1.57813 25,25 0 0 0 -0.1093,1.66797 25,25 0 0 0 -0.039,0.57812 25,25 0 0 0 0.066,1.01172 25,25 0 0 0 0.1113,1.68945 25,25 0 0 0 0.2325,1.55078 25,25 0 0 0 0.3281,1.65235 25,25 0 0 0 0.4453,1.54492 25,25 0 0 0 0.5312,1.5664 25,25 0 0 0 0.6348,1.45704 25,25 0 0 0 0.75,1.52343 25,25 0 0 0 0.8047,1.33594 25,25 0 0 0 0.9473,1.41602 25,25 0 0 0 0.9785,1.22851 25,25 0 0 0 1.1133,1.26953 25,25 0 0 0 1.1504,1.10938 25,25 0 0 0 1.25,1.0957 25,25 0 0 0 1.2832,0.94922 25,25 0 0 0 1.3964,0.93164 25,25 0 0 0 1.3907,0.76953 25,25 0 0 0 1.5,0.74024 25,25 0 0 0 1.5,0.58789 25,25 0 0 0 1.5605,0.53125 25,25 0 0 0 1.5606,0.38672 25,25 0 0 0 1.0351,0.25781 25,25 0 0 0 0.7754,0.10156 25,25 0 0 0 0.7871,0.10352 25,25 0 0 0 2.543,0.16797 25,25 0 0 0 0.3242,0.0215 h 78.1367 l -8.5781,124.95508 a 25,25 0 0 0 23.2285,26.65234 25,25 0 0 0 26.6543,-23.22851 L 1690.8789,712.5 h 18.7461 a 25,25 0 0 0 25,-25 25,25 0 0 0 -25,-25 h -15.3145 l 35.0059,-509.95508 a 25,25 0 0 0 0,-1.30273 25,25 0 0 0 0,-1.60157 25,25 0 0 0 -0.166,-1.67382 25,25 0 0 0 -0.2012,-1.56836 25,25 0 0 0 -0.3808,-1.62891 25,25 0 0 0 -0.4121,-1.55664 25,25 0 0 0 -0.5801,-1.5293 25,25 0 0 0 -0.6172,-1.50586 25,25 0 0 0 -0.7871,-1.46679 25,25 0 0 0 -0.791,-1.38282 25,25 0 0 0 -1.002,-1.39257 25,25 0 0 0 -0.9355,-1.22852 25,25 0 0 0 -1.17,-1.24609 25,25 0 0 0 -1.1074,-1.11328 25,25 0 0 0 -1.3008,-1.06446 25,25 0 0 0 -1.2558,-0.9707 25,25 0 0 0 -1.4043,-0.87109 25,25 0 0 0 -1.4082,-0.81836 25,25 0 0 0 -1.4824,-0.66993 25,25 0 0 0 -1.17,-0.52734 25,25 0 0 0 -0.3359,-0.10156 25,25 0 0 0 -1.5801,-0.47656 25,25 0 0 0 -1.5664,-0.42383 25,25 0 0 0 -1.6054,-0.26367 25,25 0 0 0 -1.627,-0.22071 25,25 0 0 0 -0.3496,-0.0469 25,25 0 0 0 -1.2617,-0.004 25,25 0 0 0 -1.2989,-0.041 z M 1664.7188,363.48438 1644.1934,662.5 h -51.3438 c 14.8808,-74.44007 42.2652,-190.36262 71.8692,-299.01562 z"
       id="path10" />
  </g>
</svg>
