<?xml version="1.0" encoding="UTF-8" standalone="no"?>
<!-- Created with Inkscape (http://www.inkscape.org/) -->

<svg
   width="250"
   height="1000"
   viewBox="0 0 250 1000"
   version="1.1"
   id="svg1"
   xmlns="http://www.w3.org/2000/svg"
   xmlns:svg="http://www.w3.org/2000/svg">
  <defs
     id="defs1" />
  <g
     id="layer1"
     transform="translate(-780)">
    <path
       style="stroke-width:40.8708;stroke-linecap:round;stroke-linejoin:round"
       d="m 973.80273,125.83398 a 25,25 0 0 0 -0.875,0.0547 25,25 0 0 0 -1.53125,0.0977 25,25 0 0 0 -0.85742,0.0547 25,25 0 0 0 -1,0.19726 25,25 0 0 0 -1.48047,0.29102 25,25 0 0 0 -1.82617,0.51367 25,25 0 0 0 -1.42578,0.48047 25,25 0 0 0 -1.72656,0.75781 25,25 0 0 0 -1.35547,0.66602 25,25 0 0 0 -1.64258,1.01757 25,25 0 0 0 -1.20703,0.80274 25,25 0 0 0 -1.57031,1.30859 25,25 0 0 0 -1.01172,0.88281 25,25 0 0 0 -1.48633,1.64063 25,25 0 0 0 -0.78125,0.88867 25,25 0 0 0 -1.70898,2.51758 25,25 0 0 0 -0.26953,0.44726 25,25 0 0 0 -1.37305,2.76563 c -0.0287,0.0689 -0.0572,0.13807 -0.0859,0.20703 a 25,25 0 0 0 -0.93555,2.81445 C 889.89124,288.73475 815.47249,563.91661 791.73633,682.59766 a 25,25 0 0 0 -0.0547,0.4082 25,25 0 0 0 -0.32812,2.47461 25,25 0 0 0 -0.0469,0.93555 25,25 0 0 0 -0.0566,1.08398 25,25 0 0 0 0.0527,0.81641 25,25 0 0 0 0.10743,1.61328 25,25 0 0 0 0.21289,1.63281 25,25 0 0 0 0.3125,1.57031 25,25 0 0 0 0.43359,1.62891 25,25 0 0 0 0.50586,1.48828 25,25 0 0 0 0.64648,1.56641 25,25 0 0 0 0.70118,1.41797 25,25 0 0 0 0.83007,1.44335 25,25 0 0 0 0.89649,1.3418 25,25 0 0 0 1.00781,1.31641 25,25 0 0 0 1.05078,1.19922 25,25 0 0 0 1.19141,1.1914 25,25 0 0 0 1.1875,1.04102 25,25 0 0 0 1.32812,1.02344 25,25 0 0 0 1.33399,0.89062 25,25 0 0 0 1.42969,0.82813 25,25 0 0 0 1.45117,0.71484 25,25 0 0 0 1.53125,0.63672 25,25 0 0 0 1.51367,0.51367 25,25 0 0 0 1.60937,0.43359 25,25 0 0 0 0.76368,0.20508 25,25 0 0 0 0.8164,0.10742 25,25 0 0 0 1.63672,0.2168 25,25 0 0 0 1.60352,0.10547 25,25 0 0 0 0.8457,0.0566 h 89.58789 l -9.51562,124.76562 a 25,25 0 0 0 23.02734,26.82813 25,25 0 0 0 26.82812,-23.02539 L 955.98438,712.5 h 23.5996 a 25,25 0 0 0 25.00002,-25 25,25 0 0 0 -25.00002,-25 h -19.7871 l 38.88085,-509.76562 a 25,25 0 0 0 0.01,-0.92774 25,25 0 0 0 0.0176,-1.62695 25,25 0 0 0 -0.10352,-1.63867 25,25 0 0 0 -0.19531,-1.61524 25,25 0 0 0 -0.31445,-1.59961 25,25 0 0 0 -0.40821,-1.58984 25,25 0 0 0 -0.51953,-1.54297 25,25 0 0 0 -0.60742,-1.51172 25,25 0 0 0 -0.73242,-1.49023 25,25 0 0 0 -0.7832,-1.39258 25,25 0 0 0 -0.92188,-1.38477 25,25 0 0 0 -0.96875,-1.28906 25,25 0 0 0 -1.07227,-1.23047 25,25 0 0 0 -1.15624,-1.17969 25,25 0 0 0 -1.21485,-1.06836 25,25 0 0 0 -1.28515,-1.00976 25,25 0 0 0 -1.35938,-0.91211 25,25 0 0 0 -1.41211,-0.83594 25,25 0 0 0 -1.4375,-0.71289 25,25 0 0 0 -0.84766,-0.41992 25,25 0 0 0 -0.6914,-0.23633 25,25 0 0 0 -1.51367,-0.51758 25,25 0 0 0 -1.58399,-0.44336 25,25 0 0 0 -1.61133,-0.32226 25,25 0 0 0 -1.60742,-0.23047 25,25 0 0 0 -0.70703,-0.0996 25,25 0 0 0 -0.85742,-0.006 25,25 0 0 0 -0.99024,-0.0664 z M 934.26172,339.85156 909.65234,662.5 h -62.53906 c 17.78555,-79.95179 51.55249,-207.60551 87.14844,-322.64844 z"
       id="path7" />
  </g>
</svg>
