<?xml version="1.0" encoding="UTF-8" standalone="no"?>
<!-- Created with Inkscape (http://www.inkscape.org/) -->

<svg
   width="250"
   height="1000"
   viewBox="0 0 250 1000"
   version="1.1"
   id="svg1"
   xmlns="http://www.w3.org/2000/svg"
   xmlns:svg="http://www.w3.org/2000/svg">
  <defs
     id="defs1" />
  <g
     id="layer1"
     transform="translate(-1040)">
    <path
       style="stroke-width:40.8708;stroke-linecap:round;stroke-linejoin:round"
       d="m 1245.416,120 a 25,25 0 0 0 -17.6777,7.32227 c -8.7205,8.72044 -22.5994,16.01171 -28.9883,16.01171 -14.9999,0 -42.8098,-9.77398 -64.6523,-20.69531 a 25,25 0 0 0 -0.1348,-0.0566 25,25 0 0 0 -1.416,-0.5957 25,25 0 0 0 -1.6035,-0.6543 25,25 0 0 0 -1.5821,-0.43164 25,25 0 0 0 -1.5625,-0.41016 25,25 0 0 0 -1.6621,-0.22851 25,25 0 0 0 -1.5898,-0.19922 25,25 0 0 0 -0.1328,-0.0176 25,25 0 0 0 -1.4981,0.008 25,25 0 0 0 -1.498,-0.008 25,25 0 0 0 -0.1328,0.0176 25,25 0 0 0 -1.6856,0.21289 25,25 0 0 0 -1.5527,0.21289 25,25 0 0 0 -1.6328,0.42774 25,25 0 0 0 -1.5293,0.41796 25,25 0 0 0 -1.5352,0.62696 25,25 0 0 0 -1.4844,0.62304 25,25 0 0 0 -1.5625,0.89258 25,25 0 0 0 -1.25,0.73047 25,25 0 0 0 -1.4824,1.12305 25,25 0 0 0 -1.123,0.87304 25,25 0 0 0 -1.252,1.23829 25,25 0 0 0 -1.0625,1.07226 25,25 0 0 0 -1.1191,1.44336 25,25 0 0 0 -0.8653,1.14258 25,25 0 0 0 -0.9238,1.57812 25,25 0 0 0 -0.668,1.14258 25,25 0 0 0 -0.049,0.11524 25,25 0 0 0 -0.6933,1.64843 25,25 0 0 0 -0.5586,1.3711 25,25 0 0 0 -0.4649,1.69336 25,25 0 0 0 -0.3848,1.46679 25,25 0 0 0 -0.2402,1.76172 25,25 0 0 0 -0.1855,1.47461 25,25 0 0 0 -0.02,0.15039 l -17.5,291.66797 a 25,25 0 0 0 0,0.64453 25,25 0 0 0 0.014,2.46289 25,25 0 0 0 0.1348,1.14844 25,25 0 0 0 0.2734,1.98242 25,25 0 0 0 0.3067,1.25196 25,25 0 0 0 0.4902,1.79296 25,25 0 0 0 0.4824,1.28126 25,25 0 0 0 0.6973,1.65429 25,25 0 0 0 0.6426,1.22852 25,25 0 0 0 0.8945,1.52734 25,25 0 0 0 0.7891,1.14649 25,25 0 0 0 1.0957,1.4121 25,25 0 0 0 0.914,1.03126 25,25 0 0 0 0.5391,0.60937 25,25 0 0 0 0.6738,0.5918 25,25 0 0 0 1.2168,1.0664 25,25 0 0 0 1.3106,0.99414 25,25 0 0 0 1.3515,0.90235 25,25 0 0 0 1.4297,0.81445 25,25 0 0 0 1.4453,0.71289 25,25 0 0 0 1.541,0.62891 25,25 0 0 0 1.5176,0.51562 25,25 0 0 0 1.5996,0.41992 25,25 0 0 0 1.586,0.31446 25,25 0 0 0 1.6406,0.20703 25,25 0 0 0 0.8691,0.10937 25,25 0 0 0 0.7461,-0.004 25,25 0 0 0 1.6348,-0.01 25,25 0 0 0 1.625,-0.10547 25,25 0 0 0 1.6347,-0.22461 25,25 0 0 0 1.5879,-0.3164 25,25 0 0 0 1.5743,-0.42969 25,25 0 0 0 1.5527,-0.52734 25,25 0 0 0 1.5098,-0.63672 25,25 0 0 0 1.4531,-0.7168 25,25 0 0 0 1.4219,-0.83008 25,25 0 0 0 1.3496,-0.90234 25,25 0 0 0 1.2871,-0.99805 25,25 0 0 0 1.2383,-1.08594 25,25 0 0 0 0.5586,-0.49023 c 11.2763,-11.27652 18.0525,-16.00977 23.1562,-16.00977 15.1389,0 31.5811,9.25511 47.0977,39.04688 15.5165,29.79176 27.0683,78.7309 27.0683,145.95312 0,67.56944 -10.1979,120.11294 -24.8418,153.22071 -14.6396,33.10806 -30.199,43.4456 -43.486,43.4456 -15.1389,0 -25.5234,-8.73939 -36.9922,-29.41797 -11.4688,-20.67858 -19.985,-50.85272 -25.5781,-78.81836 a 25,25 0 0 0 -29.416,-19.61133 25,25 0 0 0 -19.6114,29.41797 c 6.0736,30.36767 14.8497,64.35893 30.8809,93.26367 16.0312,28.90475 43.3557,55.16602 80.7168,55.16602 39.2129,0 70.3189,-30.49517 89.2168,-73.2207 18.8978,-42.72553 29.1152,-101.01476 29.1152,-173.44532 0,-72.77778 -11.7808,-128.84059 -32.7226,-169.04882 -20.9418,-40.20824 -54.0823,-65.95118 -91.4434,-65.95118 -4.5856,0 -8.9035,0.48687 -12.9707,1.35352 l 12.4297,-207.16211 c 16.7037,6.25047 34.6804,10.80859 53.041,10.80859 28.6111,0 49.7307,-16.04329 64.3438,-30.65625 a 25,25 0 0 0 0,-35.35546 A 25,25 0 0 0 1245.416,120 Z"
       id="path3" />
  </g>
</svg>
