<?xml version="1.0" encoding="UTF-8" standalone="no"?>
<!-- Created with Inkscape (http://www.inkscape.org/) -->

<svg
   width="225"
   height="1000"
   viewBox="0 0 225 1000"
   version="1.1"
   id="svg1"
   xmlns="http://www.w3.org/2000/svg"
   xmlns:svg="http://www.w3.org/2000/svg">
  <defs
     id="defs1" />
  <g
     id="layer1"
     transform="translate(-2040)">
    <path
       style="stroke-width:50;stroke-linecap:round;stroke-linejoin:round"
       d="m 2114.2129,120.00391 a 25,25 0 0 0 -0.752,0.0625 25,25 0 0 0 -1.6289,0.13281 25,25 0 0 0 -1.623,0.23242 25,25 0 0 0 -1.5879,0.34375 25,25 0 0 0 -1.5742,0.44141 25,25 0 0 0 -1.5391,0.55078 25,25 0 0 0 -1.5039,0.64258 25,25 0 0 0 -1.4473,0.74414 25,25 0 0 0 -1.414,0.83789 25,25 0 0 0 -1.3321,0.92383 25,25 0 0 0 -1.291,1.01367 25,25 0 0 0 -1.209,1.0957 25,25 0 0 0 -1.1406,1.16797 25,25 0 0 0 -1.0605,1.25 25,25 0 0 0 -0.9727,1.29883 25,25 0 0 0 -0.8887,1.3789 25,25 0 0 0 -0.4765,0.73829 25,25 0 0 0 -0.3262,0.6914 25,25 0 0 0 -0.6894,1.45508 25,25 0 0 0 -0.6153,1.53711 25,25 0 0 0 -0.5,1.55859 25,25 0 0 0 -0.3984,1.55469 25,25 0 0 0 -0.2969,1.63477 25,25 0 0 0 -0.1933,1.60937 25,25 0 0 0 -0.09,0.75195 l -15.7383,291.4668 a 25,25 0 0 0 0,0.0176 l -0.01,0.18164 a 25,25 0 0 0 0.014,1.24609 25,25 0 0 0 0.021,1.89649 25,25 0 0 0 0.1797,1.37109 25,25 0 0 0 0.2675,1.85938 25,25 0 0 0 0.3301,1.24609 25,25 0 0 0 0.5293,1.88086 25,25 0 0 0 0.5234,1.2793 25,25 0 0 0 0.7227,1.68945 25,25 0 0 0 0.7285,1.28516 25,25 0 0 0 0.9024,1.52148 25,25 0 0 0 0.8808,1.17187 25,25 0 0 0 1.0957,1.39454 25,25 0 0 0 1.0215,1.04492 25,25 0 0 0 1.0215,1.04492 25,25 0 0 0 0.2539,0.19922 25,25 0 0 0 1.2109,0.95508 25,25 0 0 0 1.3789,1.0332 25,25 0 0 0 1.3457,0.80078 25,25 0 0 0 1.4747,0.83008 25,25 0 0 0 1.5136,0.64844 25,25 0 0 0 1.4922,0.59765 25,25 0 0 0 1.582,0.44727 25,25 0 0 0 1.586,0.40625 25,25 0 0 0 1.625,0.23437 25,25 0 0 0 1.6035,0.19141 25,25 0 0 0 0.3105,0.0371 25,25 0 0 0 1.4415,-0.0137 25,25 0 0 0 1.4785,-0.0156 25,25 0 0 0 1.7109,-0.20312 25,25 0 0 0 1.5098,-0.20899 25,25 0 0 0 1.6465,-0.41992 25,25 0 0 0 1.4726,-0.40039 25,25 0 0 0 1.6367,-0.6543 25,25 0 0 0 1.3555,-0.5625 25,25 0 0 0 1.5801,-0.88476 25,25 0 0 0 1.2324,-0.70703 25,25 0 0 0 1.5332,-1.14649 25,25 0 0 0 1.0488,-0.79687 25,25 0 0 0 1.5742,-1.53516 25,25 0 0 0 0.709,-0.69141 c 10.133,-11.25886 16.0287,-15.05664 18.168,-15.05664 11.2793,0 25.6387,8.09702 39.707,38.10938 14.0683,30.01236 24.543,79.39062 24.543,146.89062 0,67.8125 -9.2205,120.70725 -22.5078,154.08594 -6.6437,16.68935 -14.3041,28.31047 -20.8926,34.73828 -6.5885,6.42782 -10.9887,7.8418 -15.5996,7.8418 -5.6397,0 -8.9621,-1.36991 -13.8125,-5.63086 -4.8504,-4.26095 -10.3857,-11.96792 -15.3145,-22.36719 -9.8574,-20.79854 -17.028,-51.34944 -22.1425,-79.76367 a 25,25 0 0 0 -29.0352,-20.17578 25,25 0 0 0 -20.1758,29.0332 c 5.3855,29.91908 12.5274,63.53553 26.17,92.32032 6.8212,14.39239 15.3327,27.83061 27.498,38.51757 12.1653,10.68697 28.8272,18.06641 46.8125,18.06641 19.0141,0 36.9264,-8.79306 50.5176,-22.05273 13.5912,-13.25968 23.9776,-30.80786 32.4277,-52.03516 16.9002,-42.45461 26.0547,-100.39063 26.0547,-172.57813 0,-72.5 -10.5253,-128.12369 -29.2695,-168.11132 -18.7442,-39.98764 -49.0098,-66.88868 -84.9805,-66.88868 -3.1946,0 -6.2387,0.25518 -9.1426,0.72461 L 2137.56,183.93946 c 14.1296,5.51025 29.3504,9.39453 45.3164,9.39453 28.0957,0 47.3101,-16.86272 60.582,-31.60937 a 25,25 0 0 0 -1.8574,-35.30664 25,25 0 0 0 -35.3066,1.85742 c -7.7281,8.58675 -20.0137,15.05859 -23.418,15.05859 -11.7407,0 -36.6556,-9.37984 -56.1094,-20.1875 a 25,25 0 0 0 -0.6816,-0.32226 25,25 0 0 0 -1.4746,-0.69727 25,25 0 0 0 -1.5293,-0.61328 25,25 0 0 0 -1.5352,-0.49219 25,25 0 0 0 -1.5976,-0.4082 25,25 0 0 0 -1.6055,-0.29297 25,25 0 0 0 -1.6172,-0.19336 25,25 0 0 0 -0.7519,-0.0898 25,25 0 0 0 -0.8789,0.01 25,25 0 0 0 -0.8809,-0.043 z"
       id="path6" />
  </g>
</svg>
