<?xml version="1.0" encoding="UTF-8" standalone="no"?>
<!-- Created with Inkscape (http://www.inkscape.org/) -->

<svg
   width="250"
   height="1000"
   viewBox="0 0 250 1000"
   version="1.1"
   id="svg1"
   xmlns="http://www.w3.org/2000/svg"
   xmlns:svg="http://www.w3.org/2000/svg">
  <defs
     id="defs1" />
  <g
     id="layer1"
     transform="translate(-1300)">
    <path
       style="stroke-width:40.8708;stroke-linecap:round;stroke-linejoin:round"
       d="m 1499.5254,120.05273 a 25,25 0 0 0 -22.4102,11.08008 c -25.7335,38.60023 -64.8406,117.51461 -98.9746,212.4961 -34.1339,94.98149 -62.7246,204.75584 -62.7246,303.03711 0,78.07688 10.0082,130.91875 28.1602,167.22265 18.1519,36.3039 48.5673,56.11133 78.5078,56.11133 20,0 37.732,-10.39511 50.7441,-24.37109 13.0122,-13.97599 22.8438,-31.90127 30.9219,-52.9043 16.1562,-42.00607 25,-96.89126 25,-157.72461 0,-55.27778 -8.8737,-102.15831 -25.7617,-137.62305 C 1486.1003,461.91222 1457.9173,435 1422.084,435 c -7.768,0 -15.0207,0.98502 -21.8125,2.55273 7.6116,-26.29056 16.0023,-52.1939 24.9219,-77.01367 32.9493,-91.68518 72.5922,-170.2721 93.5254,-201.67187 a 25,25 0 0 0 -6.9336,-34.66797 25,25 0 0 0 -12.2598,-4.14649 z M 1422.084,485 c 10.8333,0 23.483,8.08778 35.7617,33.87305 12.2787,25.78526 20.9043,66.40473 20.9043,116.12695 0,55.83335 -8.6555,105.94813 -21.666,139.77539 -6.5053,16.91363 -14.1743,29.61336 -20.8496,36.7832 -6.6754,7.16984 -10.8171,8.44141 -14.1504,8.44141 -10.8928,0 -21.3121,-3.52656 -33.7852,-28.47266 -12.473,-24.9461 -22.8828,-71.27161 -22.8828,-144.86132 0,-46.38105 7.5041,-97.62797 19.2871,-149.11133 C 1399.7207,490.58278 1412.4519,485 1422.084,485 Z"
       id="path6" />
  </g>
</svg>
