<?xml version="1.0" encoding="UTF-8" standalone="no"?>
<!-- Created with Inkscape (http://www.inkscape.org/) -->

<svg
   width="225"
   height="1000"
   viewBox="0 0 225 1000"
   version="1.1"
   id="svg1"
   xmlns="http://www.w3.org/2000/svg"
   xmlns:svg="http://www.w3.org/2000/svg">
  <defs
     id="defs1" />
  <g
     id="layer1"
     transform="translate(-2550)">
    <path
       style="stroke-width:50;stroke-linecap:round;stroke-linejoin:round"
       d="m 2724.0449,120.00391 a 25,25 0 0 0 -21.8574,12.13281 c -46.2559,77.09323 -145.3125,318.95635 -145.3125,514.5293 0,77.85253 8.9511,130.25897 25.1699,166.30078 16.2188,36.04181 44.3731,57.0332 73.3301,57.0332 19.7593,0 36.5581,-11.25882 48.3652,-25.34961 11.8072,-14.09079 20.5362,-31.85438 27.7598,-52.72266 14.4473,-41.73656 22.375,-96.34438 22.375,-156.92773 0,-55 -7.9269,-101.50193 -23.0215,-136.72266 -7.5473,-17.61036 -16.9091,-32.57828 -29.291,-44.04296 C 2689.1806,442.7697 2672.8195,435 2655.375,435 c -5.7997,0 -11.1733,0.72771 -16.3223,1.75391 32.7587,-124.03097 82.0164,-238.90166 106.0098,-278.89063 a 25,25 0 0 0 -8.5762,-34.30078 25,25 0 0 0 -12.4414,-3.55859 z M 2655.375,485 c 3.5556,0 6.8819,0.98032 12.2188,5.92188 5.3368,4.94157 11.725,14.03614 17.3027,27.05078 C 2696.0519,544.00193 2703.875,585 2703.875,635 c 0,56.08335 -7.8223,106.4755 -19.625,140.57227 -5.9014,17.04838 -12.9223,29.90981 -18.834,36.96484 -5.9116,7.05503 -8.8002,7.46289 -10.041,7.46289 -7.7929,0 -16.3887,-2.34259 -27.7324,-27.55078 -11.3437,-25.20819 -20.7676,-71.96914 -20.7676,-145.7832 0,-46.66618 7.0269,-98.18179 17.9199,-149.92383 C 2637.5278,490.28484 2648.5622,485 2655.375,485 Z"
       id="path7" />
  </g>
</svg>
