<?xml version="1.0" encoding="UTF-8" standalone="no"?>
<!-- Created with Inkscape (http://www.inkscape.org/) -->

<svg
   width="250"
   height="1000"
   viewBox="0 0 250 1000"
   version="1.1"
   id="svg1"
   xmlns="http://www.w3.org/2000/svg"
   xmlns:svg="http://www.w3.org/2000/svg">
  <defs
     id="defs1" />
  <g
     id="layer1"
     transform="translate(-1560)">
    <path
       style="stroke-width:40.8708;stroke-linecap:round;stroke-linejoin:round"
       d="m 1777.2773,130.85352 a 25,25 0 0 0 -6.5,0.58593 25,25 0 0 0 -18.3886,16.9375 c -2.4018,7.68577 -4.8032,15.50603 -7.2012,23.45117 -33.7271,-7.18454 -65.8002,-10.01294 -90.7129,-16.78515 a 25.0025,25.0025 0 0 0 -12.9844,-0.0352 25.0025,25.0025 0 0 0 -11.2519,6.48047 c -11.726,11.72588 -16.7702,24.78455 -22.3926,39.24219 -5.6224,14.45764 -10.1952,29.75519 -13.3496,42.37305 a 25,25 0 0 0 18.1914,30.3164 25,25 0 0 0 30.3164,-18.18945 c 2.6789,-10.71555 6.8555,-24.58459 11.4414,-36.37695 1.6066,-4.13124 3.4111,-7.86247 5.1426,-11.24219 24.0931,5.10195 48.5446,8.01856 71.5039,12.50195 -51.2884,181.47983 -99.0091,414.4891 -119.7168,621.56641 a 25,25 0 0 0 22.3867,27.36328 25,25 0 0 0 27.3633,-22.38867 c 23.1116,-231.11673 81.2722,-498.6781 138.9863,-683.36328 a 25,25 0 0 0 -16.4043,-31.32032 25,25 0 0 0 -6.4297,-1.11718 z"
       id="path10" />
  </g>
</svg>
