<?xml version="1.0" encoding="UTF-8" standalone="no"?>
<!-- Created with Inkscape (http://www.inkscape.org/) -->

<svg
   width="225"
   height="1000"
   viewBox="0 0 225 1000"
   version="1.1"
   id="svg1"
   xmlns="http://www.w3.org/2000/svg"
   xmlns:svg="http://www.w3.org/2000/svg">
  <defs
     id="defs1" />
  <g
     id="layer1"
     transform="translate(-3060)">
    <path
       style="stroke-width:50;stroke-linecap:round;stroke-linejoin:round"
       d="m 3260.3086,125.83594 a 25,25 0 0 0 -6.4805,0.77148 25,25 0 0 0 -17.8945,17.45703 c -2.0282,7.21124 -4.0465,14.53861 -6.0547,21.97657 -27.1091,-6.4469 -50.8435,-9.33332 -72.2754,-15.80664 a 25.0025,25.0025 0 0 0 -13.9531,-0.14649 25.0025,25.0025 0 0 0 -11.8574,7.35547 c -10.794,11.99324 -15.0777,24.71913 -20.1075,39.08984 -5.0297,14.37072 -9.1302,29.60922 -11.9511,42.14649 a 25,25 0 0 0 18.9023,29.87695 25,25 0 0 0 29.8789,-18.90234 c 2.4291,-10.79614 6.2036,-24.72423 10.3614,-36.60352 1.2194,-3.48416 2.5918,-6.73436 3.9492,-9.75586 18.799,4.42411 36.6819,7.22421 54.4824,11.27539 -45.2432,181.85456 -83.6998,415.33042 -102.332,622.35547 a 25,25 0 0 0 22.6582,27.14063 25,25 0 0 0 27.1386,-22.65821 c 20.8573,-231.74727 67.4392,-499.43749 119.293,-683.80664 a 25,25 0 0 0 -17.2988,-30.83398 25,25 0 0 0 -6.459,-0.93164 z"
       id="path9" />
  </g>
</svg>
