<?xml version="1.0" encoding="UTF-8" standalone="no"?>
<!-- Created with Inkscape (http://www.inkscape.org/) -->

<svg
   width="225"
   height="1000"
   viewBox="0 0 225 1000"
   version="1.1"
   id="svg1"
   xmlns="http://www.w3.org/2000/svg"
   xmlns:svg="http://www.w3.org/2000/svg">
  <defs
     id="defs1" />
  <g
     id="layer1"
     transform="translate(-3570)">
    <path
       style="stroke-width:50;stroke-linecap:round;stroke-linejoin:round"
       d="m 3700.875,120 c -21.9229,0 -47.6843,11.40289 -62.125,35.4707 -14.4407,24.06782 -20.625,57.18491 -20.625,106.19532 0,55.74021 14.3328,106.67931 31.7422,157.35546 -3.5007,7.13875 -6.999,14.32023 -10.4317,21.79883 -34.461,75.07863 -63.3105,165.22198 -63.3105,252.51367 0,36.875 3.6614,77.10453 17.5781,111.4668 6.9584,17.18114 16.6935,33.19867 31.1367,45.42578 14.4433,12.22712 33.884,19.77344 55.0352,19.77344 17.1343,0 30.8833,-9.05266 41.1289,-19.67773 10.2456,-10.62508 18.223,-23.79162 24.9824,-38.8125 C 3759.5051,781.46799 3767.875,743.75 3767.875,705 c 0,-97.78643 -26.2394,-177.14304 -51.3242,-247.55664 -4.2465,-11.92003 -8.2493,-23.27319 -12.291,-34.72852 27.7526,-52.41129 56.8379,-93.35241 71.9336,-108.26172 a 25,25 0 0 0 1.7031,-2.9082 25,25 0 0 0 3.2109,-5.48242 25,25 0 0 0 1.6465,-6.14258 25,25 0 0 0 0.8711,-3.2539 v -23.33204 c 0,-38.125 -6.8441,-73.07668 -19.2637,-100.67578 -6.2098,-13.79954 -13.7882,-25.89229 -23.9316,-35.55273 C 3730.2862,127.44503 3716.4661,120 3700.875,120 Z m 0,50 c 0.1589,0 1.4325,-0.15207 5.0703,3.3125 3.6378,3.46457 8.5282,10.32948 12.8184,19.86328 8.5804,19.06761 14.8613,48.2832 14.8613,80.1582 v 13.52735 c -15.2242,16.76371 -32.6317,40.90642 -50.5469,70.80273 -9.0477,-32.30502 -14.9531,-63.8051 -14.9531,-95.99804 0,-44.3229 6.9407,-69.5385 13.5,-80.47071 C 3688.1843,170.2631 3691.2979,170 3700.875,170 Z m -26.9922,316.87305 c 23.0893,65.75011 43.9922,134.60096 43.9922,218.12695 0,31.25 -7.3801,63.53201 -17.4863,85.99023 -5.0531,11.22912 -10.857,19.93758 -15.377,24.625 -3.3787,3.50385 -5.345,4.21752 -5.5469,4.35547 -10.0785,-0.0764 -16.1824,-2.71017 -22.3203,-7.90625 -6.2286,-5.27287 -12.2435,-14.04768 -17.0976,-26.0332 -9.7083,-23.97103 -13.9219,-59.57227 -13.9219,-92.69727 0,-67.22104 20.559,-141.29385 47.7578,-206.46093 z"
       id="path4" />
  </g>
</svg>
