<?xml version="1.0" encoding="UTF-8" standalone="no"?>
<!-- Created with Inkscape (http://www.inkscape.org/) -->

<svg
   width="250"
   height="1000"
   viewBox="0 0 250 1000"
   version="1.1"
   id="svg1"
   xmlns="http://www.w3.org/2000/svg"
   xmlns:svg="http://www.w3.org/2000/svg">
  <defs
     id="defs1" />
  <g
     id="layer1"
     transform="translate(-1820)">
    <path
       style="stroke-width:40.8708;stroke-linecap:round;stroke-linejoin:round"
       d="m 1965.416,120 c -23.0555,0 -49.8984,10.29973 -66.0098,34.4668 -16.1114,24.16707 -23.1562,57.9284 -23.1562,107.19922 0,55.884 15.824,106.76615 35.0488,157.21484 -3.7488,6.8938 -7.498,13.80432 -11.1738,21.01172 -38.3413,75.17892 -70.541,165.52471 -70.541,253.4414 0,37.08334 4.102,77.67708 19.7012,112.3418 15.5991,34.66473 48.0766,64.32422 92.7988,64.32422 17.0833,0 31.5467,-8.28843 42.7598,-18.75391 11.2129,-10.46547 20.1683,-23.70379 27.7246,-38.8164 15.1126,-30.22523 24.5156,-68.26302 24.5156,-107.42969 0,-98.28122 -29.2886,-177.92525 -57.1719,-248.36719 -4.59,-11.59572 -8.8973,-22.61354 -13.2676,-33.75586 30.6173,-51.92746 62.5951,-92.45538 79.5489,-107.52539 a 25,25 0 0 0 2.207,-3.35156 25,25 0 0 0 3.498,-5.31055 25,25 0 0 0 1.6485,-6.15039 25,25 0 0 0 1.0371,-3.87304 v -23.33204 c 0,-38.47222 -7.6949,-73.79217 -21.5977,-101.59765 C 2019.0836,143.93085 1996.8049,120 1965.416,120 Z m 0,50 c 3.6111,0 13.4171,5.23644 22.8477,24.09766 9.4306,18.86121 16.3203,47.70855 16.3203,79.23632 v 12.76172 c -17.8892,17.78239 -38.6482,43.84758 -59.9297,76.51172 -11.01,-34.15151 -18.4043,-67.24275 -18.4043,-100.9414 0,-44.06248 7.5378,-68.63189 14.7598,-79.46485 C 1948.2317,171.36822 1953.4717,170 1965.416,170 Z m -29.6699,311.00586 c 26.6527,67.72585 51.3379,138.12391 51.3379,223.99414 0,30.83333 -8.099,62.79554 -19.2363,85.07031 -5.5687,11.13739 -11.9259,19.77407 -17.1192,24.6211 -5.1932,4.84702 -8.2278,5.30859 -8.6445,5.30859 -25.2778,0 -36.5523,-11.17322 -47.2031,-34.8418 -10.6509,-23.66857 -15.2969,-58.90755 -15.2969,-91.82422 0,-69.01817 24.4154,-145.64729 56.1621,-212.32812 z"
       id="path4" />
  </g>
</svg>
