<?xml version="1.0" encoding="UTF-8" standalone="no"?>
<!-- Created with Inkscape (http://www.inkscape.org/) -->

<svg
   width="225"
   height="1000"
   viewBox="0 0 225 1000"
   version="1.1"
   id="svg1"
   xmlns="http://www.w3.org/2000/svg"
   xmlns:svg="http://www.w3.org/2000/svg">
  <defs
     id="defs1" />
  <g
     id="layer1"
     transform="translate(-4080)">
    <path
       style="stroke-width:50;stroke-linecap:round;stroke-linejoin:round"
       d="m 4224.375,125.83398 c -24.3889,0 -39.7591,16.15944 -52.6445,33.73047 -12.8854,17.57104 -23.9703,39.9653 -33.711,65.47657 -19.4813,51.02252 -33.1445,114.12629 -33.1445,170.79296 0,32.16672 5.4323,61.53257 16.9395,85.27735 11.5071,23.74478 32.4648,44.72265 60.5605,44.72265 11.4876,0 22.6763,-2.05657 33.1816,-5.1582 l -37.0117,315.57813 a 25,25 0 0 0 21.918,27.74218 25,25 0 0 0 27.7422,-21.91797 l 41.2363,-351.58789 a 25,25 0 0 0 1.752,-14.94531 l 33.6367,-286.79883 a 25,25 0 0 0 -21.918,-27.74218 25,25 0 0 0 -6.6191,0.10547 c -0.9905,-1.42324 -2.0008,-2.82958 -3.0313,-4.2168 -10.8945,-14.66571 -24.1917,-31.0586 -48.8867,-31.0586 z m -0.6387,51.43555 c 1.723,1.3687 5.3365,3.98462 9.3887,9.43945 6.1483,8.27652 12.6341,19.94943 17.9531,31.10743 l -28.8769,246.20117 c -14.8177,6.1611 -32.7813,11.8164 -39.8262,11.8164 -3.4043,0 -8.6965,-2.35547 -15.5645,-16.52734 -6.8679,-14.17187 -11.9355,-37.30597 -11.9355,-63.47266 0,-48.33332 12.5868,-107.73151 29.8555,-152.95898 8.6343,-22.61374 18.5495,-41.78197 27.3203,-53.74219 5.2884,-7.21142 9.5905,-10.33971 11.6855,-11.86328 z"
       id="path8" />
  </g>
</svg>
