<?xml version="1.0" encoding="UTF-8" standalone="no"?>
<!-- Created with Inkscape (http://www.inkscape.org/) -->

<svg
   width="250"
   height="1000"
   viewBox="0 0 250 1000"
   version="1.1"
   id="svg1"
   xmlns="http://www.w3.org/2000/svg"
   xmlns:svg="http://www.w3.org/2000/svg">
  <defs
     id="defs1" />
  <g
     id="layer1"
     transform="translate(-2080)">
    <path
       style="stroke-width:40.8708;stroke-linecap:round;stroke-linejoin:round"
       d="m 2225.416,125.83398 c -24.1667,0 -41.1867,15.18758 -55.4746,32.72266 -14.2878,17.53508 -26.6773,40.0359 -37.5391,65.63867 -21.7235,51.20555 -36.9863,114.50905 -36.9863,171.63867 0,32.50003 6.1407,62.28698 19.0313,86.22657 12.8905,23.93959 35.6916,43.77343 64.3027,43.77343 13.9412,0 27.9128,-2.73944 40.9648,-6.65234 l -42.4101,316.66602 a 25,25 0 0 0 21.4609,28.09765 25,25 0 0 0 28.0957,-21.46093 l 48.0489,-358.76368 a 25,25 0 0 0 0.043,-0.32226 l 35.6719,-266.35156 a 25,25 0 0 0 0.025,-0.1836 l 0.016,-0.11719 a 25,25 0 0 0 0,-0.004 l 3.6953,-27.58985 a 25,25 0 0 0 -21.459,-28.09765 25,25 0 0 0 -10.1152,0.7207 c -1.7319,-2.18451 -3.5142,-4.32984 -5.3437,-6.42383 -12.7219,-14.56091 -27.7387,-29.51758 -52.0274,-29.51758 z m -0.3711,50.23243 c 0.4826,0.76845 7.4657,3.85082 14.7461,12.18359 7.1179,8.14687 14.4744,19.32935 20.2461,29.86719 l -32.7754,244.71484 c -17.0144,6.62891 -38.657,13.00195 -48.5117,13.00195 -6.3889,0 -12.7532,-3.50145 -20.2793,-17.47851 -7.5261,-13.97706 -13.0547,-36.68811 -13.0547,-62.52149 0,-47.87037 13.9059,-107.06687 33.0156,-152.11132 9.5549,-22.52223 20.4969,-41.58587 30.2715,-53.58204 9.1753,-11.26042 16.1708,-13.78425 16.3399,-14.06835 4e-4,-0.001 0,-0.005 0,-0.006 z"
       id="path8" />
  </g>
</svg>
