<?xml version="1.0" encoding="UTF-8" standalone="no"?>
<!-- Created with Inkscape (http://www.inkscape.org/) -->

<svg
   width="225"
   height="1000"
   viewBox="0 0 225 1000"
   version="1.1"
   id="svg1"
   inkscape:version="1.4.3 (0d15f75, 2025-12-25)"
   sodipodi:docname="design_compressed.svg"
   inkscape:export-batch-name=""
   inkscape:export-batch-path="../compressed_regular"
   xmlns:inkscape="http://www.inkscape.org/namespaces/inkscape"
   xmlns:sodipodi="http://sodipodi.sourceforge.net/DTD/sodipodi-0.dtd"
   xmlns="http://www.w3.org/2000/svg"
   xmlns:svg="http://www.w3.org/2000/svg">
  <sodipodi:namedview
     id="namedview1"
     pagecolor="#ffffff"
     bordercolor="#666666"
     borderopacity="1.0"
     inkscape:showpageshadow="2"
     inkscape:pageopacity="0.0"
     inkscape:pagecheckerboard="0"
     inkscape:deskcolor="#d1d1d1"
     inkscape:document-units="px"
     inkscape:zoom="0.051311226"
     inkscape:cx="3683.4045"
     inkscape:cy="2631.0032"
     inkscape:window-width="1470"
     inkscape:window-height="895"
     inkscape:window-x="0"
     inkscape:window-y="33"
     inkscape:window-maximized="1"
     inkscape:current-layer="layer1">
    <inkscape:page
       x="0"
       y="0"
       width="225"
       height="1000"
       id="page1"
       margin="0"
       bleed="0"
       inkscape:label="1" />
    <inkscape:page
       x="510"
       y="0"
       width="225"
       height="1000"
       id="page2"
       margin="0"
       bleed="0"
       inkscape:label="2" />
    <inkscape:page
       x="1020"
       y="0"
       width="225"
       height="1000"
       id="page3"
       margin="0"
       bleed="0"
       inkscape:label="3" />
    <inkscape:page
       x="1530"
       y="0"
       width="225"
       height="1000"
       id="page4"
       margin="0"
       bleed="0"
       inkscape:label="4" />
    <inkscape:page
       x="2040"
       y="0"
       width="225"
       height="1000"
       id="page5"
       margin="0"
       bleed="0"
       inkscape:label="5" />
    <inkscape:page
       x="2550"
       y="0"
       width="225"
       height="1000"
       id="page6"
       margin="0"
       bleed="0"
       inkscape:label="6" />
    <inkscape:page
       x="3060"
       y="0"
       width="225"
       height="1000"
       id="page7"
       margin="0"
       bleed="0"
       inkscape:label="7" />
    <inkscape:page
       x="3570"
       y="0"
       width="225"
       height="1000"
       id="page8"
       margin="0"
       bleed="0"
       inkscape:label="8" />
    <inkscape:page
       x="4080"
       y="0"
       width="225"
       height="1000"
       id="page9"
       margin="0"
       bleed="0"
       inkscape:label="9" />
    <inkscape:page
       x="4590"
       y="0"
       width="225"
       height="1000"
       id="page10"
       margin="0"
       bleed="0"
       inkscape:label="0" />
    <inkscape:page
       x="5100"
       y="0"
       width="225"
       height="1000"
       id="page11"
       margin="0"
       bleed="0"
       inkscape:label="hyphen" />
    <inkscape:page
       x="5610"
       y="0"
       width="180"
       height="1000"
       id="page12"
       margin="0"
       bleed="0"
       inkscape:label="dot" />
    <inkscape:page
       x="6020"
       y="0"
       width="225"
       height="1000"
       id="page13"
       margin="0"
       bleed="0"
       inkscape:label="space" />
  </sodipodi:namedview>
  <defs
     id="defs1" />
  <g
     inkscape:label="Layer 1"
     inkscape:groupmode="layer"
     id="layer1">
    <path
       style="stroke-width:50;stroke-linecap:round;stroke-linejoin:round"
       d="m 5700,900 a 40,40 0 0 0 -40,40 40,40 0 0 0 40,40 40,40 0 0 0 40,-40 40,40 0 0 0 -40,-40 z"
       id="path13" />
    <path
       style="stroke-width:50;stroke-linecap:round;stroke-linejoin:round"
       d="m 5157.375,470 a 25,25 0 0 0 -25,25 25,25 0 0 0 25,25 h 115.5 a 25,25 0 0 0 25,-25 25,25 0 0 0 -25,-25 z"
       id="path12" />
    <path
       style="stroke-width:50;stroke-linecap:round;stroke-linejoin:round"
       d="M 152.10742,125.87109 A 25.0025,25.0025 0 0 0 132.6543,136.8457 l -31.5,46.66602 a 25,25 0 0 0 6.73437,34.70703 25,25 0 0 0 13.28321,4.01563 L 62.480469,814.16602 H 58.875 a 25,25 0 0 0 -25,25 25,25 0 0 0 25,25 h 26.25 26.25 a 25,25 0 0 0 25,-25 25,25 0 0 0 -23.65234,-24.9629 l 65.52929,-660.90429 a 25.0025,25.0025 0 0 0 -22.83984,-27.37695 25.0025,25.0025 0 0 0 -3.30469,-0.0508 z"
       id="path11" />
    <path
       style="stroke-width:50;stroke-linecap:round;stroke-linejoin:round"
       d="m 1703.5273,125.84766 a 25,25 0 0 0 -0.3632,0.0371 25,25 0 0 0 -1.586,0.15625 25,25 0 0 0 -1.3047,0.13086 25,25 0 0 0 -0.3515,0.082 25,25 0 0 0 -1.5781,0.37109 25,25 0 0 0 -1.584,0.41797 25,25 0 0 0 -1.5586,0.58789 25,25 0 0 0 -1.4746,0.60547 25,25 0 0 0 -1.4688,0.78906 25,25 0 0 0 -1.3984,0.80273 25,25 0 0 0 -1.3301,0.95508 25,25 0 0 0 -1.293,0.98438 25,25 0 0 0 -1.1992,1.125 25,25 0 0 0 -1.1562,1.15039 25,25 0 0 0 -1.0371,1.26562 25,25 0 0 0 -0.9903,1.28321 25,25 0 0 0 -0.8633,1.39258 25,25 0 0 0 -0.8281,1.42578 25,25 0 0 0 -0.6562,1.44922 25,25 0 0 0 -0.5391,1.19531 c -0.032,0.0857 -0.067,0.24817 -0.1,0.33398 a 25,25 0 0 0 -0.5274,1.76367 c -53.5307,143.47515 -120.2053,417.38376 -141.8437,536.82032 a 25,25 0 0 0 -0.062,0.27734 c -0.076,0.4187 -0.3394,1.40547 -0.4141,1.82031 a 25,25 0 0 0 -0.068,0.60547 25,25 0 0 0 -0.1778,1.57813 25,25 0 0 0 -0.1093,1.66797 25,25 0 0 0 -0.039,0.57812 25,25 0 0 0 0.066,1.01172 25,25 0 0 0 0.1113,1.68945 25,25 0 0 0 0.2325,1.55078 25,25 0 0 0 0.3281,1.65235 25,25 0 0 0 0.4453,1.54492 25,25 0 0 0 0.5312,1.5664 25,25 0 0 0 0.6348,1.45704 25,25 0 0 0 0.75,1.52343 25,25 0 0 0 0.8047,1.33594 25,25 0 0 0 0.9473,1.41602 25,25 0 0 0 0.9785,1.22851 25,25 0 0 0 1.1133,1.26953 25,25 0 0 0 1.1504,1.10938 25,25 0 0 0 1.25,1.0957 25,25 0 0 0 1.2832,0.94922 25,25 0 0 0 1.3964,0.93164 25,25 0 0 0 1.3907,0.76953 25,25 0 0 0 1.5,0.74024 25,25 0 0 0 1.5,0.58789 25,25 0 0 0 1.5605,0.53125 25,25 0 0 0 1.5606,0.38672 25,25 0 0 0 1.0351,0.25781 25,25 0 0 0 0.7754,0.10156 25,25 0 0 0 0.7871,0.10352 25,25 0 0 0 2.543,0.16797 25,25 0 0 0 0.3242,0.0215 h 78.1367 l -8.5781,124.95508 a 25,25 0 0 0 23.2285,26.65234 25,25 0 0 0 26.6543,-23.22851 L 1690.8789,712.5 h 18.7461 a 25,25 0 0 0 25,-25 25,25 0 0 0 -25,-25 h -15.3145 l 35.0059,-509.95508 a 25,25 0 0 0 0,-1.30273 25,25 0 0 0 0,-1.60157 25,25 0 0 0 -0.166,-1.67382 25,25 0 0 0 -0.2012,-1.56836 25,25 0 0 0 -0.3808,-1.62891 25,25 0 0 0 -0.4121,-1.55664 25,25 0 0 0 -0.5801,-1.5293 25,25 0 0 0 -0.6172,-1.50586 25,25 0 0 0 -0.7871,-1.46679 25,25 0 0 0 -0.791,-1.38282 25,25 0 0 0 -1.002,-1.39257 25,25 0 0 0 -0.9355,-1.22852 25,25 0 0 0 -1.17,-1.24609 25,25 0 0 0 -1.1074,-1.11328 25,25 0 0 0 -1.3008,-1.06446 25,25 0 0 0 -1.2558,-0.9707 25,25 0 0 0 -1.4043,-0.87109 25,25 0 0 0 -1.4082,-0.81836 25,25 0 0 0 -1.4824,-0.66993 25,25 0 0 0 -1.17,-0.52734 25,25 0 0 0 -0.3359,-0.10156 25,25 0 0 0 -1.5801,-0.47656 25,25 0 0 0 -1.5664,-0.42383 25,25 0 0 0 -1.6054,-0.26367 25,25 0 0 0 -1.627,-0.22071 25,25 0 0 0 -0.3496,-0.0469 25,25 0 0 0 -1.2617,-0.004 25,25 0 0 0 -1.2989,-0.041 z M 1664.7188,363.48438 1644.1934,662.5 h -51.3438 c 14.8808,-74.44007 42.2652,-190.36262 71.8692,-299.01562 z"
       id="path10" />
    <path
       style="stroke-width:50;stroke-linecap:round;stroke-linejoin:round"
       d="m 3260.3086,125.83594 a 25,25 0 0 0 -6.4805,0.77148 25,25 0 0 0 -17.8945,17.45703 c -2.0282,7.21124 -4.0465,14.53861 -6.0547,21.97657 -27.1091,-6.4469 -50.8435,-9.33332 -72.2754,-15.80664 a 25.0025,25.0025 0 0 0 -13.9531,-0.14649 25.0025,25.0025 0 0 0 -11.8574,7.35547 c -10.794,11.99324 -15.0777,24.71913 -20.1075,39.08984 -5.0297,14.37072 -9.1302,29.60922 -11.9511,42.14649 a 25,25 0 0 0 18.9023,29.87695 25,25 0 0 0 29.8789,-18.90234 c 2.4291,-10.79614 6.2036,-24.72423 10.3614,-36.60352 1.2194,-3.48416 2.5918,-6.73436 3.9492,-9.75586 18.799,4.42411 36.6819,7.22421 54.4824,11.27539 -45.2432,181.85456 -83.6998,415.33042 -102.332,622.35547 a 25,25 0 0 0 22.6582,27.14063 25,25 0 0 0 27.1386,-22.65821 c 20.8573,-231.74727 67.4392,-499.43749 119.293,-683.80664 a 25,25 0 0 0 -17.2988,-30.83398 25,25 0 0 0 -6.459,-0.93164 z"
       id="path9" />
    <path
       style="stroke-width:50;stroke-linecap:round;stroke-linejoin:round"
       d="m 4224.375,125.83398 c -24.3889,0 -39.7591,16.15944 -52.6445,33.73047 -12.8854,17.57104 -23.9703,39.9653 -33.711,65.47657 -19.4813,51.02252 -33.1445,114.12629 -33.1445,170.79296 0,32.16672 5.4323,61.53257 16.9395,85.27735 11.5071,23.74478 32.4648,44.72265 60.5605,44.72265 11.4876,0 22.6763,-2.05657 33.1816,-5.1582 l -37.0117,315.57813 a 25,25 0 0 0 21.918,27.74218 25,25 0 0 0 27.7422,-21.91797 l 41.2363,-351.58789 a 25,25 0 0 0 1.752,-14.94531 l 33.6367,-286.79883 a 25,25 0 0 0 -21.918,-27.74218 25,25 0 0 0 -6.6191,0.10547 c -0.9905,-1.42324 -2.0008,-2.82958 -3.0313,-4.2168 -10.8945,-14.66571 -24.1917,-31.0586 -48.8867,-31.0586 z m -0.6387,51.43555 c 1.723,1.3687 5.3365,3.98462 9.3887,9.43945 6.1483,8.27652 12.6341,19.94943 17.9531,31.10743 l -28.8769,246.20117 c -14.8177,6.1611 -32.7813,11.8164 -39.8262,11.8164 -3.4043,0 -8.6965,-2.35547 -15.5645,-16.52734 -6.8679,-14.17187 -11.9355,-37.30597 -11.9355,-63.47266 0,-48.33332 12.5868,-107.73151 29.8555,-152.95898 8.6343,-22.61374 18.5495,-41.78197 27.3203,-53.74219 5.2884,-7.21142 9.5905,-10.33971 11.6855,-11.86328 z"
       id="path8" />
    <path
       style="stroke-width:50;stroke-linecap:round;stroke-linejoin:round"
       d="m 2724.0449,120.00391 a 25,25 0 0 0 -21.8574,12.13281 c -46.2559,77.09323 -145.3125,318.95635 -145.3125,514.5293 0,77.85253 8.9511,130.25897 25.1699,166.30078 16.2188,36.04181 44.3731,57.0332 73.3301,57.0332 19.7593,0 36.5581,-11.25882 48.3652,-25.34961 11.8072,-14.09079 20.5362,-31.85438 27.7598,-52.72266 14.4473,-41.73656 22.375,-96.34438 22.375,-156.92773 0,-55 -7.9269,-101.50193 -23.0215,-136.72266 -7.5473,-17.61036 -16.9091,-32.57828 -29.291,-44.04296 C 2689.1806,442.7697 2672.8195,435 2655.375,435 c -5.7997,0 -11.1733,0.72771 -16.3223,1.75391 32.7587,-124.03097 82.0164,-238.90166 106.0098,-278.89063 a 25,25 0 0 0 -8.5762,-34.30078 25,25 0 0 0 -12.4414,-3.55859 z M 2655.375,485 c 3.5556,0 6.8819,0.98032 12.2188,5.92188 5.3368,4.94157 11.725,14.03614 17.3027,27.05078 C 2696.0519,544.00193 2703.875,585 2703.875,635 c 0,56.08335 -7.8223,106.4755 -19.625,140.57227 -5.9014,17.04838 -12.9223,29.90981 -18.834,36.96484 -5.9116,7.05503 -8.8002,7.46289 -10.041,7.46289 -7.7929,0 -16.3887,-2.34259 -27.7324,-27.55078 -11.3437,-25.20819 -20.7676,-71.96914 -20.7676,-145.7832 0,-46.66618 7.0269,-98.18179 17.9199,-149.92383 C 2637.5278,490.28484 2648.5622,485 2655.375,485 Z"
       id="path7" />
    <path
       style="stroke-width:50;stroke-linecap:round;stroke-linejoin:round"
       d="m 2114.2129,120.00391 a 25,25 0 0 0 -0.752,0.0625 25,25 0 0 0 -1.6289,0.13281 25,25 0 0 0 -1.623,0.23242 25,25 0 0 0 -1.5879,0.34375 25,25 0 0 0 -1.5742,0.44141 25,25 0 0 0 -1.5391,0.55078 25,25 0 0 0 -1.5039,0.64258 25,25 0 0 0 -1.4473,0.74414 25,25 0 0 0 -1.414,0.83789 25,25 0 0 0 -1.3321,0.92383 25,25 0 0 0 -1.291,1.01367 25,25 0 0 0 -1.209,1.0957 25,25 0 0 0 -1.1406,1.16797 25,25 0 0 0 -1.0605,1.25 25,25 0 0 0 -0.9727,1.29883 25,25 0 0 0 -0.8887,1.3789 25,25 0 0 0 -0.4765,0.73829 25,25 0 0 0 -0.3262,0.6914 25,25 0 0 0 -0.6894,1.45508 25,25 0 0 0 -0.6153,1.53711 25,25 0 0 0 -0.5,1.55859 25,25 0 0 0 -0.3984,1.55469 25,25 0 0 0 -0.2969,1.63477 25,25 0 0 0 -0.1933,1.60937 25,25 0 0 0 -0.09,0.75195 l -15.7383,291.4668 a 25,25 0 0 0 -0,0.0176 l -0.01,0.18164 a 25,25 0 0 0 0.014,1.24609 25,25 0 0 0 0.021,1.89649 25,25 0 0 0 0.1797,1.37109 25,25 0 0 0 0.2675,1.85938 25,25 0 0 0 0.3301,1.24609 25,25 0 0 0 0.5293,1.88086 25,25 0 0 0 0.5234,1.2793 25,25 0 0 0 0.7227,1.68945 25,25 0 0 0 0.7285,1.28516 25,25 0 0 0 0.9024,1.52148 25,25 0 0 0 0.8808,1.17187 25,25 0 0 0 1.0957,1.39454 25,25 0 0 0 1.0215,1.04492 25,25 0 0 0 1.0215,1.04492 25,25 0 0 0 0.2539,0.19922 25,25 0 0 0 1.2109,0.95508 25,25 0 0 0 1.3789,1.0332 25,25 0 0 0 1.3457,0.80078 25,25 0 0 0 1.4747,0.83008 25,25 0 0 0 1.5136,0.64844 25,25 0 0 0 1.4922,0.59765 25,25 0 0 0 1.582,0.44727 25,25 0 0 0 1.586,0.40625 25,25 0 0 0 1.625,0.23437 25,25 0 0 0 1.6035,0.19141 25,25 0 0 0 0.3105,0.0371 25,25 0 0 0 1.4415,-0.0137 25,25 0 0 0 1.4785,-0.0156 25,25 0 0 0 1.7109,-0.20312 25,25 0 0 0 1.5098,-0.20899 25,25 0 0 0 1.6465,-0.41992 25,25 0 0 0 1.4726,-0.40039 25,25 0 0 0 1.6367,-0.6543 25,25 0 0 0 1.3555,-0.5625 25,25 0 0 0 1.5801,-0.88476 25,25 0 0 0 1.2324,-0.70703 25,25 0 0 0 1.5332,-1.14649 25,25 0 0 0 1.0488,-0.79687 25,25 0 0 0 1.5742,-1.53516 25,25 0 0 0 0.709,-0.69141 c 10.133,-11.25886 16.0287,-15.05664 18.168,-15.05664 11.2793,0 25.6387,8.09702 39.707,38.10938 14.0683,30.01236 24.543,79.39062 24.543,146.89062 0,67.8125 -9.2205,120.70725 -22.5078,154.08594 -6.6437,16.68935 -14.3041,28.31047 -20.8926,34.73828 -6.5885,6.42782 -10.9887,7.8418 -15.5996,7.8418 -5.6397,0 -8.9621,-1.36991 -13.8125,-5.63086 -4.8504,-4.26095 -10.3857,-11.96792 -15.3145,-22.36719 -9.8574,-20.79854 -17.028,-51.34944 -22.1425,-79.76367 a 25,25 0 0 0 -29.0352,-20.17578 25,25 0 0 0 -20.1758,29.0332 c 5.3855,29.91908 12.5274,63.53553 26.17,92.32032 6.8212,14.39239 15.3327,27.83061 27.498,38.51757 12.1653,10.68697 28.8272,18.06641 46.8125,18.06641 19.0141,0 36.9264,-8.79306 50.5176,-22.05273 13.5912,-13.25968 23.9776,-30.80786 32.4277,-52.03516 16.9002,-42.45461 26.0547,-100.39063 26.0547,-172.57813 0,-72.5 -10.5253,-128.12369 -29.2695,-168.11132 -18.7442,-39.98764 -49.0098,-66.88868 -84.9805,-66.88868 -3.1946,0 -6.2387,0.25518 -9.1426,0.72461 l 11.0762,-205.11914 c 14.1296,5.51025 29.3504,9.39453 45.3164,9.39453 28.0957,0 47.3101,-16.86272 60.582,-31.60937 a 25,25 0 0 0 -1.8574,-35.30664 25,25 0 0 0 -35.3066,1.85742 c -7.7281,8.58675 -20.0137,15.05859 -23.418,15.05859 -11.7407,0 -36.6556,-9.37984 -56.1094,-20.1875 a 25,25 0 0 0 -0.6816,-0.32226 25,25 0 0 0 -1.4746,-0.69727 25,25 0 0 0 -1.5293,-0.61328 25,25 0 0 0 -1.5352,-0.49219 25,25 0 0 0 -1.5976,-0.4082 25,25 0 0 0 -1.6055,-0.29297 25,25 0 0 0 -1.6172,-0.19336 25,25 0 0 0 -0.7519,-0.0898 25,25 0 0 0 -0.8789,0.01 25,25 0 0 0 -0.8809,-0.043 z"
       id="path6" />
    <path
       style="stroke-width:50;stroke-linecap:round;stroke-linejoin:round"
       d="m 4736.625,120 c -18.5995,0 -30.8855,11.6776 -39.7285,23.33398 -8.843,11.65639 -15.941,25.91462 -22.8301,42.99024 -13.7783,34.15123 -26.0515,79.59536 -36.7402,131.55469 -21.3776,103.91866 -35.9512,233.16341 -35.9512,340.45507 0,59.08335 2.4413,106.62779 9.6953,142.0918 3.627,17.73201 8.193,32.58461 16.4512,45.375 8.2581,12.79039 23.7192,24.19922 40.8535,24.19922 18.5995,0 30.8855,-11.6776 39.7285,-23.33398 8.843,-11.65639 15.941,-25.91462 22.8301,-42.99024 13.7783,-34.15123 26.0515,-79.59536 36.7402,-131.55469 21.3776,-103.91866 35.9512,-233.16341 35.9512,-340.45507 0,-59.08335 -2.4413,-106.62779 -9.6953,-142.0918 -3.627,-17.73201 -8.193,-32.58461 -16.4512,-45.375 C 4769.2204,131.40883 4753.7593,120 4736.625,120 Z m 0.062,53.62109 c 2.5042,4.83645 5.7362,13.64463 8.2578,25.97266 5.871,28.70267 8.6797,74.48892 8.6797,132.07227 0,102.70833 -14.3014,230.13287 -34.9238,330.38086 -10.3113,50.124 -22.3193,93.63561 -34.1348,122.92187 -5.8892,14.59707 -11.8932,25.64238 -16.2539,31.41016 -2.5042,-4.83645 -5.7362,-13.64463 -8.2578,-25.97266 -5.871,-28.70267 -8.6797,-74.48892 -8.6797,-132.07227 0,-102.70833 14.3014,-230.13286 34.9238,-330.38086 10.3113,-50.12398 22.3193,-93.63561 34.1348,-122.92187 5.8892,-14.59707 11.8932,-25.64238 16.2539,-31.41016 z"
       id="path5" />
    <path
       style="stroke-width:50;stroke-linecap:round;stroke-linejoin:round"
       d="m 3700.875,120 c -21.9229,0 -47.6843,11.40289 -62.125,35.4707 -14.4407,24.06782 -20.625,57.18491 -20.625,106.19532 0,55.74021 14.3328,106.67931 31.7422,157.35546 -3.5007,7.13875 -6.999,14.32023 -10.4317,21.79883 -34.461,75.07863 -63.3105,165.22198 -63.3105,252.51367 0,36.875 3.6614,77.10453 17.5781,111.4668 6.9584,17.18114 16.6935,33.19867 31.1367,45.42578 14.4433,12.22712 33.884,19.77344 55.0352,19.77344 17.1343,0 30.8833,-9.05266 41.1289,-19.67773 10.2456,-10.62508 18.223,-23.79162 24.9824,-38.8125 C 3759.5051,781.46799 3767.875,743.75 3767.875,705 c 0,-97.78643 -26.2394,-177.14304 -51.3242,-247.55664 -4.2465,-11.92003 -8.2493,-23.27319 -12.291,-34.72852 27.7526,-52.41129 56.8379,-93.35241 71.9336,-108.26172 a 25,25 0 0 0 1.7031,-2.9082 25,25 0 0 0 3.2109,-5.48242 25,25 0 0 0 1.6465,-6.14258 25,25 0 0 0 0.8711,-3.2539 v -23.33204 c 0,-38.125 -6.8441,-73.07668 -19.2637,-100.67578 -6.2098,-13.79954 -13.7882,-25.89229 -23.9316,-35.55273 C 3730.2862,127.44503 3716.4661,120 3700.875,120 Z m 0,50 c 0.1589,0 1.4325,-0.15207 5.0703,3.3125 3.6378,3.46457 8.5282,10.32948 12.8184,19.86328 8.5804,19.06761 14.8613,48.2832 14.8613,80.1582 v 13.52735 c -15.2242,16.76371 -32.6317,40.90642 -50.5469,70.80273 -9.0477,-32.30502 -14.9531,-63.8051 -14.9531,-95.99804 0,-44.3229 6.9407,-69.5385 13.5,-80.47071 C 3688.1843,170.2631 3691.2979,170 3700.875,170 Z m -26.9922,316.87305 c 23.0893,65.75011 43.9922,134.60096 43.9922,218.12695 0,31.25 -7.3801,63.53201 -17.4863,85.99023 -5.0531,11.22912 -10.857,19.93758 -15.377,24.625 -3.3787,3.50385 -5.345,4.21752 -5.5469,4.35547 -10.0785,-0.0764 -16.1824,-2.71017 -22.3203,-7.90625 -6.2286,-5.27287 -12.2435,-14.04768 -17.0976,-26.0332 -9.7083,-23.97103 -13.9219,-59.57227 -13.9219,-92.69727 0,-67.22104 20.559,-141.29385 47.7578,-206.46093 z"
       id="path4" />
    <path
       style="stroke-width:50;stroke-linecap:round;stroke-linejoin:round"
       d="m 1121.625,120 c -19.7593,0 -35.4976,11.0294 -46.1445,22.85938 -10.647,11.82998 -18.0145,25.46016 -23.9043,38.54882 a 25,25 0 0 0 12.539,33.05664 25,25 0 0 0 33.0586,-12.53906 c 4.6101,-10.24474 10.3677,-19.94911 15.4707,-25.61914 5.1031,-5.67003 7.7397,-6.30664 8.9805,-6.30664 15.1389,0 22.7551,7.73516 31.0156,26.0918 8.2605,18.35663 12.2344,45.05336 12.2344,65.57422 0,71.35427 -18.0724,110.06108 -36.459,141.42578 a 25,25 0 0 0 -12.4531,-3.08789 25,25 0 0 0 -21.4414,12.85547 25,25 0 0 0 9.7129,33.99414 l 17.1152,9.50976 c 19.2074,23.338 31.392,61.33457 37.3027,96.8418 6.169,37.05802 6.2227,70.31742 6.2227,81.79492 0,67.49999 -10.4317,116.97995 -24.0488,147.24023 C 1127.209,812.50052 1112.986,820 1105.875,820 c -3.4043,0 -8.738,-2.75722 -16.5898,-16.54102 -7.8519,-13.78379 -14.957,-35.33474 -19.8946,-57.27929 a 25,25 0 0 0 -29.8789,-18.90235 25,25 0 0 0 -18.9023,29.87696 c 5.5625,24.72205 13.1447,49.83653 25.2304,71.05273 12.0857,21.21621 31.9395,41.79297 60.0352,41.79297 34.8889,0 62.6659,-27.50052 80.5488,-67.24023 17.8829,-39.73972 28.4512,-95.25976 28.4512,-167.75977 0,-11.4775 0.054,-48.21931 -6.9023,-90.00586 -6.0298,-36.22197 -16.7873,-77.05037 -40.2657,-110.30469 20.4027,-34.63303 47.168,-87.33042 47.168,-173.02343 0,-26.14585 -3.8992,-57.78176 -16.6387,-86.0918 C 1185.4968,147.26418 1158.9861,120 1121.625,120 Z"
       id="path3" />
    <path
       style="stroke-width:50;stroke-linecap:round;stroke-linejoin:round"
       d="m 625.125,120 c -24.23611,0 -42.3775,15.33667 -54.78125,31.875 -12.40375,16.53833 -21.00501,36.24455 -26.91406,55.94141 a 25,25 0 0 0 16.76172,31.1289 25,25 0 0 0 31.1289,-16.76172 C 595.91125,206.88045 603.06,191.58667 610.34375,181.875 617.6275,172.16333 623.11112,170 625.125,170 c 3.40431,0 13.39329,3.4165 23.84375,23.15625 10.45046,19.73975 19.40625,53.92643 19.40625,103.50977 0,92.99017 -32.94227,138.31795 -70.42578,206.74023 -35.53548,64.86635 -72.51593,147.73215 -76.26367,293.68164 a 25,25 0 0 0 -0.0352,1.42383 c -0.18211,7.54771 -0.27539,15.26409 -0.27539,23.1543 a 25,25 0 0 0 25,25 25,25 0 0 0 21.89062,-12.92579 c 10.76404,4.68375 22.36572,10.00406 33.38086,15.04493 11.21448,5.13208 21.92839,9.98617 31.47266,13.78906 9.54427,3.80289 15.54574,7.42578 28.75586,7.42578 14.04786,0 27.49706,-7.07904 34.96094,-14.1875 7.46387,-7.10846 11.2571,-13.12858 15.12109,-17.42188 a 25,25 0 0 0 -1.85742,-35.30664 25,25 0 0 0 -35.30664,1.85938 c -6.5758,7.30637 -10.57773,12.83077 -12.32813,14.5293 -1.83904,-0.51716 -6.14475,-1.47574 -10.83789,-3.34571 -7.83404,-3.12145 -18.10533,-7.74136 -29.17383,-12.80664 -16.1086,-7.37178 -33.6796,-15.66254 -50.2246,-22.22461 5.51109,-126.78402 36.87944,-193.99058 69.57226,-253.66797 36.0165,-65.74439 76.57422,-125.41859 76.57422,-230.76171 0,-55.41667 -9.4192,-97.06071 -25.21875,-126.9043 C 677.3567,139.91812 653.22069,120 625.125,120 Z m 36.94531,699.98242 c -0.0146,0.0204 -0.0352,0.0441 -0.0469,0.0625 -0.0753,-0.01 -0.034,-0.0449 -0.14844,-0.0449 0.14852,0 0.0667,-0.0164 0.19531,-0.0176 z"
       id="path1-6-2-6-3" />
  </g>
</svg>
