<?xml version="1.0" encoding="UTF-8" standalone="no"?>
<!-- Created with Inkscape (http://www.inkscape.org/) -->

<svg
   width="500"
   height="1000"
   viewBox="0 0 500 1000"
   version="1.1"
   id="svg1"
   inkscape:version="1.4.3 (0d15f75, 2025-12-25)"
   sodipodi:docname="design.svg"
   inkscape:export-batch-name=""
   inkscape:export-batch-path="../regular"
   xmlns:inkscape="http://www.inkscape.org/namespaces/inkscape"
   xmlns:sodipodi="http://sodipodi.sourceforge.net/DTD/sodipodi-0.dtd"
   xmlns="http://www.w3.org/2000/svg"
   xmlns:svg="http://www.w3.org/2000/svg">
  <sodipodi:namedview
     id="namedview1"
     pagecolor="#ffffff"
     bordercolor="#666666"
     borderopacity="1.0"
     inkscape:showpageshadow="2"
     inkscape:pageopacity="0.0"
     inkscape:pagecheckerboard="0"
     inkscape:deskcolor="#d1d1d1"
     inkscape:document-units="px"
     inkscape:zoom="0.13256214"
     inkscape:cx="1538.9009"
     inkscape:cy="1561.5318"
     inkscape:window-width="1470"
     inkscape:window-height="895"
     inkscape:window-x="0"
     inkscape:window-y="33"
     inkscape:window-maximized="1"
     inkscape:current-layer="layer1">
    <inkscape:page
       x="0"
       y="0"
       width="500"
       height="1000"
       id="page1"
       margin="0"
       bleed="0"
       inkscape:label="1" />
    <inkscape:page
       x="510"
       y="0"
       width="500"
       height="1000"
       id="page2"
       margin="0"
       bleed="0"
       inkscape:label="2" />
    <inkscape:page
       x="1020"
       y="0"
       width="500"
       height="1000"
       id="page3"
       margin="0"
       bleed="0"
       inkscape:label="3" />
    <inkscape:page
       x="1530"
       y="0"
       width="500"
       height="1000"
       id="page4"
       margin="0"
       bleed="0"
       inkscape:label="4" />
    <inkscape:page
       x="2040"
       y="0"
       width="500"
       height="1000"
       id="page5"
       margin="0"
       bleed="0"
       inkscape:label="5" />
    <inkscape:page
       x="2550"
       y="0"
       width="500"
       height="1000"
       id="page6"
       margin="0"
       bleed="0"
       inkscape:label="6" />
    <inkscape:page
       x="3060"
       y="0"
       width="500"
       height="1000"
       id="page7"
       margin="0"
       bleed="0"
       inkscape:label="7" />
    <inkscape:page
       x="3570"
       y="0"
       width="500"
       height="1000"
       id="page8"
       margin="0"
       bleed="0"
       inkscape:label="8" />
    <inkscape:page
       x="4080"
       y="0"
       width="500"
       height="1000"
       id="page9"
       margin="0"
       bleed="0"
       inkscape:label="9" />
    <inkscape:page
       x="4590"
       y="0"
       width="500"
       height="1000"
       id="page10"
       margin="0"
       bleed="0"
       inkscape:label="0" />
    <inkscape:page
       x="5100"
       y="0"
       width="500"
       height="1000"
       id="page11"
       margin="0"
       bleed="0"
       inkscape:label="hyphen" />
    <inkscape:page
       x="5610"
       y="0"
       width="350"
       height="1000"
       id="page12"
       margin="0"
       bleed="0"
       inkscape:label="dot" />
  </sodipodi:namedview>
  <defs
     id="defs1" />
  <g
     inkscape:label="Layer 1"
     inkscape:groupmode="layer"
     id="layer1">
    <path
       style="stroke-width:57.8;stroke-linecap:round;stroke-linejoin:round"
       d="m 5785,900 a 40,40 0 0 0 -40,40 40,40 0 0 0 40,40 40,40 0 0 0 40,-40 40,40 0 0 0 -40,-40 z"
       id="path28" />
    <path
       style="stroke-width:57.8;stroke-linecap:round;stroke-linejoin:round"
       d="m 5227.5,470 a 25,25 0 0 0 -25,25 25,25 0 0 0 25,25 h 256.666 a 25,25 0 0 0 25,-25 25,25 0 0 0 -25,-25 z"
       id="path27" />
    <path
       style="stroke-width:57.8;stroke-linecap:round;stroke-linejoin:round"
       d="m 3488.375,125.84766 a 25,25 0 0 0 -22.0742,11.73632 c -6.5624,10.49983 -13.1216,21.24525 -19.666,32.21875 -74.0537,-9.35374 -149.9314,-11.91297 -212.4336,-20.4082 a 25.0025,25.0025 0 0 0 -14.5489,2.41211 c -35.259,17.62945 -56.3563,54.86475 -69.5136,81.17969 a 25,25 0 0 0 11.1816,33.54101 25,25 0 0 0 33.541,-11.17968 c 8.8501,-17.7003 29.3252,-44.75135 42.0196,-55.26172 57.5005,7.22817 121.2514,10.20775 182.5078,16.875 -101.4111,181.05705 -195.1912,411.24667 -236.4024,617.30273 a 25,25 0 0 0 19.6114,29.41797 25,25 0 0 0 29.416,-19.61133 c 45.818,-229.09039 161.7557,-496.09875 276.6855,-679.98633 a 25,25 0 0 0 -7.9492,-34.45117 25,25 0 0 0 -12.375,-3.78515 z"
       id="path26" />
    <path
       style="stroke-width:57.8;stroke-linecap:round;stroke-linejoin:round"
       d="m 341.4043,125.8418 a 25.0025,25.0025 0 0 0 -3.38672,0.15234 25.0025,25.0025 0 0 0 -11.05274,4.03711 l -70,46.66602 a 25,25 0 0 0 -6.93359,34.66796 25,25 0 0 0 34.66992,6.9336 l 18.36328,-12.24219 -133.99023,608.10938 h -38.24219 a 25,25 0 0 0 -25,25 25,25 0 0 0 25,25 H 189.16602 247.5 a 25,25 0 0 0 25,-25 25,25 0 0 0 -25,-25 H 220.27344 L 365.24805,156.21094 A 25.0025,25.0025 0 0 0 341.4043,125.8418 Z"
       id="path25" />
    <path
       style="stroke-width:57.8;stroke-linecap:round;stroke-linejoin:round"
       d="m 1918.0508,125.83984 a 25,25 0 0 0 -1.4531,0.0625 25,25 0 0 0 -1.5645,0.0645 25,25 0 0 0 -1.748,0.27734 25,25 0 0 0 -1.4454,0.25 25,25 0 0 0 -1.7851,0.52734 25,25 0 0 0 -1.3203,0.41016 25,25 0 0 0 -1.6602,0.73633 25,25 0 0 0 -1.3222,0.60742 25,25 0 0 0 -1.4512,0.88867 25,25 0 0 0 -1.3125,0.82227 25,25 0 0 0 -1.4278,1.15429 25,25 0 0 0 -1.0781,0.88868 25,25 0 0 0 -1.3301,1.39843 25,25 0 0 0 -0.8574,0.90039 c -119.5237,143.42848 -267.6927,417.34383 -317.209,539.82032 a 25,25 0 0 0 -1.7382,3.44531 c -0.011,0.0279 -0.049,0.0932 -0.061,0.12109 a 25,25 0 0 0 -0.4805,1.47266 25,25 0 0 0 -0.4824,1.48242 25,25 0 0 0 -0.3535,1.78125 25,25 0 0 0 -0.2637,1.41406 25,25 0 0 0 -0.123,1.84766 25,25 0 0 0 -0.084,1.28711 25,25 0 0 0 0.01,0.13672 25,25 0 0 0 0.1191,1.83008 25,25 0 0 0 0.1113,1.42578 25,25 0 0 0 0.3457,1.74023 25,25 0 0 0 0.3125,1.47657 25,25 0 0 0 0.5547,1.63476 25,25 0 0 0 0.5117,1.44922 25,25 0 0 0 0.7832,1.58984 25,25 0 0 0 0.6778,1.33203 25,25 0 0 0 1.0019,1.5 25,25 0 0 0 0.8282,1.20508 25,25 0 0 0 1.1582,1.32227 25,25 0 0 0 1.0195,1.13281 25,25 0 0 0 1.2969,1.13672 25,25 0 0 0 1.166,1 25,25 0 0 0 1.4941,0.99805 25,25 0 0 0 1.2324,0.80078 25,25 0 0 0 1.5762,0.77734 25,25 0 0 0 1.3731,0.65625 25,25 0 0 0 0.1425,0.0684 25,25 0 0 0 1.4922,0.48633 25,25 0 0 0 1.459,0.47656 25,25 0 0 0 1.7813,0.35352 25,25 0 0 0 1.4082,0.26367 25,25 0 0 0 1.8554,0.12305 25,25 0 0 0 1.2891,0.084 h 204.0312 l -18.746,122.89648 a 25,25 0 0 0 20.9453,28.48438 25,25 0 0 0 28.4843,-20.94336 L 1857.1113,712.5 h 72.0547 a 25,25 0 0 0 25,-25 25,25 0 0 0 -25,-25 h -64.4277 l 77.4765,-507.89648 a 25,25 0 0 0 0.1231,-1.41993 25,25 0 0 0 0.1367,-1.58593 25,25 0 0 0 -0.043,-1.68555 25,25 0 0 0 -0.072,-1.57813 25,25 0 0 0 -0.2578,-1.64062 25,25 0 0 0 -0.2832,-1.5918 25,25 0 0 0 -0.4707,-1.5957 25,25 0 0 0 -0.4805,-1.51758 25,25 0 0 0 -0.6934,-1.5625 25,25 0 0 0 -0.664,-1.41797 25,25 0 0 0 -0.8731,-1.42773 25,25 0 0 0 -0.8555,-1.3418 25,25 0 0 0 -1.082,-1.33398 25,25 0 0 0 -0.9941,-1.1836 25,25 0 0 0 -1.2188,-1.1582 25,25 0 0 0 -0.9824,-0.93555 25,25 0 0 0 -0.1992,-0.14453 25,25 0 0 0 -1.3477,-0.98047 25,25 0 0 0 -1.3066,-0.91211 25,25 0 0 0 -1.4649,-0.79687 25,25 0 0 0 -1.4296,-0.74219 25,25 0 0 0 -1.5098,-0.58203 25,25 0 0 0 -1.5508,-0.5625 25,25 0 0 0 -1.6055,-0.38672 25,25 0 0 0 -1.332,-0.32031 25,25 0 0 0 -0.2402,-0.0254 25,25 0 0 0 -0.2481,-0.0547 25,25 0 0 0 -1.4414,-0.125 25,25 0 0 0 -1.5527,-0.13476 25,25 0 0 0 -0.2246,-0.0195 z M 1877.8535,244.95312 1814.1582,662.5 h -173.7637 c 47.0082,-104.33585 146.5327,-286.97962 237.459,-417.54688 z"
       id="path24" />
    <path
       style="stroke-width:57.8;stroke-linecap:round;stroke-linejoin:round"
       d="m 4370.834,125.83398 c -59.1667,0 -115.2585,40.32311 -159.0625,91.94922 -43.804,51.62611 -75.9375,116.29152 -75.9375,178.05078 0,71.66673 60.5549,130 141.666,130 33.2173,0 73.5103,-5.88662 108.082,-12.57617 l -85.5644,319.44141 a 25,25 0 0 0 17.6797,30.61523 25,25 0 0 0 30.6172,-17.67968 l 96.0878,-358.73243 a 25,25 0 0 0 0.059,-0.21679 l 0.047,-0.16993 a 25,25 0 0 0 0,-0.0117 l 71.3437,-266.35157 a 25,25 0 0 0 0.039,-0.14453 l 0.019,-0.0703 a 25,25 0 0 0 0,-0.004 l 7.4024,-27.63281 a 25,25 0 0 0 -17.6797,-30.61523 25,25 0 0 0 -12.9414,0 25,25 0 0 0 -12.6504,8.04297 c -29.6253,-23.2043 -67.8606,-43.89454 -109.209,-43.89454 z m 0,50 c 26.2136,0 66.7804,23.55341 92.8496,45.84375 l -63.6152,237.5 c -36.93,7.96738 -88.7969,16.65625 -122.5684,16.65625 -58.8889,0 -91.666,-34.99992 -91.666,-80 0,-43.24073 26.1998,-101.07728 64.0625,-145.70117 37.8627,-44.62389 86.7708,-74.29883 120.9375,-74.29883 z"
       id="path23" />
    <path
       style="stroke-width:57.8;stroke-linecap:round;stroke-linejoin:round"
       d="m 2946.1094,120.00195 a 25,25 0 0 0 -3.2656,0.17774 A 25,25 0 0 0 2930.834,125 c -50.2667,37.7 -129.1954,117.04123 -197.8008,212.49219 -68.6054,95.45095 -127.1992,205.94464 -127.1992,309.17383 0,80.32048 22.1263,137.48374 58.3633,173.7207 C 2700.4342,856.62367 2748.5708,870 2794.166,870 c 55,0 103.4626,-28.082 136.4824,-71.00781 C 2963.6683,756.06638 2982.5,698.33335 2982.5,635 c 0,-116.11111 -82.5006,-200 -188.334,-200 -24.9496,0 -48.2277,3.59945 -70.0117,8.15234 15.0231,-26.04755 31.731,-51.78626 49.4785,-76.47851 C 2839.1941,275.45811 2917.7673,197.3 2960.834,165 a 25,25 0 0 0 5,-35 25,25 0 0 0 -19.7246,-9.99805 z M 2794.166,485 c 80.8334,0 138.334,56.11111 138.334,150 0,53.33335 -16.1689,100.6003 -41.4824,133.50781 C 2865.7041,801.41533 2832.4994,820 2794.166,820 c -36.0714,0 -69.6002,-9.95571 -94.6133,-34.96875 -25.013,-25.01304 -43.7187,-67.01912 -43.7187,-138.36523 0,-44.0446 14.6484,-94.19896 38.0371,-145.1504 C 2727.3776,493.51268 2760.5648,485 2794.166,485 Z"
       id="path22" />
    <path
       style="stroke-width:57.8;stroke-linecap:round;stroke-linejoin:round"
       d="m 2205.5469,120.00195 a 25,25 0 0 0 -0.068,0.006 25,25 0 0 0 -1.6074,0.12305 25,25 0 0 0 -1.6504,0.13476 25,25 0 0 0 -1.5449,0.32618 25,25 0 0 0 -1.6582,0.35937 25,25 0 0 0 -1.3574,0.47852 25,25 0 0 0 -1.7286,0.61914 25,25 0 0 0 -1.3359,0.67969 25,25 0 0 0 -1.5625,0.80273 25,25 0 0 0 -1.3359,0.91406 25,25 0 0 0 -1.3614,0.94336 25,25 0 0 0 -1.1191,1.00391 25,25 0 0 0 -1.3106,1.18945 25,25 0 0 0 -1.0117,1.17969 25,25 0 0 0 -1.1054,1.30469 25,25 0 0 0 -0.8555,1.31445 25,25 0 0 0 -0.9238,1.43555 25,25 0 0 0 -0.7032,1.46679 25,25 0 0 0 -0.6972,1.47266 25,25 0 0 0 -0.5391,1.6543 25,25 0 0 0 -0.4687,1.46289 25,25 0 0 0 -0.021,0.0644 25,25 0 0 0 -0.2832,1.5625 25,25 0 0 0 -0.2852,1.52148 l -34.9844,291.54297 a 25,25 0 0 0 -0,0.0137 l -0.014,0.10938 a 25,25 0 0 0 -0.027,0.52539 25,25 0 0 0 -0.1367,2.53711 25,25 0 0 0 0.055,1.07031 25,25 0 0 0 0.1563,2.03711 25,25 0 0 0 0.2051,1.20117 25,25 0 0 0 0.3945,1.86719 25,25 0 0 0 0.3633,1.22656 25,25 0 0 0 0.6094,1.73047 25,25 0 0 0 0.5175,1.20703 25,25 0 0 0 0.3243,0.75782 25,25 0 0 0 0.457,0.78125 25,25 0 0 0 0.8125,1.38867 25,25 0 0 0 0.9375,1.36914 25,25 0 0 0 0.9863,1.27148 25,25 0 0 0 1.1035,1.22852 25,25 0 0 0 1.1504,1.13867 25,25 0 0 0 1.252,1.07227 25,25 0 0 0 1.289,0.97851 25,25 0 0 0 1.3809,0.90039 25,25 0 0 0 1.4082,0.80078 25,25 0 0 0 1.4902,0.71485 25,25 0 0 0 1.4786,0.60351 25,25 0 0 0 1.5976,0.52149 25,25 0 0 0 1.543,0.40429 25,25 0 0 0 1.623,0.30274 25,25 0 0 0 0.8731,0.16406 25,25 0 0 0 0.7422,0.0391 25,25 0 0 0 1.6347,0.0899 25,25 0 0 0 1.6192,-0.01 25,25 0 0 0 1.6543,-0.12695 25,25 0 0 0 1.5937,-0.21875 25,25 0 0 0 1.6113,-0.33984 25,25 0 0 0 1.5664,-0.42969 25,25 0 0 0 1.5489,-0.54492 25,25 0 0 0 1.4961,-0.62891 25,25 0 0 0 0.6914,-0.29102 c 22.9385,-11.46929 42.8429,-20.69336 70.4863,-20.69336 46.9444,0 89.9358,15.49222 121.2285,45.53321 31.2927,30.04098 52.1055,75.02235 52.1055,139.46679 0,65.13889 -18.8157,114.13431 -47.6836,146.76758 C 2349.2825,802.73483 2310.1845,820 2264.166,820 c -93.8889,0 -142.8946,-61.22079 -163.4531,-112.61719 a 25,25 0 0 0 -32.4981,-13.92773 25,25 0 0 0 -13.9277,32.49609 C 2080.3952,791.22137 2148.0549,870 2264.166,870 c 58.9815,0 113.2182,-23.5695 151.4336,-66.76953 38.2154,-43.20003 60.2344,-105.03537 60.2344,-179.89649 0,-75.55555 -25.8546,-135.57614 -67.4785,-175.53515 -41.624,-39.95902 -97.7999,-59.46485 -155.8555,-59.46485 -19.3951,0 -36.4936,3.44211 -51.6914,8.35547 l 26.5039,-220.86914 c 41.7527,9.43228 88.7734,17.51367 130.1875,17.51367 40.5556,0 78.1989,-12.81522 104.5137,-25.97265 a 25,25 0 0 0 11.1797,-33.54102 25,25 0 0 0 -20.8614,-13.77539 25,25 0 0 0 -12.6797,2.59375 c -20.3518,10.17597 -52.7079,20.69531 -82.1523,20.69531 -42.5,0 -99.8879,-11.15897 -145.6035,-22.58789 a 25,25 0 0 0 -0.4317,-0.0781 25,25 0 0 0 -2.6523,-0.49024 25,25 0 0 0 -0.066,-0.004 25,25 0 0 0 -1.6328,-0.0879 25,25 0 0 0 -1.5664,-0.084 z"
       id="path21" />
    <path
       style="stroke-width:57.8;stroke-linecap:round;stroke-linejoin:round"
       d="m 4915.834,120 c -40,0 -75.1695,24.47188 -106.1152,58.98828 -30.9458,34.51641 -58.7935,80.86103 -82.8731,133.53516 -48.1592,105.34826 -81.0117,235.71795 -81.0117,345.81054 0,60.00002 5.3331,109.31686 22.6562,147.42774 C 4685.8133,843.8726 4720.8327,870 4764.166,870 c 40,0 75.1695,-24.47188 106.1152,-58.98828 30.9459,-34.51641 58.7935,-80.86103 82.8731,-133.53516 48.1592,-105.34826 81.0117,-235.71795 81.0117,-345.81054 0,-60.00002 -5.3331,-109.31686 -22.6562,-147.42774 C 4994.1867,146.1274 4959.1673,120 4915.834,120 Z m 0,50 c 26.6667,0 38.3127,8.87194 50.1562,34.92773 11.8436,26.0558 18.1758,70.0716 18.1758,126.73829 0,99.9074 -31.3122,226.20505 -76.4863,325.02343 -22.5871,49.4092 -48.6977,92.02423 -74.627,120.94532 C 4807.1235,806.55585 4782.4994,820 4764.166,820 c -26.6667,0 -38.3127,-8.87194 -50.1562,-34.92773 -11.8436,-26.0558 -18.1758,-70.0716 -18.1758,-126.73829 0,-99.9074 31.3122,-226.20505 76.4863,-325.02343 22.5871,-49.4092 48.6977,-92.02423 74.627,-120.94532 C 4872.8765,183.44415 4897.5006,170 4915.834,170 Z"
       id="path20" />
    <path
       style="stroke-width:57.8;stroke-linecap:round;stroke-linejoin:round"
       d="m 3860.834,120 c -37.7778,0 -75.418,5.83397 -105.418,28.33398 -30,22.50002 -47.916,61.45705 -47.916,113.33204 0,57.83104 29.7587,107.80808 66.2734,156.26367 -5.5084,5.13806 -11.0737,10.16416 -16.4843,15.46875 -76.6148,75.11253 -143.1231,165.76885 -143.1231,259.93554 0,39.16667 9.8089,83.68544 41.418,118.80664 31.6091,35.12122 83.7209,57.85938 158.582,57.85938 43.3333,0 83.7493,-20.89389 113.9278,-51.07227 30.1783,-30.17837 51.0722,-70.5944 51.0722,-113.92773 0,-103.22913 -60.3962,-184.15365 -116.2324,-254.68359 -7.0265,-8.8756 -13.9489,-17.60419 -20.6914,-26.19727 59.1299,-49.50229 119.9511,-88.10654 157.0781,-104.60742 a 25,25 0 0 0 1.0488,-0.84766 25,25 0 0 0 4.9629,-4.01367 25,25 0 0 0 4.5352,-4.53516 25,25 0 0 0 2.293,-5.96093 25,25 0 0 0 1.6582,-6.1875 25,25 0 0 0 0.3476,-1.30078 V 273.33398 C 4014.166,189.4451 3944.7229,120 3860.834,120 Z m 0,50 c 56.1111,0 103.332,47.22287 103.332,103.33398 v 7.69727 c -42.5204,21.13454 -97.5865,57.21076 -152.2363,103.01563 C 3780.2012,340.28112 3757.5,299.9088 3757.5,261.66602 c 0,-41.45832 11.2494,-60.83203 27.916,-73.33204 C 3802.0827,175.83397 3828.6118,170 3860.834,170 Z m -56.1152,287.47852 c 6.3823,7.94687 12.6935,15.88972 19.0136,23.87304 54.9971,69.47005 105.4336,140.21097 105.4336,223.64844 0,26.66667 -14.1061,56.25064 -36.4277,78.57227 C 3870.4167,805.89389 3840.8327,820 3814.166,820 c -65.1389,0 -100.5271,-18.09456 -121.418,-41.30664 -20.8908,-23.21208 -28.582,-54.52604 -28.582,-85.35938 0,-69.1667 55.9918,-153.51163 128.127,-224.23242 4.0526,-3.97314 8.2883,-7.73667 12.4258,-11.62304 z"
       id="path19" />
    <path
       style="stroke-width:57.8;stroke-linecap:round;stroke-linejoin:round"
       d="m 1275.834,120 c -55,0 -96.3981,27.70856 -122.6778,53.98828 a 25,25 0 0 0 0,35.35547 25,25 0 0 0 35.3555,0 C 1208.8987,188.95667 1237.5006,170 1275.834,170 c 53.3333,0 83.7269,15.33437 101.9043,33.51172 18.1773,18.17735 24.7617,41.07094 24.7617,58.1543 0,75.50373 -51.4169,113.95528 -97.0977,147.87304 l -35.1718,-8.79297 a 25,25 0 0 0 -30.3184,18.19141 25,25 0 0 0 18.1914,30.31641 l 43.9317,10.98242 C 1404.327,512.91296 1402.5,612.22046 1402.5,635 c 0,128.88888 -80.8327,185 -161.666,185 -58.8889,0 -110.4454,-41.7913 -129.3067,-79.51367 a 25,25 0 0 0 -33.541,-11.17969 25,25 0 0 0 -11.1797,33.54102 C 1094.6122,818.45848 1159.7229,870 1240.834,870 c 105.8333,0 211.666,-83.88888 211.666,-235 0,-20.77502 -1.5196,-132.03307 -97.1621,-200.6543 44.3489,-34.97313 97.1621,-87.25674 97.1621,-172.67968 0,-29.58335 -10.9169,-65.02044 -39.4062,-93.50977 C 1384.6043,139.66692 1339.1673,120 1275.834,120 Z"
       id="path18" />
    <path
       style="stroke-width:57.8;stroke-linecap:round;stroke-linejoin:round"
       d="m 765.83398,120 c -68.3333,0 -121.53452,39.7324 -149.13476,81.13281 a 25,25 0 0 0 6.93359,34.66797 25,25 0 0 0 34.66797,-6.93359 C 677.36714,200.2676 717.50069,170 765.83398,170 c 29.44444,0 61.92151,10.1321 85.89063,30.50586 23.96912,20.37375 40.77539,50.14164 40.77539,96.16016 0,42.72057 -16.47832,73.52259 -44.59375,104.65039 -28.11543,31.12779 -68.08748,60.67558 -109.60742,94.78125 -78.44646,64.43815 -162.52079,149.46535 -171.58985,298.73632 a 25,25 0 0 0 -0.0117,0.0508 25,25 0 0 0 -0.12696,1.05273 c -0.48567,8.3719 -0.73633,16.9455 -0.73633,25.72852 a 25,25 0 0 0 25,25 25,25 0 0 0 24.30274,-19.13672 c 35.3006,6.13589 77.67128,14.99351 116.59766,23.00976 C 781.3342,860.75333 821.68953,870 847.5,870 c 40.55557,0 60.82778,-15.79679 81.17969,-25.97266 a 25,25 0 0 0 11.18164,-33.54101 25,25 0 0 0 -33.54102,-11.17969 C 880.00542,812.46397 876.94443,820 847.5,820 c -9.10203,0 -56.24603,-8.25314 -105.68164,-18.43359 -40.77529,-8.39701 -85.59474,-17.8362 -123.62695,-24.25391 13.20344,-119.55332 79.96482,-183.53472 151.84375,-242.57812 40.14673,-32.97767 81.84198,-63.2196 114.97656,-99.9043 C 918.14629,398.14538 942.5,353.11209 942.5,296.66602 942.5,237.68453 918.47165,191.61975 884.10742,162.41016 849.74319,133.20056 806.38954,120 765.83398,120 Z"
       id="path1-6-2-6-3" />
  </g>
</svg>
