<?xml version="1.0" encoding="UTF-8" standalone="no"?>
<!-- Created with Inkscape (http://www.inkscape.org/) -->

<svg
   width="225"
   height="1000"
   viewBox="0 0 225 1000"
   version="1.1"
   id="svg1"
   inkscape:version="1.4.3 (0d15f75, 2025-12-25)"
   sodipodi:docname="design_compressed_original.svg"
   xmlns:inkscape="http://www.inkscape.org/namespaces/inkscape"
   xmlns:sodipodi="http://sodipodi.sourceforge.net/DTD/sodipodi-0.dtd"
   xmlns="http://www.w3.org/2000/svg"
   xmlns:svg="http://www.w3.org/2000/svg">
  <sodipodi:namedview
     id="namedview1"
     pagecolor="#ffffff"
     bordercolor="#666666"
     borderopacity="1.0"
     inkscape:showpageshadow="2"
     inkscape:pageopacity="0.0"
     inkscape:pagecheckerboard="0"
     inkscape:deskcolor="#d1d1d1"
     inkscape:document-units="px"
     inkscape:zoom="0.46230602"
     inkscape:cx="5442.2826"
     inkscape:cy="588.35487"
     inkscape:window-width="1470"
     inkscape:window-height="895"
     inkscape:window-x="0"
     inkscape:window-y="33"
     inkscape:window-maximized="1"
     inkscape:current-layer="layer1">
    <inkscape:page
       x="0"
       y="0"
       width="225"
       height="1000"
       id="page1"
       margin="0"
       bleed="0"
       inkscape:label="1" />
    <inkscape:page
       x="510"
       y="0"
       width="225"
       height="1000"
       id="page2"
       margin="0"
       bleed="0"
       inkscape:label="2" />
    <inkscape:page
       x="1020"
       y="0"
       width="225"
       height="1000"
       id="page3"
       margin="0"
       bleed="0"
       inkscape:label="3" />
    <inkscape:page
       x="1530"
       y="0"
       width="225"
       height="1000"
       id="page4"
       margin="0"
       bleed="0"
       inkscape:label="4" />
    <inkscape:page
       x="2040"
       y="0"
       width="225"
       height="1000"
       id="page5"
       margin="0"
       bleed="0"
       inkscape:label="5" />
    <inkscape:page
       x="2550"
       y="0"
       width="225"
       height="1000"
       id="page6"
       margin="0"
       bleed="0"
       inkscape:label="6" />
    <inkscape:page
       x="3060"
       y="0"
       width="225"
       height="1000"
       id="page7"
       margin="0"
       bleed="0"
       inkscape:label="7" />
    <inkscape:page
       x="3570"
       y="0"
       width="225"
       height="1000"
       id="page8"
       margin="0"
       bleed="0"
       inkscape:label="8" />
    <inkscape:page
       x="4080"
       y="0"
       width="225"
       height="1000"
       id="page9"
       margin="0"
       bleed="0"
       inkscape:label="9" />
    <inkscape:page
       x="4590"
       y="0"
       width="225"
       height="1000"
       id="page10"
       margin="0"
       bleed="0"
       inkscape:label="0" />
    <inkscape:page
       x="5100"
       y="0"
       width="225"
       height="1000"
       id="page11"
       margin="0"
       bleed="0"
       inkscape:label="hyphen" />
    <inkscape:page
       x="5610"
       y="0"
       width="180"
       height="1000"
       id="page12"
       margin="0"
       bleed="0"
       inkscape:label="dot" />
    <inkscape:page
       x="6020"
       y="0"
       width="225"
       height="1000"
       id="page13"
       margin="0"
       bleed="0"
       inkscape:label="space" />
  </sodipodi:namedview>
  <defs
     id="defs1" />
  <g
     inkscape:label="Layer 1"
     inkscape:groupmode="layer"
     id="layer1">
    <rect
       style="fill:#ffeeaa;stroke:none;stroke-width:29.7045;stroke-linecap:round;stroke-linejoin:round;stroke-dasharray:none;paint-order:markers fill stroke"
       id="rect1-6-1-7-6-6-6-9-0-19-7-7-2-83-9"
       width="180"
       height="1000"
       x="5610"
       y="0" />
    <rect
       style="fill:#ffeeaa;stroke:none;stroke-width:33.2106;stroke-linecap:round;stroke-linejoin:round;stroke-dasharray:none;paint-order:markers fill stroke"
       id="rect1-6-1-7-6-6-6-9-0-19-7-7-2-7"
       width="225"
       height="1000"
       x="0"
       y="0" />
    <rect
       style="fill:#ffeeaa;stroke:none;stroke-width:33.2106;stroke-linecap:round;stroke-linejoin:round;stroke-dasharray:none;paint-order:markers fill stroke"
       id="rect1-6-1-7-6-6-6-9-0-19-7-7-2-4-00"
       width="225"
       height="1000"
       x="510"
       y="0" />
    <rect
       style="fill:#ffeeaa;stroke:none;stroke-width:33.2106;stroke-linecap:round;stroke-linejoin:round;stroke-dasharray:none;paint-order:markers fill stroke"
       id="rect1-6-1-7-6-6-6-9-0-19-7-7-2-6-66"
       width="225"
       height="1000"
       x="1020"
       y="0" />
    <rect
       style="fill:#ffeeaa;stroke:none;stroke-width:33.2106;stroke-linecap:round;stroke-linejoin:round;stroke-dasharray:none;paint-order:markers fill stroke"
       id="rect1-6-1-7-6-6-6-9-0-19-7-7-2-8-2"
       width="225"
       height="1000"
       x="1530"
       y="0" />
    <rect
       style="fill:#ffeeaa;stroke:none;stroke-width:33.2106;stroke-linecap:round;stroke-linejoin:round;stroke-dasharray:none;paint-order:markers fill stroke"
       id="rect1-6-1-7-6-6-6-9-0-19-7-7-2-1-5"
       width="225"
       height="1000"
       x="2040"
       y="0" />
    <rect
       style="fill:#ffeeaa;stroke:none;stroke-width:33.2106;stroke-linecap:round;stroke-linejoin:round;stroke-dasharray:none;paint-order:markers fill stroke"
       id="rect1-6-1-7-6-6-6-9-0-19-7-7-2-2-8"
       width="225"
       height="1000"
       x="2550"
       y="0" />
    <rect
       style="fill:#ffeeaa;stroke:none;stroke-width:33.2106;stroke-linecap:round;stroke-linejoin:round;stroke-dasharray:none;paint-order:markers fill stroke"
       id="rect1-6-1-7-6-6-6-9-0-19-7-7-2-19-6"
       width="225"
       height="1000"
       x="3060"
       y="0" />
    <rect
       style="fill:#ffeeaa;stroke:none;stroke-width:33.2106;stroke-linecap:round;stroke-linejoin:round;stroke-dasharray:none;paint-order:markers fill stroke"
       id="rect1-6-1-7-6-6-6-9-0-19-7-7-2-24-1"
       width="225"
       height="1000"
       x="3570"
       y="0" />
    <rect
       style="fill:#ffeeaa;stroke:none;stroke-width:33.2106;stroke-linecap:round;stroke-linejoin:round;stroke-dasharray:none;paint-order:markers fill stroke"
       id="rect1-6-1-7-6-6-6-9-0-19-7-7-2-45-4"
       width="225"
       height="1000"
       x="4080"
       y="0" />
    <rect
       style="fill:#ffeeaa;stroke:none;stroke-width:33.2106;stroke-linecap:round;stroke-linejoin:round;stroke-dasharray:none;paint-order:markers fill stroke"
       id="rect1-6-1-7-6-6-6-9-0-19-7-7-2-16-7"
       width="225"
       height="1000"
       x="4590"
       y="0" />
    <rect
       style="fill:#ffeeaa;stroke:none;stroke-width:33.2106;stroke-linecap:round;stroke-linejoin:round;stroke-dasharray:none;paint-order:markers fill stroke"
       id="rect1-6-1-7-6-6-6-9-0-19-7-7-2-3-8"
       width="225"
       height="1000"
       x="5100"
       y="0" />
    <rect
       style="fill:#ffeeaa;stroke:none;stroke-width:33.2106;stroke-linecap:round;stroke-linejoin:round;stroke-dasharray:none;paint-order:markers fill stroke"
       id="rect1-6-1-7-6-6-6-9-0-19-7-7-2-3-8-3"
       width="225"
       height="1000"
       x="6020"
       y="0" />
    <circle
       style="fill:#000000;stroke:none;stroke-width:50;stroke-linecap:round;stroke-linejoin:round;stroke-dasharray:none;paint-order:normal"
       id="path1-6-2-6-3"
       cx="5711.25"
       cy="940"
       r="40" />
    <path
       style="fill:#808080;stroke:#000000;stroke-width:50;stroke-linecap:round;stroke-linejoin:round;stroke-dasharray:none;paint-order:markers fill stroke"
       d="M 58.87485,839.16519 H 85.124835 111.37487"
       id="path208-34-1-7-9-5-98-1-0"
       sodipodi:nodetypes="ccc" />
    <path
       style="fill:none;stroke:#000000;stroke-width:50;stroke-linecap:round;stroke-linejoin:round;stroke-dasharray:none;paint-order:markers fill stroke"
       d="m 85.124835,839.16519 68.250015,-688.33339 -31.5,46.6667"
       id="path209-44-4-6-5-6-65-3-2"
       sodipodi:nodetypes="ccc" />
    <path
       style="fill:none;stroke:#000000;stroke-width:50;stroke-linecap:round;stroke-linejoin:round;stroke-dasharray:none"
       d="M 546.65061,798.4211 C 583.125,810 646.16438,845 661.875,845 c 15.75,0 20.99997,-11.6667 31.5,-23.3333"
       id="path3-0-0-7-3-75"
       sodipodi:nodetypes="csc" />
    <path
       style="fill:none;stroke:#000000;stroke-width:50;stroke-linecap:round;stroke-linejoin:round;stroke-dasharray:none"
       d="m 567.375,215 c 10.49999,-35 31.5,-70 57.74999,-70 31.5,0 68.25001,46.6667 68.25001,151.6667 0,198.3333 -147.00001,210 -147.00001,525"
       id="path144-4-4-94-8-8-0-5-03-2-1"
       sodipodi:nodetypes="ccsc" />
    <path
       style="fill:none;stroke:#000000;stroke-width:50;stroke-linecap:round;stroke-linejoin:round;stroke-dasharray:none"
       d="m 1137.3752,436.6667 c 52.5,58.3333 52.5,175.3783 52.5,198.3333 0,140 -42.0001,210 -84,210 -31.5,0 -50.3751,-46.6667 -60.8752,-93.3333"
       id="path147-3-7-0-65-0-7-3-3-63-6"
       sodipodi:nodetypes="cssc" />
    <path
       style="fill:none;stroke:#000000;stroke-width:50;stroke-linecap:round;stroke-linejoin:round;stroke-dasharray:none"
       d="m 1074.3752,191.6667 c 10.4999,-23.3334 26.2499,-46.6667 47.25,-46.6667 52.5,0 68.25,70 68.25,116.6667 0,93.3333 -31.5,140 -52.5,175"
       id="path146-7-6-0-5-1-6-9-99-2-4"
       sodipodi:nodetypes="cssc" />
    <path
       style="fill:none;stroke:#000000;stroke-width:50;stroke-linecap:round;stroke-linejoin:round;stroke-dasharray:none;paint-order:markers fill stroke"
       d="m 1116.3751,425 21.0001,11.6667"
       id="path210-4-7-0-6-3-7-9-0"
       sodipodi:nodetypes="cc" />
    <path
       style="fill:none;stroke:#000000;stroke-width:50;stroke-linecap:round;stroke-linejoin:round;stroke-dasharray:none"
       d="m 1562.625,687.5 c 21,-116.6667 89.25,-396.6667 141.75,-536.6667"
       id="path149-1-2-15-3-1-8-5-2-6-58"
       sodipodi:nodetypes="cc" />
    <path
       style="fill:none;stroke:#000000;stroke-width:50;stroke-linecap:round;stroke-linejoin:round;stroke-dasharray:none;paint-order:markers fill stroke"
       d="m 1657.125,839.1667 47.25,-688.3334"
       id="path211-3-1-0-2-2-6-0-9"
       sodipodi:nodetypes="cc" />
    <path
       style="fill:none;stroke:#000000;stroke-width:50;stroke-linecap:round;stroke-linejoin:round;stroke-dasharray:none;paint-order:markers fill stroke"
       d="m 1562.625,687.5 h 147"
       id="path212-5-3-9-8-6-2-3-2"
       sodipodi:nodetypes="cc" />
    <path
       style="fill:none;stroke:#000000;stroke-width:50;stroke-linecap:round;stroke-linejoin:round;stroke-dasharray:none"
       d="m 2098.875,436.6667 c 10.5,-11.6667 21.6951,-23.3333 36.75,-23.3333 47.25,0 89.25,70 89.25,210 0,140 -36.75,221.6666 -84,221.6666 -47.25,0 -65.375,-70 -75.875,-128.3333"
       id="path215-1-7-2-0-9-7-4-3"
       sodipodi:nodetypes="csssc" />
    <path
       style="fill:none;stroke:#000000;stroke-width:50;stroke-linecap:round;stroke-linejoin:round;stroke-dasharray:none"
       d="m 2224.875,145 c -10.5,11.6667 -26.25,23.3334 -42,23.3334 -21,0 -47.25,-11.6667 -68.25,-23.3334"
       id="path151-0-0-59-2-1-1-7-90-4-2"
       sodipodi:nodetypes="csc" />
    <path
       style="fill:none;stroke:#000000;stroke-width:50;stroke-linecap:round;stroke-linejoin:round;stroke-dasharray:none;paint-order:markers fill stroke"
       d="m 2114.625,145 -15.75,291.6667"
       id="path213-7-8-5-5-8-70-44-6"
       sodipodi:nodetypes="cc" />
    <path
       style="fill:none;stroke:#000000;stroke-width:50;stroke-linecap:round;stroke-linejoin:round;stroke-dasharray:none"
       d="m 2602.132,480.101 c 16.4929,-8.4343 34.188,-20.101 53.2428,-20.101 42.0001,0 73.5001,70 73.5001,175 0,116.6667 -31.5,210 -73.5001,210 -36.7499,0 -73.4999,-46.6667 -73.4999,-198.3333 C 2581.8749,460 2681.6249,215 2723.6249,145"
       id="path152-7-5-67-91-5-1-5-3-31-8"
       sodipodi:nodetypes="cssssc" />
    <path
       style="fill:none;stroke:#000000;stroke-width:50;stroke-linecap:round;stroke-linejoin:round;stroke-dasharray:none"
       d="m 3124.125,244.1667 c 5.25,-23.3334 15.75,-58.3334 26.25,-70 31.1771,9.4168 62.3747,11.6666 97.1354,22.6139"
       id="path154-6-1-4-9-7-1-2-2-8-3"
       sodipodi:nodetypes="ccc" />
    <path
       style="fill:none;stroke:#000000;stroke-width:50;stroke-linecap:round;stroke-linejoin:round;stroke-dasharray:none"
       d="m 3259.9997,150.8333 c -52.5,186.6666 -99.1247,455.00005 -120.1247,688.33335"
       id="path153-7-2-0-9-1-5-0-7-8-6"
       sodipodi:nodetypes="cc" />
    <path
       style="fill:none;stroke:#000000;stroke-width:50;stroke-linecap:round;stroke-linejoin:round;stroke-dasharray:none"
       d="m 3758.625,296.6667 c -47.25,46.6667 -157.5,233.3333 -157.5,396.6667 0,70 15.75,151.6666 78.75,151.6666 31.5,0 63,-70 63,-140 0,-186.6666 -99.75,-303.3333 -99.75,-443.3333 0,-93.3333 26.25,-116.6667 57.75,-116.6667 31.5,0 57.75,58.3334 57.75,128.3334 v 23.3333"
       id="path7-2-1-2-9-6"
       sodipodi:nodetypes="cssssssc" />
    <path
       style="fill:none;stroke:#000000;stroke-width:50;stroke-linecap:round;stroke-linejoin:round;stroke-dasharray:none"
       d="m 4246.638,480.2413 c -17.0131,8.9254 -44.9111,20.592 -64.2631,20.592 -31.5,0 -52.5001,-46.6666 -52.5001,-105 0,-105 52.5001,-245 94.5,-245 19.5463,0 39.8753,35 52.2811,62.7441"
       id="path156-5-1-4-7-2-5-4-5-69-63"
       sodipodi:nodetypes="csscc" />
    <path
       style="fill:none;stroke:#000000;stroke-width:50;stroke-linecap:round;stroke-linejoin:round;stroke-dasharray:none;paint-order:markers fill stroke"
       d="m 4203.3748,839.1667 76.6253,-653.3334"
       id="path216-7-4-6-9-9-3-5-1"
       sodipodi:nodetypes="cc" />
    <path
       style="fill:none;stroke:#000000;stroke-width:50;stroke-linecap:round;stroke-linejoin:round;stroke-dasharray:none"
       d="m 4736.625,145 c 31.5,0 42,70 42,186.6667 0,210 -57.75,513.3333 -110.25,513.3333 -31.5,0 -42,-70 -42,-186.6667 0,-210 57.75,-513.3333 110.25,-513.3333 z"
       id="path157-4-9-1-2-5-2-9-0-2-62"
       sodipodi:nodetypes="sscss" />
    <path
       style="fill:none;stroke:#000000;stroke-width:50;stroke-linecap:round;stroke-linejoin:round;stroke-dasharray:none"
       d="m 5157.375,495 h 115.5"
       id="path158-44-2-5-6-2-2-7-39-0-1"
       sodipodi:nodetypes="cc" />
  </g>
</svg>
