<?xml version="1.0" encoding="UTF-8" standalone="no"?>
<!-- Created with Inkscape (http://www.inkscape.org/) -->

<svg
   width="250"
   height="1000"
   viewBox="0 0 250 1000"
   version="1.1"
   id="svg1"
   inkscape:version="1.4.3 (0d15f75, 2025-12-25)"
   sodipodi:docname="design_compressed.svg"
   inkscape:export-batch-name=""
   inkscape:export-batch-path="../compressed_regular"
   xmlns:inkscape="http://www.inkscape.org/namespaces/inkscape"
   xmlns:sodipodi="http://sodipodi.sourceforge.net/DTD/sodipodi-0.dtd"
   xmlns="http://www.w3.org/2000/svg"
   xmlns:svg="http://www.w3.org/2000/svg">
  <sodipodi:namedview
     id="namedview1"
     pagecolor="#ffffff"
     bordercolor="#666666"
     borderopacity="1.0"
     inkscape:showpageshadow="2"
     inkscape:pageopacity="0.0"
     inkscape:pagecheckerboard="0"
     inkscape:deskcolor="#d1d1d1"
     inkscape:document-units="px"
     showgrid="true"
     inkscape:zoom="0.17845937"
     inkscape:cx="1328.0334"
     inkscape:cy="409.05669"
     inkscape:window-width="1470"
     inkscape:window-height="895"
     inkscape:window-x="0"
     inkscape:window-y="33"
     inkscape:window-maximized="1"
     inkscape:current-layer="layer1">
    <inkscape:page
       x="0"
       y="0"
       width="250"
       height="1000"
       id="page1"
       margin="0"
       bleed="0"
       inkscape:label="1" />
    <inkscape:page
       x="260"
       y="0"
       width="250"
       height="1000"
       id="page2"
       margin="0"
       bleed="0"
       inkscape:label="2" />
    <inkscape:page
       x="520"
       y="0"
       width="250"
       height="1000"
       id="page3"
       margin="0"
       bleed="0"
       inkscape:label="3" />
    <inkscape:page
       x="780"
       y="0"
       width="250"
       height="1000"
       id="page4"
       margin="0"
       bleed="0"
       inkscape:label="4" />
    <inkscape:page
       x="1040"
       y="0"
       width="250"
       height="1000"
       id="page5"
       margin="0"
       bleed="0"
       inkscape:label="5" />
    <inkscape:page
       x="1300"
       y="0"
       width="250"
       height="1000"
       id="page6"
       margin="0"
       bleed="0"
       inkscape:label="6" />
    <inkscape:page
       x="1560"
       y="0"
       width="250"
       height="1000"
       id="page7"
       margin="0"
       bleed="0"
       inkscape:label="7" />
    <inkscape:page
       x="1820"
       y="0"
       width="250"
       height="1000"
       id="page8"
       margin="0"
       bleed="0"
       inkscape:label="8" />
    <inkscape:page
       x="2080"
       y="0"
       width="250"
       height="1000"
       id="page9"
       margin="0"
       bleed="0"
       inkscape:label="9" />
    <inkscape:page
       x="2340"
       y="0"
       width="250"
       height="1000"
       id="page10"
       margin="0"
       bleed="0"
       inkscape:label="0" />
    <inkscape:page
       x="2600"
       y="0"
       width="250"
       height="1000"
       id="page11"
       margin="0"
       bleed="0"
       inkscape:label="hyphen" />
    <inkscape:page
       x="2860"
       y="0"
       width="175"
       height="1000"
       id="page12"
       margin="0"
       bleed="0"
       inkscape:label="dot" />
    <inkscape:grid
       id="grid12"
       units="px"
       originx="0"
       originy="0"
       spacingx="1"
       spacingy="1"
       empcolor="#0099e5"
       empopacity="0.30196078"
       color="#0099e5"
       opacity="0.14901961"
       empspacing="5"
       enabled="true"
       visible="true" />
  </sodipodi:namedview>
  <defs
     id="defs1" />
  <g
     inkscape:label="Layer 1"
     inkscape:groupmode="layer"
     id="layer1">
    <path
       style="stroke-width:40.8708;stroke-linecap:round;stroke-linejoin:round"
       d="m 2947.5,900 a 40,40 0 0 0 -40,40 40,40 0 0 0 40,40 40,40 0 0 0 40,-40 40,40 0 0 0 -40,-40 z"
       id="path12" />
    <path
       style="stroke-width:40.8708;stroke-linecap:round;stroke-linejoin:round"
       d="m 2663.75,470 a 25,25 0 0 0 -25,25 25,25 0 0 0 25,25 h 128.334 a 25,25 0 0 0 25,-25 25,25 0 0 0 -25,-25 z"
       id="path11" />
    <path
       style="stroke-width:40.8708;stroke-linecap:round;stroke-linejoin:round"
       d="m 1777.2773,130.85352 a 25,25 0 0 0 -6.5,0.58593 25,25 0 0 0 -18.3886,16.9375 c -2.4018,7.68577 -4.8032,15.50603 -7.2012,23.45117 -33.7271,-7.18454 -65.8002,-10.01294 -90.7129,-16.78515 a 25.0025,25.0025 0 0 0 -12.9844,-0.0352 25.0025,25.0025 0 0 0 -11.2519,6.48047 c -11.726,11.72588 -16.7702,24.78455 -22.3926,39.24219 -5.6224,14.45764 -10.1952,29.75519 -13.3496,42.37305 a 25,25 0 0 0 18.1914,30.3164 25,25 0 0 0 30.3164,-18.18945 c 2.6789,-10.71555 6.8555,-24.58459 11.4414,-36.37695 1.6066,-4.13124 3.4111,-7.86247 5.1426,-11.24219 24.0931,5.10195 48.5446,8.01856 71.5039,12.50195 -51.2884,181.47983 -99.0091,414.4891 -119.7168,621.56641 a 25,25 0 0 0 22.3867,27.36328 25,25 0 0 0 27.3633,-22.38867 c 23.1116,-231.11673 81.2722,-498.6781 138.9863,-683.36328 a 25,25 0 0 0 -16.4043,-31.32032 25,25 0 0 0 -6.4297,-1.11718 z"
       id="path10" />
    <path
       style="stroke-width:40.8708;stroke-linecap:round;stroke-linejoin:round"
       d="m 170.05273,125.83984 a 25.0025,25.0025 0 0 0 -19.63671,9.99219 l -35,46.66602 a 25,25 0 0 0 5,35 25,25 0 0 0 17.05273,4.09961 L 72.1875,814.16602 h -6.771484 a 25,25 0 0 0 -25,25 25,25 0 0 0 25,25 H 94.583984 123.75 a 25,25 0 0 0 25,-25 25,25 0 0 0 -25,-25 h -1.26172 l 72.77734,-660.59571 a 25.0025,25.0025 0 0 0 -21.96093,-27.56445 25.0025,25.0025 0 0 0 -3.25196,-0.16602 z"
       id="path9" />
    <path
       style="stroke-width:40.8708;stroke-linecap:round;stroke-linejoin:round"
       d="m 2225.416,125.83398 c -24.1667,0 -41.1867,15.18758 -55.4746,32.72266 -14.2878,17.53508 -26.6773,40.0359 -37.5391,65.63867 -21.7235,51.20555 -36.9863,114.50905 -36.9863,171.63867 0,32.50003 6.1407,62.28698 19.0313,86.22657 12.8905,23.93959 35.6916,43.77343 64.3027,43.77343 13.9412,0 27.9128,-2.73944 40.9648,-6.65234 l -42.4101,316.66602 a 25,25 0 0 0 21.4609,28.09765 25,25 0 0 0 28.0957,-21.46093 l 48.0489,-358.76368 a 25,25 0 0 0 0.043,-0.32226 l 35.6719,-266.35156 a 25,25 0 0 0 0.025,-0.1836 l 0.016,-0.11719 a 25,25 0 0 0 0,-0.004 l 3.6953,-27.58985 a 25,25 0 0 0 -21.459,-28.09765 25,25 0 0 0 -10.1152,0.7207 c -1.7319,-2.18451 -3.5142,-4.32984 -5.3437,-6.42383 -12.7219,-14.56091 -27.7387,-29.51758 -52.0274,-29.51758 z m -0.3711,50.23243 c 0.4826,0.76845 7.4657,3.85082 14.7461,12.18359 7.1179,8.14687 14.4744,19.32935 20.2461,29.86719 l -32.7754,244.71484 c -17.0144,6.62891 -38.657,13.00195 -48.5117,13.00195 -6.3889,0 -12.7532,-3.50145 -20.2793,-17.47851 -7.5261,-13.97706 -13.0547,-36.68811 -13.0547,-62.52149 0,-47.87037 13.9059,-107.06687 33.0156,-152.11132 9.5549,-22.52223 20.4969,-41.58587 30.2715,-53.58204 9.1753,-11.26042 16.1708,-13.78425 16.3399,-14.06835 4e-4,-0.001 0,-0.005 0,-0.006 z"
       id="path8" />
    <path
       style="stroke-width:40.8708;stroke-linecap:round;stroke-linejoin:round"
       d="m 973.80273,125.83398 a 25,25 0 0 0 -0.875,0.0547 25,25 0 0 0 -1.53125,0.0977 25,25 0 0 0 -0.85742,0.0547 25,25 0 0 0 -1,0.19726 25,25 0 0 0 -1.48047,0.29102 25,25 0 0 0 -1.82617,0.51367 25,25 0 0 0 -1.42578,0.48047 25,25 0 0 0 -1.72656,0.75781 25,25 0 0 0 -1.35547,0.66602 25,25 0 0 0 -1.64258,1.01757 25,25 0 0 0 -1.20703,0.80274 25,25 0 0 0 -1.57031,1.30859 25,25 0 0 0 -1.01172,0.88281 25,25 0 0 0 -1.48633,1.64063 25,25 0 0 0 -0.78125,0.88867 25,25 0 0 0 -1.70898,2.51758 25,25 0 0 0 -0.26953,0.44726 25,25 0 0 0 -1.37305,2.76563 c -0.0287,0.0689 -0.0572,0.13807 -0.0859,0.20703 a 25,25 0 0 0 -0.93555,2.81445 C 889.89124,288.73475 815.47249,563.91661 791.73633,682.59766 a 25,25 0 0 0 -0.0547,0.4082 25,25 0 0 0 -0.32812,2.47461 25,25 0 0 0 -0.0469,0.93555 25,25 0 0 0 -0.0566,1.08398 25,25 0 0 0 0.0527,0.81641 25,25 0 0 0 0.10743,1.61328 25,25 0 0 0 0.21289,1.63281 25,25 0 0 0 0.3125,1.57031 25,25 0 0 0 0.43359,1.62891 25,25 0 0 0 0.50586,1.48828 25,25 0 0 0 0.64648,1.56641 25,25 0 0 0 0.70118,1.41797 25,25 0 0 0 0.83007,1.44335 25,25 0 0 0 0.89649,1.3418 25,25 0 0 0 1.00781,1.31641 25,25 0 0 0 1.05078,1.19922 25,25 0 0 0 1.19141,1.1914 25,25 0 0 0 1.1875,1.04102 25,25 0 0 0 1.32812,1.02344 25,25 0 0 0 1.33399,0.89062 25,25 0 0 0 1.42969,0.82813 25,25 0 0 0 1.45117,0.71484 25,25 0 0 0 1.53125,0.63672 25,25 0 0 0 1.51367,0.51367 25,25 0 0 0 1.60937,0.43359 25,25 0 0 0 0.76368,0.20508 25,25 0 0 0 0.8164,0.10742 25,25 0 0 0 1.63672,0.2168 25,25 0 0 0 1.60352,0.10547 25,25 0 0 0 0.8457,0.0566 h 89.58789 l -9.51562,124.76562 a 25,25 0 0 0 23.02734,26.82813 25,25 0 0 0 26.82812,-23.02539 L 955.98438,712.5 h 23.5996 a 25,25 0 0 0 25.00002,-25 25,25 0 0 0 -25.00002,-25 h -19.7871 l 38.88085,-509.76562 a 25,25 0 0 0 0.01,-0.92774 25,25 0 0 0 0.0176,-1.62695 25,25 0 0 0 -0.10352,-1.63867 25,25 0 0 0 -0.19531,-1.61524 25,25 0 0 0 -0.31445,-1.59961 25,25 0 0 0 -0.40821,-1.58984 25,25 0 0 0 -0.51953,-1.54297 25,25 0 0 0 -0.60742,-1.51172 25,25 0 0 0 -0.73242,-1.49023 25,25 0 0 0 -0.7832,-1.39258 25,25 0 0 0 -0.92188,-1.38477 25,25 0 0 0 -0.96875,-1.28906 25,25 0 0 0 -1.07227,-1.23047 25,25 0 0 0 -1.15624,-1.17969 25,25 0 0 0 -1.21485,-1.06836 25,25 0 0 0 -1.28515,-1.00976 25,25 0 0 0 -1.35938,-0.91211 25,25 0 0 0 -1.41211,-0.83594 25,25 0 0 0 -1.4375,-0.71289 25,25 0 0 0 -0.84766,-0.41992 25,25 0 0 0 -0.6914,-0.23633 25,25 0 0 0 -1.51367,-0.51758 25,25 0 0 0 -1.58399,-0.44336 25,25 0 0 0 -1.61133,-0.32226 25,25 0 0 0 -1.60742,-0.23047 25,25 0 0 0 -0.70703,-0.0996 25,25 0 0 0 -0.85742,-0.006 25,25 0 0 0 -0.99024,-0.0664 z M 934.26172,339.85156 909.65234,662.5 h -62.53906 c 17.78555,-79.95179 51.55249,-207.60551 87.14844,-322.64844 z"
       id="path7" />
    <path
       style="stroke-width:40.8708;stroke-linecap:round;stroke-linejoin:round"
       d="m 1499.5254,120.05273 a 25,25 0 0 0 -22.4102,11.08008 c -25.7335,38.60023 -64.8406,117.51461 -98.9746,212.4961 -34.1339,94.98149 -62.7246,204.75584 -62.7246,303.03711 0,78.07688 10.0082,130.91875 28.1602,167.22265 18.1519,36.3039 48.5673,56.11133 78.5078,56.11133 20,0 37.732,-10.39511 50.7441,-24.37109 13.0122,-13.97599 22.8438,-31.90127 30.9219,-52.9043 16.1562,-42.00607 25,-96.89126 25,-157.72461 0,-55.27778 -8.8737,-102.15831 -25.7617,-137.62305 C 1486.1003,461.91222 1457.9173,435 1422.084,435 c -7.768,0 -15.0207,0.98502 -21.8125,2.55273 7.6116,-26.29056 16.0023,-52.1939 24.9219,-77.01367 32.9493,-91.68518 72.5922,-170.2721 93.5254,-201.67187 a 25,25 0 0 0 -6.9336,-34.66797 25,25 0 0 0 -12.2598,-4.14649 z M 1422.084,485 c 10.8333,0 23.483,8.08778 35.7617,33.87305 12.2787,25.78526 20.9043,66.40473 20.9043,116.12695 0,55.83335 -8.6555,105.94813 -21.666,139.77539 -6.5053,16.91363 -14.1743,29.61336 -20.8496,36.7832 -6.6754,7.16984 -10.8171,8.44141 -14.1504,8.44141 -10.8928,0 -21.3121,-3.52656 -33.7852,-28.47266 -12.473,-24.9461 -22.8828,-71.27161 -22.8828,-144.86132 0,-46.38105 7.5041,-97.62797 19.2871,-149.11133 C 1399.7207,490.58278 1412.4519,485 1422.084,485 Z"
       id="path6" />
    <path
       style="stroke-width:40.8708;stroke-linecap:round;stroke-linejoin:round"
       d="m 2502.916,120 c -18.125,0 -31.3457,10.72818 -41.1269,22.33203 -9.7813,11.60385 -17.7491,25.97232 -25.4356,43.11914 -15.373,34.29365 -29.0371,79.84763 -40.9336,131.89453 -23.7928,104.0938 -40.0039,233.44199 -40.0039,340.98828 0,59.16668 2.6967,106.83587 10.8301,142.62305 4.0667,17.89359 9.2744,33.04186 18.4668,45.85547 9.1924,12.81361 25.2878,23.1875 42.3711,23.1875 18.125,0 31.3457,-10.72818 41.1269,-22.33203 9.7813,-11.60385 17.7491,-25.97232 25.4356,-43.11914 15.373,-34.29365 29.0371,-79.84763 40.9336,-131.89453 23.7929,-104.0938 40.0039,-233.44199 40.0039,-340.98828 0,-59.16668 -2.6967,-106.83587 -10.8301,-142.62305 -4.0667,-17.89359 -9.2744,-33.04186 -18.4668,-45.85547 C 2536.0947,130.37389 2519.9993,120 2502.916,120 Z m 0.053,49.81445 c 0.053,0.0775 0.1122,0.16228 0.1191,0.17578 -0.07,8.6e-4 -0.09,0.006 -0.1465,0.008 0.073,-0.0157 0.06,-0.1029 0.027,-0.1836 z m 0.7109,1.0586 c 0.253,0.39366 0.1985,0.37095 0.9805,1.46093 2.8388,3.95723 7.111,13.59932 10.3359,27.78907 6.4499,28.37949 9.5879,74.04294 9.5879,131.54297 0,102.4537 -15.8743,229.7748 -38.7481,329.84765 -11.4369,50.03643 -24.7499,93.43819 -37.8144,122.58203 -6.5323,14.57193 -13.1478,25.54266 -18.041,31.34766 -1.7176,2.03761 -2.8428,3.02501 -3.6602,3.68359 -0.253,-0.39366 -0.1985,-0.37095 -0.9805,-1.46093 -2.8388,-3.95723 -7.111,-13.59932 -10.3359,-27.78907 -6.4499,-28.37949 -9.5879,-74.04294 -9.5879,-131.54297 0,-102.4537 15.8743,-229.7748 38.7481,-329.84765 11.4369,-50.03643 24.7499,-93.43819 37.8144,-122.58203 6.5323,-14.57192 13.1478,-25.54266 18.041,-31.34766 1.7176,-2.03761 2.8428,-3.02501 3.6602,-3.68359 z m -76.6348,649.1289 c -0.092,0.0142 -0.091,0.0799 -0.088,0.10352 -0,-0.0114 -0.015,-0.0379 -0.045,-0.0957 0.064,-7.8e-4 0.088,-0.005 0.1328,-0.008 z"
       id="path5" />
    <path
       style="stroke-width:40.8708;stroke-linecap:round;stroke-linejoin:round"
       d="m 1965.416,120 c -23.0555,0 -49.8984,10.29973 -66.0098,34.4668 -16.1114,24.16707 -23.1562,57.9284 -23.1562,107.19922 0,55.884 15.824,106.76615 35.0488,157.21484 -3.7488,6.8938 -7.498,13.80432 -11.1738,21.01172 -38.3413,75.17892 -70.541,165.52471 -70.541,253.4414 0,37.08334 4.102,77.67708 19.7012,112.3418 15.5991,34.66473 48.0766,64.32422 92.7988,64.32422 17.0833,0 31.5467,-8.28843 42.7598,-18.75391 11.2129,-10.46547 20.1683,-23.70379 27.7246,-38.8164 15.1126,-30.22523 24.5156,-68.26302 24.5156,-107.42969 0,-98.28122 -29.2886,-177.92525 -57.1719,-248.36719 -4.59,-11.59572 -8.8973,-22.61354 -13.2676,-33.75586 30.6173,-51.92746 62.5951,-92.45538 79.5489,-107.52539 a 25,25 0 0 0 2.207,-3.35156 25,25 0 0 0 3.498,-5.31055 25,25 0 0 0 1.6485,-6.15039 25,25 0 0 0 1.0371,-3.87304 v -23.33204 c 0,-38.47222 -7.6949,-73.79217 -21.5977,-101.59765 C 2019.0836,143.93085 1996.8049,120 1965.416,120 Z m 0,50 c 3.6111,0 13.4171,5.23644 22.8477,24.09766 9.4306,18.86121 16.3203,47.70855 16.3203,79.23632 v 12.76172 c -17.8892,17.78239 -38.6482,43.84758 -59.9297,76.51172 -11.01,-34.15151 -18.4043,-67.24275 -18.4043,-100.9414 0,-44.06248 7.5378,-68.63189 14.7598,-79.46485 C 1948.2317,171.36822 1953.4717,170 1965.416,170 Z m -29.6699,311.00586 c 26.6527,67.72585 51.3379,138.12391 51.3379,223.99414 0,30.83333 -8.099,62.79554 -19.2363,85.07031 -5.5687,11.13739 -11.9259,19.77407 -17.1192,24.6211 -5.1932,4.84702 -8.2278,5.30859 -8.6445,5.30859 -25.2778,0 -36.5523,-11.17322 -47.2031,-34.8418 -10.6509,-23.66857 -15.2969,-58.90755 -15.2969,-91.82422 0,-69.01817 24.4154,-145.64729 56.1621,-212.32812 z"
       id="path4" />
    <path
       style="stroke-width:40.8708;stroke-linecap:round;stroke-linejoin:round"
       d="m 1245.416,120 a 25,25 0 0 0 -17.6777,7.32227 c -8.7205,8.72044 -22.5994,16.01171 -28.9883,16.01171 -14.9999,0 -42.8098,-9.77398 -64.6523,-20.69531 a 25,25 0 0 0 -0.1348,-0.0566 25,25 0 0 0 -1.416,-0.5957 25,25 0 0 0 -1.6035,-0.6543 25,25 0 0 0 -1.5821,-0.43164 25,25 0 0 0 -1.5625,-0.41016 25,25 0 0 0 -1.6621,-0.22851 25,25 0 0 0 -1.5898,-0.19922 25,25 0 0 0 -0.1328,-0.0176 25,25 0 0 0 -1.4981,0.008 25,25 0 0 0 -1.498,-0.008 25,25 0 0 0 -0.1328,0.0176 25,25 0 0 0 -1.6856,0.21289 25,25 0 0 0 -1.5527,0.21289 25,25 0 0 0 -1.6328,0.42774 25,25 0 0 0 -1.5293,0.41796 25,25 0 0 0 -1.5352,0.62696 25,25 0 0 0 -1.4844,0.62304 25,25 0 0 0 -1.5625,0.89258 25,25 0 0 0 -1.25,0.73047 25,25 0 0 0 -1.4824,1.12305 25,25 0 0 0 -1.123,0.87304 25,25 0 0 0 -1.252,1.23829 25,25 0 0 0 -1.0625,1.07226 25,25 0 0 0 -1.1191,1.44336 25,25 0 0 0 -0.8653,1.14258 25,25 0 0 0 -0.9238,1.57812 25,25 0 0 0 -0.668,1.14258 25,25 0 0 0 -0.049,0.11524 25,25 0 0 0 -0.6933,1.64843 25,25 0 0 0 -0.5586,1.3711 25,25 0 0 0 -0.4649,1.69336 25,25 0 0 0 -0.3848,1.46679 25,25 0 0 0 -0.2402,1.76172 25,25 0 0 0 -0.1855,1.47461 25,25 0 0 0 -0.02,0.15039 l -17.5,291.66797 a 25,25 0 0 0 0,0.64453 25,25 0 0 0 0.014,2.46289 25,25 0 0 0 0.1348,1.14844 25,25 0 0 0 0.2734,1.98242 25,25 0 0 0 0.3067,1.25196 25,25 0 0 0 0.4902,1.79296 25,25 0 0 0 0.4824,1.28126 25,25 0 0 0 0.6973,1.65429 25,25 0 0 0 0.6426,1.22852 25,25 0 0 0 0.8945,1.52734 25,25 0 0 0 0.7891,1.14649 25,25 0 0 0 1.0957,1.4121 25,25 0 0 0 0.914,1.03126 25,25 0 0 0 0.5391,0.60937 25,25 0 0 0 0.6738,0.5918 25,25 0 0 0 1.2168,1.0664 25,25 0 0 0 1.3106,0.99414 25,25 0 0 0 1.3515,0.90235 25,25 0 0 0 1.4297,0.81445 25,25 0 0 0 1.4453,0.71289 25,25 0 0 0 1.541,0.62891 25,25 0 0 0 1.5176,0.51562 25,25 0 0 0 1.5996,0.41992 25,25 0 0 0 1.586,0.31446 25,25 0 0 0 1.6406,0.20703 25,25 0 0 0 0.8691,0.10937 25,25 0 0 0 0.7461,-0.004 25,25 0 0 0 1.6348,-0.01 25,25 0 0 0 1.625,-0.10547 25,25 0 0 0 1.6347,-0.22461 25,25 0 0 0 1.5879,-0.3164 25,25 0 0 0 1.5743,-0.42969 25,25 0 0 0 1.5527,-0.52734 25,25 0 0 0 1.5098,-0.63672 25,25 0 0 0 1.4531,-0.7168 25,25 0 0 0 1.4219,-0.83008 25,25 0 0 0 1.3496,-0.90234 25,25 0 0 0 1.2871,-0.99805 25,25 0 0 0 1.2383,-1.08594 25,25 0 0 0 0.5586,-0.49023 c 11.2763,-11.27652 18.0525,-16.00977 23.1562,-16.00977 15.1389,0 31.5811,9.25511 47.0977,39.04688 15.5165,29.79176 27.0683,78.7309 27.0683,145.95312 0,67.56944 -10.1979,120.11294 -24.8418,153.22071 C 1180.9304,809.66246 1165.371,820 1152.084,820 c -15.1389,0 -25.5234,-8.73939 -36.9922,-29.41797 -11.4688,-20.67858 -19.985,-50.85272 -25.5781,-78.81836 a 25,25 0 0 0 -29.416,-19.61133 25,25 0 0 0 -19.6114,29.41797 c 6.0736,30.36767 14.8497,64.35893 30.8809,93.26367 16.0312,28.90475 43.3557,55.16602 80.7168,55.16602 39.2129,0 70.3189,-30.49517 89.2168,-73.2207 18.8978,-42.72553 29.1152,-101.01476 29.1152,-173.44532 0,-72.77778 -11.7808,-128.84059 -32.7226,-169.04882 -20.9418,-40.20824 -54.0823,-65.95118 -91.4434,-65.95118 -4.5856,0 -8.9035,0.48687 -12.9707,1.35352 l 12.4297,-207.16211 c 16.7037,6.25047 34.6804,10.80859 53.041,10.80859 28.6111,0 49.7307,-16.04329 64.3438,-30.65625 a 25,25 0 0 0 0,-35.35546 A 25,25 0 0 0 1245.416,120 Z"
       id="path3" />
    <path
       style="stroke-width:40.8708;stroke-linecap:round;stroke-linejoin:round"
       d="m 647.91602,120 c -19.99999,0 -36.60645,10.20996 -48.30274,21.90625 -11.69629,11.69629 -19.97795,25.42265 -26.55664,38.58008 a 25,25 0 0 0 11.17969,33.54101 25,25 0 0 0 33.54101,-11.17968 c 5.08797,-10.17598 11.3877,-19.78223 17.19141,-25.58594 5.80371,-5.80371 9.61391,-7.26172 12.94727,-7.26172 19.16667,0 28.37371,8.89783 37.43164,27.01367 9.05792,18.11585 13.40234,44.44399 13.40234,64.65235 0,72.63065 -20.93056,111.10542 -41.82812,142.80078 l -3.65821,-1.82813 a 25,25 0 0 0 -12.67773,-2.59375 25,25 0 0 0 -20.86328,13.77539 25,25 0 0 0 11.17968,33.54102 l 19.47266,9.73633 C 694.41904,505.09794 698.75,612.48654 698.75,635 c 0,67.22222 -11.51186,116.28935 -26.52734,146.32031 C 657.20717,811.35127 641.24934,820 630.41602,820 624.02713,820 614.20834,814.77843 603.75,800.83398 593.29166,786.88953 583.95595,766.08347 578.83594,745.60352 a 25,25 0 0 0 -30.31641,-18.18946 25,25 0 0 0 -18.18945,30.31641 c 6.54669,26.18665 17.62826,52.04796 33.41992,73.10351 C 579.54166,851.88953 601.8049,870 630.41602,870 c 35.83333,0 66.54281,-26.35127 86.52734,-66.32031 C 736.92789,763.71065 748.75,707.77778 748.75,635 c 0,-21.33701 3.88836,-129.02566 -51.90625,-200.44336 22.61826,-34.7311 51.90625,-87.58145 51.90625,-172.89062 0,-26.45835 -4.40623,-58.46285 -18.68164,-87.01368 C 715.79294,146.10151 687.08269,120 647.91602,120 Z"
       id="path2" />
    <path
       style="stroke-width:40.8708;stroke-linecap:round;stroke-linejoin:round"
       d="m 387.91602,120 c -24.58334,0 -44.11545,14.38775 -57.85157,30.87109 -13.73612,16.48335 -23.40735,36.35094 -30.03125,56.22266 a 25,25 0 0 0 15.81055,31.62305 25,25 0 0 0 31.62305,-15.81055 c 5.04275,-15.12828 12.87088,-30.26069 21.00976,-40.02734 C 376.61544,173.11225 383.3327,170 387.91602,170 c 6.38888,0 17.97377,4.55015 29.49414,24.13477 11.52036,19.58461 21.33984,53.27199 21.33984,102.53125 0,92.3039 -36.35145,137.29404 -78.02148,205.75195 -41.67004,68.45791 -85.3125,157.42706 -85.3125,319.24805 a 25,25 0 0 0 25,25 25,25 0 0 0 22.48046,-14.06446 c 13.08425,5.05578 27.42645,10.98798 40.97071,16.56641 12.4485,5.12713 24.3201,9.96555 34.77539,13.71484 C 409.09786,866.6321 416.03172,870 428.75,870 c 14.30557,0 27.87541,-6.38344 35.95703,-13.31055 8.08162,-6.92711 12.36054,-12.98557 16.7207,-17.3457 a 25,25 0 0 0 0,-35.35547 25,25 0 0 0 -35.35546,0 c -7.30654,7.30647 -11.7776,12.91539 -13.9043,14.73828 C 430.04127,820.54945 431.94443,820 428.75,820 c 3.99016,0 -4.37651,-1.00659 -13.23047,-4.18164 -8.85396,-3.17505 -20.30097,-7.81258 -32.61133,-12.88281 -18.20346,-7.49742 -38.08805,-15.92334 -56.51367,-22.46289 6.19189,-125.89876 40.80874,-192.52899 77.04297,-252.05664 39.99664,-65.70877 85.3125,-125.72061 85.3125,-231.75 0,-55.74075 -10.59783,-97.88409 -28.24414,-127.88282 C 442.85955,138.78447 416.52713,120 387.91602,120 Z"
       id="path1-6-2-6-3" />
  </g>
</svg>
